<?xml version="1.0" encoding="UTF-8" standalone="no"?>
<svg
   xmlns:dc="http://purl.org/dc/elements/1.1/"
   xmlns:cc="http://creativecommons.org/ns#"
   xmlns:rdf="http://www.w3.org/1999/02/22-rdf-syntax-ns#"
   xmlns:svg="http://www.w3.org/2000/svg"
   xmlns="http://www.w3.org/2000/svg"
   viewBox="0 0 2620.9763 505.77667"
   height="505.77667"
   width="2620.9763"
   version="1.1"
   id="svg2">
  <metadata
     id="metadata8">
    <rdf:RDF>
      <cc:Work
         rdf:about="">
        <dc:format>image/svg+xml</dc:format>
        <dc:type
           rdf:resource="http://purl.org/dc/dcmitype/StillImage" />
        <dc:title></dc:title>
      </cc:Work>
    </rdf:RDF>
  </metadata>
  <defs
     id="defs6" />
  <path
     id="path4138"
     d="m 307.7152,504.98882 c -8.9763,-2.25093 -17.39569,-8.66839 -22.44213,-17.10592 -6.6527,-11.12318 -6.29234,-1.30939 -6.29234,-171.36314 0,-170.36811 -0.37455,-160.36005 6.41828,-171.5 4.23087,-6.93845 11.70456,-13.14953 19.23805,-15.98796 8.16049,-3.07467 21.36763,-2.56489 29.34367,1.13264 6.60751,3.0631 12.87844,8.96237 16.76981,15.77592 l 2.86343,5.01367 5.43338,-5.53375 c 10.81826,-11.01808 25.86224,-18.95262 41.66831,-21.97682 9.73835,-1.86325 29.96223,-1.81863 40.01471,0.0883 22.4707,4.26262 39.31812,13.60477 56.44614,31.30022 20.31307,20.98604 33.82764,47.60746 39.43882,77.68779 2.82243,15.13044 2.5988,45.99778 -0.44359,61.22776 -8.95803,44.84318 -37.69581,84.47733 -72.79038,100.38997 -3.78272,1.71516 -11.15784,4.2582 -16.38915,5.65119 -8.23536,2.1929 -11.72522,2.54601 -26.01148,2.63189 -12.85624,0.0773 -18.26667,-0.31313 -24.5,-1.7679 -13.49082,-3.14857 -26.70699,-9.11258 -36.14409,-16.31061 l -3.35591,-2.55969 0,6.24051 c 0,3.43228 0.49374,16.10135 1.09721,28.15349 1.63662,32.6859 -0.64955,53.44866 -7.54319,68.50635 -3.32853,7.27047 -11.39474,15.58458 -17.85223,18.40087 -5.83892,2.54652 -18.54377,3.51601 -24.96732,1.90522 z M 420.26112,326.54827 c 14.68425,-3.1116 25.71162,-12.36156 33.12263,-27.78386 6.05431,-12.59901 8.05136,-22.12336 7.91422,-37.74465 -0.18056,-20.56686 -5.89387,-37.02811 -17.02415,-49.05014 -9.59709,-10.36601 -20.22808,-14.94986 -34.67209,-14.94986 -14.71104,0 -25.39927,4.14046 -34.43509,13.33963 -13.81543,14.0652 -20.34124,36.07177 -18.06396,60.91594 3.6155,39.44357 29.78412,62.34496 63.15844,55.27294 z M 114.98073,402.39525 C 80.303835,397.9842 54.180272,383.96536 33.090201,358.44988 10.906227,331.61094 0.06140308,300.16243 2.5408047e-4,262.49353 -0.06769592,220.6347 13.49433,185.09374 39.697473,158.46208 c 24.523574,-24.92462 53.057865,-36.44232 90.283257,-36.44232 36.07612,0 63.47374,10.57296 87.36881,33.71633 26.59131,25.7548 40.33284,57.87512 42.26105,98.78367 2.29852,48.76484 -15.57042,92.45624 -49.25161,120.42526 -15.46541,12.84254 -32.42026,21.0901 -51.87825,25.23577 -8.80711,1.87642 -35.48213,3.23437 -43.5,2.21446 z m 26.28039,-75.84698 c 17.88063,-3.78891 30.98984,-17.46944 37.87775,-39.52851 2.09588,-6.71223 2.33967,-9.39064 2.32101,-25.5 -0.0198,-17.12115 -0.15769,-18.3906 -2.82357,-26 -1.54149,-4.4 -4.16764,-10.38873 -5.83589,-13.3083 -4.19994,-7.35022 -12.71184,-16.27087 -18.56508,-19.45661 -14.53674,-7.91189 -35.47364,-7.65716 -49.56865,0.60306 -6.934645,4.06398 -15.193183,13.74648 -19.588996,22.96661 -5.93366,12.44573 -7.435546,19.80508 -7.38668,36.19524 0.04975,16.6859 1.967992,25.23196 8.46784,37.72549 11.293138,21.70684 31.430036,31.31917 55.102266,26.30302 z m 538.21961,75.8834 c -12.51033,-1.79832 -23.30953,-4.08735 -30.84284,-6.53754 -37.71797,-12.26767 -69.17577,-45.20649 -81.53567,-85.37437 -5.24274,-17.03816 -6.54724,-26.75568 -6.51073,-48.5 0.0271,-16.14043 0.40616,-21.24078 2.20018,-29.60406 5.37219,-25.04373 14.4892,-43.77957 31.00905,-63.72497 20.03716,-24.19206 46.95183,-39.85561 77.561,-45.13826 11.58116,-1.99872 34.69819,-1.99637 46.1731,0.005 31.63905,5.51739 60.13598,24.75491 79.45599,53.63865 7.80562,11.66953 10.96512,17.96286 15.36705,30.60927 8.47705,24.35396 10.05298,53.61063 3.57205,66.3143 -2.46991,4.84143 -6.67261,8.24224 -13.68358,11.07271 l -5.7656,2.32736 -76.87339,0.291 -76.87339,0.29099 0.65416,5.20901 c 2.04554,16.28833 15.07531,28.829 36.29344,34.93109 6.62119,1.90418 10.1403,2.23655 23.29918,2.20055 13.94973,-0.0382 16.38511,-0.31392 24.34952,-2.75699 4.86723,-1.49301 13.86723,-4.99084 20,-7.77296 18.22199,-8.26635 31.72626,-13.12412 36.69368,-13.19948 17.36034,-0.26339 31.9568,14.88275 31.9568,33.16024 0,21.07756 -15.56021,37.57914 -46.39054,49.19709 -12.72283,4.79441 -29.26483,9.24521 -42.60946,11.46454 -9.10007,1.51341 -41.23902,2.79683 -47.5,1.89683 z m 62.79596,-172.16191 c -1.78254,-11.55901 -9.43379,-23.31687 -20.79596,-31.95765 -10.48879,-7.97658 -15.69514,-9.72949 -29,-9.7639 -10.60683,-0.0274 -11.26807,0.10044 -18.5,3.5775 -9.48507,4.56036 -17.52592,11.20572 -22.99797,19.00666 -4.19904,5.98614 -8.00203,15.71766 -8.00203,20.47648 l 0,2.41091 49.93713,0 49.93713,0 -0.5783,-3.75 z m 469.33881,171.68601 c -39.3435,-5.4573 -70.5367,-26.77293 -91.9354,-62.82316 -18.2716,-30.78227 -24.2512,-73.8724 -15.7136,-113.23651 5.9026,-27.21524 19.4656,-51.47539 39.6492,-70.92053 24.0329,-23.15369 50.1066,-32.95581 87.6629,-32.95581 46.6089,0 80.2457,14.56142 88.3302,38.23827 2.5767,7.5464 2.3134,19.54154 -0.5949,27.1054 -4.9563,12.88984 -14.7359,20.72424 -26.8312,21.49441 -7.8231,0.49814 -13.3394,-0.64551 -31.702,-6.57257 -22.2743,-7.18967 -36.7148,-7.05853 -52.2934,0.47492 -8.6015,4.15949 -18.2784,14.43709 -23.1138,24.54879 -5.9009,12.33967 -7.43,20.92586 -6.8662,38.55393 0.4053,12.67137 0.8506,15.78828 3.2874,23.00908 6.0322,17.87532 17.8005,31.1309 32.2529,36.32925 4.2842,1.54097 8.2603,2.07601 15.7331,2.11713 10.7029,0.0589 14.3321,-0.69108 35,-7.23275 16.3097,-5.16223 24.2737,-6.46223 31.0152,-5.0627 9.7749,2.02926 18.0038,9.26498 22.9284,20.16095 9.1619,20.2713 -1.4674,40.93611 -27.5631,53.5865 -19.619,9.51065 -34.6237,13.13106 -56.8805,13.72444 -8.525,0.22728 -18.5894,-0.0153 -22.3652,-0.53904 z m 234.0301,0.0339 c -33.1114,-5.21624 -58.3634,-22.38754 -78.6322,-53.4699 -28.9377,-44.37604 -32.7594,-107.08555 -9.5071,-156 7.3504,-15.46258 15.5627,-26.9005 28.3606,-39.5 17.3785,-17.10911 33.6951,-25.84477 55.2675,-29.58921 13.0913,-2.27234 36.3601,-1.50602 46.8189,1.54192 13.7779,4.01519 32.2768,15.67418 37.4874,23.62662 l 1.7467,2.66582 3.7269,-5.87257 c 4.4975,-7.08692 10.7026,-12.84933 16.944,-15.73525 3.8354,-1.77343 6.4953,-2.13733 15.6224,-2.13733 9.9835,0 11.5186,0.2548 16.6118,2.75724 7.0221,3.45017 15.1442,11.91889 18.6923,19.49012 l 2.6959,5.75264 0.2681,104.43168 c 0.2957,115.16456 0.5447,110.10682 -5.9198,120.26554 -8.6609,13.61041 -23.8951,20.02115 -40.0327,16.84628 -11.2251,-2.20841 -18.2992,-7.16519 -24.4519,-17.13333 l -3.6247,-5.87243 -7.9472,7.4762 c -9.194,8.64902 -21.321,15.21874 -34.2918,18.57733 -9.1584,2.37143 -30.36,3.3713 -39.8351,1.87863 z m 35.8351,-74.95638 c 9.2639,-1.5052 19.3169,-6.96834 25.8926,-14.07085 6.4498,-6.96656 12.6531,-18.92762 15.2697,-29.44268 2.488,-9.998 2.449,-33.42722 -0.072,-43 -5.2596,-19.976 -16.9272,-34.62038 -32.3266,-40.5743 -6.926,-2.67781 -21.4689,-3.69091 -29.1956,-2.03383 -14.1358,3.03159 -25.8337,12.70784 -32.9741,27.27546 -6.4527,13.16467 -7.6007,18.83781 -7.5546,37.33267 0.044,17.49083 1.139,23.4248 6.5108,35.27216 10.1126,22.30278 30.33,33.1603 54.4493,29.24137 z m 715.5,73.67716 c -11.7583,-3.40568 -21.0814,-11.0481 -26.2259,-21.49797 -3.0985,-6.29387 -3.2741,-7.24192 -3.2741,-17.67169 0,-10.16652 0.2278,-11.48624 2.9386,-17.02103 7.8447,-16.01749 25.9385,-25.58489 42.7766,-22.61891 18.7948,3.31063 32.4987,18.46254 33.5791,37.12731 1.0074,17.40162 -7.5895,31.78925 -23.4217,39.19801 -7.5531,3.53454 -19.0179,4.61451 -26.3726,2.48428 z m 183.7459,0.22364 c -9.4216,-2.2205 -19.2286,-9.28529 -24.5942,-17.71711 -15.3437,-24.11206 -0.8371,-56.3012 27.6331,-61.31613 16.8381,-2.96598 34.9319,6.60142 42.7766,22.61891 2.7108,5.53479 2.9386,6.85451 2.9386,17.02103 0,10.42977 -0.1756,11.37782 -3.2741,17.67169 -8.246,16.75002 -27.5186,25.95478 -45.48,21.72161 z M 869.72665,396.99791 c -14.53547,-3.67286 -26.20214,-16.91084 -28.78104,-32.65738 -0.5576,-3.40467 -0.9533,-45.87627 -0.9533,-102.32077 0,-56.4445 0.3957,-98.9161 0.9533,-102.32077 2.1092,-12.87859 9.71085,-23.42672 20.82176,-28.89248 6.38022,-3.13861 7.20042,-3.28675 18.19736,-3.28675 10.3801,0 12.07578,0.26241 17.19115,2.66041 7.00311,3.28293 14.16866,9.76149 17.76895,16.06535 l 2.72233,4.76662 3.15491,-4.39312 c 6.73623,-9.38005 18.34442,-16.8967 32.67866,-21.16042 12.19145,-3.62635 37.02997,-4.57425 52.42187,-2.00054 37.116,6.20625 61.3635,27.42699 70.3423,61.5617 2.2331,8.48966 2.2358,8.60706 2.2358,96.5 l 0,88 -2.5972,5.5 c -3.8507,8.15463 -10.8628,15.36266 -18.697,19.21943 -6.1305,3.01806 -7.4256,3.27902 -16.1848,3.26124 -8.3364,-0.0169 -10.2983,-0.37593 -15.7685,-2.88543 -14.4233,-6.61688 -21.9493,-21.50039 -24.249,-47.95537 -1.02251,-11.76337 -0.6843,-22.94033 2.1073,-69.63987 3.7632,-62.95357 -10.31235,-90.36689 -45.60699,-88.82323 -7.89297,0.34521 -10.14874,0.86619 -15.80288,3.64971 -14.6921,7.2329 -22.09004,21.82256 -24.85899,49.02503 -0.93656,9.20095 -0.81487,19.44075 0.64235,54.04973 1.95472,46.42449 1.5703,57.22483 -2.5684,72.15982 -5.4083,19.51653 -16.657,29.69113 -33.72046,30.50061 -4.23247,0.20079 -9.38473,-0.0618 -11.44948,-0.58352 z m 788.99995,0 c -14.1318,-3.57087 -25.8875,-16.47334 -28.6564,-31.45202 -1.514,-8.18958 -1.5163,-198.82906 0,-207.09247 2.1921,-11.96697 10.6151,-23.08686 21.633,-28.55941 4.231,-2.10154 6.1583,-2.37425 16.78,-2.37425 10.8364,0 12.5378,0.25223 17.5456,2.60111 7.1985,3.37635 12.4134,8.01636 17.0385,15.16014 l 3.73,5.76124 3.0764,-3.88423 c 7.6049,-9.60197 24.5582,-20.75747 36.0007,-23.68889 9.6931,-2.48328 22.9384,-1.70673 30.4178,1.78336 7.2632,3.38921 15.5431,11.71984 19.3412,19.45972 2.6084,5.3156 2.8498,6.73935 2.8498,16.80755 0,10.00435 -0.2516,11.51236 -2.7798,16.66054 -3.1818,6.47916 -8.5271,11.72086 -15.4343,15.13501 -2.6322,1.30109 -14.9871,5.88028 -27.4552,10.17598 -25.5842,8.81463 -29.7525,11.22863 -36.3622,21.05866 -2.2173,3.29765 -5.1317,9.13989 -6.4764,12.98276 l -2.445,6.98705 -0.565,61 c -0.5071,54.74693 -0.7435,61.45793 -2.3058,65.46723 -4.3423,11.1429 -11.6823,19.31491 -21.3058,23.72067 -6.1415,2.8117 -18.1433,3.92795 -24.6246,2.29025 z m 233,-0.0638 c -10.7566,-2.53514 -22.5911,-12.92662 -26.9111,-23.62975 l -2.3348,-5.7846 -0.2776,-83.25 -0.2776,-83.25 -6.8844,0 c -13.8951,0 -26.9276,-3.8469 -33.4036,-9.86002 -11.398,-10.58313 -12.4738,-36.81589 -2.011,-49.03926 6.5327,-7.632 19.1446,-12.0485 34.5057,-12.08336 l 7.6515,-0.0174 0.4217,-25.75 c 0.3302,-20.166594 0.8101,-27.376244 2.2133,-33.250004 4.402,-18.42715 12.4972,-27.97529 26.832,-31.64768 16.8118,-4.30699 33.4091,3.02216 40.6778,17.96286 5.6436,11.60022 6.2925,15.82 6.9488,45.184824 l 0.6034,27 16,0.6381 c 22.0862,0.88083 29.3461,2.86187 36.4231,9.93882 11.9724,11.97247 11.8852,38.97433 -0.1635,50.59675 -7.7919,7.51615 -14.3787,9.32497 -37.2596,10.23182 l -15,0.59451 -0.5,83.5 -0.5,83.5 -3.1382,6.62338 c -5.4511,11.50494 -13.4554,18.48538 -24.5978,21.45157 -5.8386,1.55427 -13.2985,1.68739 -19.0181,0.33938 z m 559.345,-111.8623 c 6.877,-12.23591 23.6793,-32.12626 52.4184,-62.05203 29.9476,-31.18411 40.0269,-43.79909 44.4578,-55.64169 2.5086,-6.70488 2.5488,-11.64909 0.137,-16.85831 -6.4348,-13.8986 -30.7499,-21.5278 -81.6041,-25.60444 -7.741,-0.62054 -42.6128,-1.24977 -78,-1.40744 -35.2,-0.15684 -71.875,-0.79031 -81.5,-1.40771 -105.4062,-6.76143 -168.5695,-26.892334 -207.9549,-66.277714 -10.3833,-10.38332 -18.0955,-20.7031 -28.2508,-37.80272 -4.4097,-7.425 -8.9541,-15.0750003 -10.0988,-17.0000003 -1.4646,-2.46296 1.0207,-0.53085 8.3877,6.52088 19.1852,18.3640103 36.382,30.4789803 58.1155,40.9416203 39.9009,19.20855 87.875,28.06004 176.3013,32.52862 26.8616,1.35743 113.9052,2.95109 163,2.98432 66.1996,0.0448 107.3505,3.65092 130.1489,11.40514 9.1734,3.12007 12.6329,4.976724 17.5637,9.425994 9.5881,8.65177 9.0595,18.41889 -1.892,34.9635 -10.547,15.9334 -33.1512,37.61676 -86.7777,83.24234 -16.4764,14.01817 -40.4946,34.64806 -53.3739,45.84419 -19.5458,16.99147 -23.0302,19.66873 -21.0781,16.19543 z"
     style="fill:#ffffff" />
</svg>
