<svg id="Address_book" data-name="Address book" xmlns="http://www.w3.org/2000/svg" viewBox="0 0 55 61"><defs><style>.cls-1{fill:#3886bd;}.cls-2{fill:#ea5455;}.cls-3{fill:#71c171;}.cls-4{opacity:0.15;}.cls-5,.cls-6,.cls-7,.cls-8{fill-rule:evenodd;}.cls-6{fill:#d3b083;}.cls-7{fill:#8f6346;}.cls-8{fill:#947a59;}</style></defs><title>book</title><rect class="cls-1" x="45" y="5" width="10" height="15" rx="4" ry="4"/><rect class="cls-2" x="45" y="23" width="10" height="15" rx="4" ry="4"/><rect class="cls-3" x="45" y="41" width="10" height="15" rx="4" ry="4"/><g class="cls-4"><path class="cls-5" d="M474,578h2V563h-2v15Zm0-18h2V545h-2v15Zm0-33v15h2V527h-2Z" transform="translate(-424 -522)"/></g><path class="cls-6" d="M469,522H432v61h37a5,5,0,0,0,5-5V527A5,5,0,0,0,469,522Z" transform="translate(-424 -522)"/><path class="cls-7" d="M428,522a4,4,0,0,0-4,4v53a4,4,0,0,0,4,4h4V522h-4Z" transform="translate(-424 -522)"/><path class="cls-8" d="M458.15,555.87a4.36,4.36,0,0,1-1.89,1.36,8.76,8.76,0,0,1-5.82-.09,4.23,4.23,0,0,1-2-1.73,4.91,4.91,0,0,1-.73-2.62,6.56,6.56,0,0,1,.65-2.85,4.79,4.79,0,0,1,1.94-2.12,6.11,6.11,0,0,1,3.14-.76,4.8,4.8,0,0,1,3.4,1.13A3.68,3.68,0,0,1,458,551a4.06,4.06,0,0,1-.43,1.81,3.79,3.79,0,0,1-1.13,1.39,1.56,1.56,0,0,1-.85.4,0.25,0.25,0,0,1-.19-0.09,0.37,0.37,0,0,1-.08-0.26,4,4,0,0,1,.1-0.6l1-4.9h-1.8l-0.17.76a2,2,0,0,0-1.8-.93,3.28,3.28,0,0,0-2.8,1.61,5.1,5.1,0,0,0-.9,2.93,2.88,2.88,0,0,0,.75,2.08,2.49,2.49,0,0,0,1.88.78,2.6,2.6,0,0,0,1.86-.78,1,1,0,0,0,.38.58,1.51,1.51,0,0,0,.85.2,4.15,4.15,0,0,0,3.45-1.78,5.07,5.07,0,0,0,1.07-3.15,5.31,5.31,0,0,0-.71-2.7,4.73,4.73,0,0,0-2-1.9,6.76,6.76,0,0,0-3.06-.67,7.65,7.65,0,0,0-3.61.83,6,6,0,0,0-2.49,2.49,7.32,7.32,0,0,0-.91,3.58,6.73,6.73,0,0,0,.8,3.24,5.13,5.13,0,0,0,2.44,2.25,9.17,9.17,0,0,0,3.9.76,8,8,0,0,0,4-.9,5,5,0,0,0,2.1-2.17h-1.46Zm-4.3-3a3.55,3.55,0,0,1-.62,1.22,1.8,1.8,0,0,1-.51.43,1.47,1.47,0,0,1-.73.19,1.11,1.11,0,0,1-.87-0.41,1.93,1.93,0,0,1-.35-1.28,5.25,5.25,0,0,1,.25-1.49,2.79,2.79,0,0,1,.75-1.29,1.58,1.58,0,0,1,1.09-.46,1.15,1.15,0,0,1,.91.41,1.76,1.76,0,0,1,.36,1.19A4.78,4.78,0,0,1,453.85,552.91Z" transform="translate(-424 -522)"/></svg>