<svg id="Briefcase" xmlns="http://www.w3.org/2000/svg" viewBox="0 0 62 62"><defs><style>.cls-1{fill:#8f6346;}.cls-2{fill:#724e36;}.cls-2,.cls-4,.cls-5{fill-rule:evenodd;}.cls-3{opacity:0.17;}.cls-5{fill:#f6e37b;}.cls-6{opacity:0.18;}</style></defs><title>case</title><rect class="cls-1" y="13" width="62" height="49" rx="5" ry="5"/><path class="cls-2" d="M335.26,580h-2a0.5,0.5,0,0,0,0,1h2A0.5,0.5,0,0,0,335.26,580Zm-4.91-27h-2a0.5,0.5,0,0,0,0,1h2A0.5,0.5,0,0,0,330.36,553Zm0,27h-2a0.5,0.5,0,0,0,0,1h2A0.5,0.5,0,0,0,330.36,580Zm-4.91-27h-2a0.5,0.5,0,0,0,0,1h2A0.5,0.5,0,0,0,325.45,553Zm0,27h-2a0.5,0.5,0,0,0,0,1h2A0.5,0.5,0,0,0,325.45,580ZM350,580h-2a0.5,0.5,0,0,0,0,1h2A0.5,0.5,0,0,0,350,580Zm-4.91,0h-2a0.5,0.5,0,0,0,0,1h2A0.5,0.5,0,0,0,345.08,580Zm-4.91,0h-2a0.5,0.5,0,0,0,0,1h2A0.5,0.5,0,0,0,340.17,580Zm4.91-27h-2a0.5,0.5,0,0,0,0,1h2A0.5,0.5,0,0,0,345.08,553Zm-4.91,0h-2a0.5,0.5,0,0,0,0,1h2A0.5,0.5,0,0,0,340.17,553Zm-4.91,0h-2a0.5,0.5,0,0,0,0,1h2A0.5,0.5,0,0,0,335.26,553ZM321.5,571a0.5,0.5,0,0,0-.5.5v2a0.5,0.5,0,0,0,1,0v-2A0.5,0.5,0,0,0,321.5,571ZM321,536.5a0.5,0.5,0,0,0,1,0v-1.4l-1,.32v1.08Zm0.5,24.5a0.5,0.5,0,0,0-.5.5v2a0.5,0.5,0,0,0,1,0v-2A0.5,0.5,0,0,0,321.5,561Zm0,15a0.5,0.5,0,0,0-.5.5v2a0.5,0.5,0,0,0,1,0v-2A0.5,0.5,0,0,0,321.5,576Zm0-10a0.5,0.5,0,0,0-.5.5v2a0.5,0.5,0,0,0,1,0v-2A0.5,0.5,0,0,0,321.5,566Zm0-27a0.5,0.5,0,0,0-.5.5v2a0.5,0.5,0,0,0,1,0v-2A0.5,0.5,0,0,0,321.5,539ZM321,558.5a0.5,0.5,0,0,0,1,0V557h-1v1.5Zm0.5-14.5a0.5,0.5,0,0,0-.5.5v2a0.5,0.5,0,0,0,1,0v-2A0.5,0.5,0,0,0,321.5,544Zm0,5a0.5,0.5,0,0,0-.5.5v2a0.5,0.5,0,0,0,1,0v-2A0.5,0.5,0,0,0,321.5,549Zm54.5,9.5a0.5,0.5,0,0,0,1,0V557h-1v1.5Zm-1.49-5.5h-2a0.5,0.5,0,0,0,0,1h2A0.5,0.5,0,0,0,374.51,553Zm2,8a0.5,0.5,0,0,0-.5.5v2a0.5,0.5,0,0,0,1,0v-2A0.5,0.5,0,0,0,376.5,561Zm0,5a0.5,0.5,0,0,0-.5.5v2a0.5,0.5,0,0,0,1,0v-2A0.5,0.5,0,0,0,376.5,566Zm0,10a0.5,0.5,0,0,0-.5.5v2a0.5,0.5,0,0,0,1,0v-2A0.5,0.5,0,0,0,376.5,576Zm0-5a0.5,0.5,0,0,0-.5.5v2a0.5,0.5,0,0,0,1,0v-2A0.5,0.5,0,0,0,376.5,571Zm0-22a0.5,0.5,0,0,0-.5.5v2a0.5,0.5,0,0,0,1,0v-2A0.5,0.5,0,0,0,376.5,549ZM376,535.1v1.4a0.5,0.5,0,0,0,1,0v-1.08Zm0.5,3.9a0.5,0.5,0,0,0-.5.5v2a0.5,0.5,0,0,0,1,0v-2A0.5,0.5,0,0,0,376.5,539Zm0,5a0.5,0.5,0,0,0-.5.5v2a0.5,0.5,0,0,0,1,0v-2A0.5,0.5,0,0,0,376.5,544Zm-2,36h-2a0.5,0.5,0,0,0,0,1h2A0.5,0.5,0,0,0,374.51,580Zm-14.72,0h-2a0.5,0.5,0,0,0,0,1h2A0.5,0.5,0,0,0,359.79,580Zm-4.91-27h-2a0.5,0.5,0,0,0,0,1h2A0.5,0.5,0,0,0,354.89,553Zm0,27h-2a0.5,0.5,0,0,0,0,1h2A0.5,0.5,0,0,0,354.89,580Zm4.91-27h-2a0.5,0.5,0,0,0,0,1h2A0.5,0.5,0,0,0,359.79,553Zm9.81,0h-2a0.5,0.5,0,0,0,0,1h2A0.5,0.5,0,0,0,369.6,553Zm-4.91,27h-2a0.5,0.5,0,0,0,0,1h2A0.5,0.5,0,0,0,364.7,580ZM350,553h-2a0.5,0.5,0,0,0,0,1h2A0.5,0.5,0,0,0,350,553Zm19.62,27h-2a0.5,0.5,0,0,0,0,1h2A0.5,0.5,0,0,0,369.6,580Zm-4.91-27h-2a0.5,0.5,0,0,0,0,1h2A0.5,0.5,0,0,0,364.7,553Z" transform="translate(-318 -522)"/><g class="cls-3"><path class="cls-4" d="M375,557H323a5,5,0,0,1-5-5v4a5,5,0,0,0,5,5h52a5,5,0,0,0,5-5v-4A5,5,0,0,1,375,557Z" transform="translate(-318 -522)"/></g><path class="cls-5" d="M360,522H338a7,7,0,0,0-7,7v6h6v-3a4,4,0,0,1,4-4h16a4,4,0,0,1,4,4v3h6v-6A7,7,0,0,0,360,522Z" transform="translate(-318 -522)"/><g class="cls-6"><path class="cls-4" d="M334,556a3,3,0,0,0-3,3v6a3,3,0,0,0,6,0v-6A3,3,0,0,0,334,556Zm30,0a3,3,0,0,0-3,3v6a3,3,0,0,0,6,0v-6A3,3,0,0,0,364,556Z" transform="translate(-318 -522)"/></g><path class="cls-5" d="M334,553a3,3,0,0,0-3,3v6a3,3,0,0,0,6,0v-6A3,3,0,0,0,334,553Zm30,0a3,3,0,0,0-3,3v6a3,3,0,0,0,6,0v-6A3,3,0,0,0,364,553Z" transform="translate(-318 -522)"/></svg>