<svg id="Chart" xmlns="http://www.w3.org/2000/svg" viewBox="0 0 62 62"><defs><style>.cls-1{fill:#8ba7bd;}.cls-2{fill:#97b5cd;}.cls-2,.cls-3,.cls-5,.cls-6{fill-rule:evenodd;}.cls-3{fill:#899fb0;}.cls-4{opacity:0.12;}.cls-6{fill:#f1eea4;}</style></defs><title>chart</title><rect class="cls-1" width="62" height="62" rx="5" ry="5"/><path class="cls-2" d="M420,371h62V357H420v14Zm0-40v14h62V331H420Z" transform="translate(-420 -318)"/><path class="cls-3" d="M441,371h5v-1h-5v1Zm-8-39h5v-1h-5v1Zm8,26h5v-1h-5v1Zm8,13h5v-1h-5v1Zm-8-26h5v-1h-5v1Zm0-13h5v-1h-5v1Zm-16,13h5v-1h-5v1Zm0,13h5v-1h-5v1Zm24,0h5v-1h-5v1Zm-16-13h5v-1h-5v1Zm-8,26h5v-1h-5v1Zm8-13h5v-1h-5v1Zm0,13h5v-1h-5v1Zm-8-39h5v-1h-5v1Zm32,0h5v-1h-5v1Zm16,26h5v-1h-5v1Zm0,13h5v-1h-5v1Zm-8-26h5v-1h-5v1Zm0-13h5v-1h-5v1Zm8-1v1h5v-1h-5Zm0,14h5v-1h-5v1Zm-16,13h5v-1h-5v1Zm8,0h5v-1h-5v1Zm-16-26h5v-1h-5v1Zm0,13h5v-1h-5v1Zm8,26h5v-1h-5v1Zm8,0h5v-1h-5v1Zm-8-26h5v-1h-5v1Z" transform="translate(-420 -318)"/><g class="cls-4"><path class="cls-5" d="M473,338a4,4,0,0,0-3.2,6.37l-11.66,11.17a4,4,0,0,0-6.65.58L440.86,350a4,4,0,1,0-7.61.38L420,360.79v2l14.08-11.07a4,4,0,0,0,6-.19L451,357.85s0,0.1,0,.15a4,4,0,1,0,7.8-1.18l0.2-.19v1l12.29-12A4,4,0,1,0,473,338Zm-36,13.55a2.53,2.53,0,0,1-2-1V349l-0.51.4A2.54,2.54,0,1,1,437,351.55Zm18,9a2.54,2.54,0,0,1-2.42-1.79L453,359v-2l-0.26-.15A2.54,2.54,0,1,1,455,360.54Zm18-16a2.53,2.53,0,0,1-1-.21V344h-0.56A2.53,2.53,0,1,1,473,344.54Z" transform="translate(-420 -318)"/></g><path class="cls-6" d="M473,336a4,4,0,0,0-3.2,6.37l-11.66,11.17a4,4,0,0,0-6.65.58L440.86,348a4,4,0,1,0-7.61.38L420,358.79v2l14.08-11.07a4,4,0,0,0,6-.19L451,355.85s0,0.1,0,.15a4,4,0,1,0,7.8-1.18l0.2-.19v1l12.29-12A4,4,0,1,0,473,336Zm-36,13.54a2.53,2.53,0,0,1-2-1V347l-0.51.4A2.54,2.54,0,1,1,437,349.54Zm18,9a2.54,2.54,0,0,1-2.42-1.79L453,357v-2l-0.26-.15A2.54,2.54,0,1,1,455,358.54Zm18-16a2.53,2.53,0,0,1-1-.21V342h-0.56A2.53,2.53,0,1,1,473,342.54Z" transform="translate(-420 -318)"/></svg>