<svg id="Chat_clouds" data-name="Chat clouds" xmlns="http://www.w3.org/2000/svg" viewBox="0 0 62 53"><defs><style>.cls-1{fill:#b64167;}.cls-2{opacity:0.2;}.cls-3,.cls-4,.cls-5{fill-rule:evenodd;}.cls-4{fill:#ea5485;}.cls-5{fill:#ffaac6;}</style></defs><title>chat</title><rect class="cls-1" x="12" width="50" height="36" rx="5" ry="5"/><g class="cls-2"><path class="cls-3" d="M468.43,433.54L452.58,461H477a5,5,0,0,0,5-5V441.38Z" transform="translate(-420 -425)"/></g><path class="cls-4" d="M465,432H425a5,5,0,0,0-5,5v26a5,5,0,0,0,5,5h3v10l14.71-10H465a5,5,0,0,0,5-5V437A5,5,0,0,0,465,432Z" transform="translate(-420 -425)"/><path class="cls-5" d="M431,441v2h27v-2H431Zm0,7h27v-2H431v2Zm0,5h27v-2H431v2Zm0,5h27v-2H431v2Z" transform="translate(-420 -425)"/></svg>