<svg id="Clock" xmlns="http://www.w3.org/2000/svg" viewBox="0 0 62 64"><defs><style>.cls-1{opacity:0.3;}.cls-2,.cls-8{fill:#d95e5e;}.cls-3{fill:#f4f0e6;}.cls-4{fill:#e4ded0;}.cls-4,.cls-5,.cls-7,.cls-8{fill-rule:evenodd;}.cls-5{fill:#dcd8cd;}.cls-6{opacity:0.1;}.cls-9{fill:#fff;}</style></defs><title>clock</title><g class="cls-1"><circle cx="31" cy="33" r="31"/></g><circle class="cls-2" cx="31" cy="31" r="31"/><circle class="cls-3" cx="31" cy="31" r="23"/><path class="cls-4" d="M247,324a25,25,0,1,0,25,25A25,25,0,0,0,247,324Zm0,47a22,22,0,1,1,22-22A22,22,0,0,1,247,371Z" transform="translate(-216 -318)"/><path class="cls-5" d="M247,327a1,1,0,0,0-1,1v3a1,1,0,0,0,2,0v-3A1,1,0,0,0,247,327Zm0,39a1,1,0,0,0-1,1v3a1,1,0,0,0,2,0v-3A1,1,0,0,0,247,366Zm21-18h-3a1,1,0,0,0,0,2h3A1,1,0,0,0,268,348Zm-39,0h-3a1,1,0,0,0,0,2h3A1,1,0,0,0,229,348Z" transform="translate(-216 -318)"/><g class="cls-6"><path class="cls-7" d="M261,351H248v2h13A1,1,0,0,0,261,351Z" transform="translate(-216 -318)"/></g><path class="cls-8" d="M260,347H248a2,2,0,0,0,0,4h12A2,2,0,0,0,260,347Z" transform="translate(-216 -318)"/><path class="cls-8" d="M247.22,346.89l-10.61-10.61a2,2,0,1,0-2.83,2.83l10.61,10.61A2,2,0,0,0,247.22,346.89Z" transform="translate(-216 -318)"/><g class="cls-6"><circle cx="30.5" cy="32.5" r="4.5"/></g><circle class="cls-9" cx="30.5" cy="30.5" r="4.5"/></svg>