<svg id="Envelope" xmlns="http://www.w3.org/2000/svg" viewBox="0 0 62 62"><defs><style>.cls-1{fill:#96383d;}.cls-2{fill:#ebe2ce;}.cls-2,.cls-3,.cls-4,.cls-5,.cls-7,.cls-8{fill-rule:evenodd;}.cls-3{fill:#c9c1b1;}.cls-4{fill:#d54d54;}.cls-5{fill:#ea5455;}.cls-6{opacity:0.07;}.cls-8{fill:#fffbf2;}</style></defs><title>envelope</title><rect class="cls-1" y="19" width="62" height="36" rx="8" ry="8"/><path class="cls-2" d="M357.94,216H326a3,3,0,0,0-3,3v41a3,3,0,0,0,3,3h46a3,3,0,0,0,3-3V233.06Z" transform="translate(-318 -216)"/><path class="cls-3" d="M329,260h40v-3H329v3Zm0,6h40v-3H329v3Zm23-38H329v3h23v-3Zm-23,26h40v-3H329v3Zm0-6h40v-3H329v3Zm0-9v3h40v-3H329Z" transform="translate(-318 -216)"/><path class="cls-4" d="M378.26,239L320,276.8a4.92,4.92,0,0,0,3.19,1.2H375a5,5,0,0,0,5-5V242.8A5,5,0,0,0,378.26,239Z" transform="translate(-318 -216)"/><path class="cls-5" d="M319.74,239.23A5,5,0,0,0,318,243v30a5,5,0,0,0,5,5h52a5,5,0,0,0,3.2-1.19Z" transform="translate(-318 -216)"/><g class="cls-6"><polygon class="cls-7" points="41 1.06 41 16.99 57 22.02 57 17.06 41 1.06"/></g><path class="cls-8" d="M358,216.06V229h0v1a3,3,0,0,0,3,3h13.94Z" transform="translate(-318 -216)"/></svg>