<svg id="Map_pin" data-name="Map pin" xmlns="http://www.w3.org/2000/svg" viewBox="0 0 59.37 61.16"><defs><style>.cls-1{opacity:0.4;}.cls-2,.cls-3,.cls-4,.cls-6{fill-rule:evenodd;}.cls-3{fill:#fff;}.cls-4{fill:#72b19c;}.cls-5{opacity:0.19;}.cls-6{fill:#f7c369;}</style></defs><title>map</title><g class="cls-1"><polygon class="cls-2" points="13.99 51.31 0.02 61 0 61.16 16.67 58.79 30.13 60.99 27.24 55 13.99 51.31"/><polygon class="cls-2" points="56.48 55 44.37 51.31 30.13 60.99 44.37 58.79 59.37 60.99 56.48 55"/></g><path class="cls-3" d="M223,339.16l-5.14,40.92,16.67-6.25-0.58-37.9Zm49.44,0-10.25-3.23-14.34,4.38-13.91-4.38,0.06,3.6,0.52,34.3,13.46,6.08,14.23-6.08,15,6.09Z" transform="translate(-217.82 -318.92)"/><polygon class="cls-4" points="52.85 22.24 44.28 19.71 30 23.63 16.13 19.75 7.41 22.24 3.34 56.96 16.67 52.39 17.26 52.39 17.26 52.4 16.67 52.39 30.13 57.98 44.36 52.72 56.92 56.96 52.85 22.24"/><g class="cls-5"><path class="cls-2" d="M233.91,335.93l0.06,3.6,0.52,34.3,13.46,6.08-0.13-39.61Zm38.5,3.23-10.25-3.23,0,37.9,15,6.09Z" transform="translate(-217.82 -318.92)"/></g><path class="cls-6" d="M248.18,318.92a14.13,14.13,0,0,0-14,14.25c0,7.87,14,23.75,14,23.75s14-15.88,14-23.75A14.13,14.13,0,0,0,248.18,318.92Zm0,20.19a7.13,7.13,0,1,1,7-7.12A7.06,7.06,0,0,1,248.18,339.11Z" transform="translate(-217.82 -318.92)"/></svg>