<?xml version="1.0" encoding="UTF-8" standalone="no"?>
<svg
   xmlns:dc="http://purl.org/dc/elements/1.1/"
   xmlns:cc="http://creativecommons.org/ns#"
   xmlns:rdf="http://www.w3.org/1999/02/22-rdf-syntax-ns#"
   xmlns:svg="http://www.w3.org/2000/svg"
   xmlns="http://www.w3.org/2000/svg"
   width="87.912933mm"
   height="18.900267mm"
   viewBox="0 0 87.912933 18.900267"
   version="1.1"
   id="svg8">
  <defs
     id="defs2">
    <rect
       x="21.166668"
       y="6.6145835"
       width="89.495667"
       height="13.472535"
       id="rect835" />
    <rect
       x="24.042496"
       y="36.063744"
       width="93.649399"
       height="21.909693"
       id="rect857-7" />
  </defs>
  <metadata
     id="metadata5">
    <rdf:RDF>
      <cc:Work
         rdf:about="">
        <dc:format>image/svg+xml</dc:format>
        <dc:type
           rdf:resource="http://purl.org/dc/dcmitype/StillImage" />
        <dc:title></dc:title>
      </cc:Work>
    </rdf:RDF>
  </metadata>
  <g
     id="layer1"
     transform="translate(-21.233642,-7.7687426)">
    <g
       aria-label="Джедай верстки #8
"
       id="text833"
       style="font-style:normal;font-weight:normal;font-size:10.5833px;line-height:1.25;font-family:sans-serif;white-space:pre;shape-inside:url(#rect835);fill:#000000;fill-opacity:1;stroke:none">
      <path
         d="m 21.356515,18.309709 v -3.20674 h 0.243416 q 0.243416,-0.07408 0.444498,-0.253999 0.211666,-0.190499 0.380999,-0.507998 0.169333,-0.317499 0.306916,-0.793748 0.137583,-0.476248 0.232833,-1.132413 0.09525,-0.666748 0.158749,-1.534578 l 0.232833,-2.9950741 h 3.989904 v 7.2178101 h 0.96308 v 3.20674 h -1.248829 l -0.09525,-1.852077 h -4.20157 l -0.105833,1.852077 z m 2.031994,-3.20674 h 2.190743 V 9.229238 h -0.793748 l -0.09525,1.841494 q -0.05292,0.910164 -0.158749,1.545162 -0.09525,0.634998 -0.232833,1.05833 -0.126999,0.412749 -0.275165,0.677331 -0.148167,0.264582 -0.317499,0.433915 -0.15875,0.169333 -0.317499,0.317499 z"
         style="fill:#ffffff;fill-opacity:1"
         id="path1177" />
      <path
         d="m 28.574313,16.457632 1.21708,-3.079741 -1.142996,-3.037407 h 1.492245 l 0.973663,2.899825 h 0.127 v -2.899825 h 1.439329 v 2.899825 h 0.116416 l 1.037163,-2.899825 h 1.513412 l -1.217079,3.037407 1.280579,3.079741 H 33.98238 l -1.18533,-2.952741 h -0.116416 v 2.952741 h -1.439329 v -2.952741 h -0.127 l -1.111246,2.952741 z"
         style="fill:#ffffff;fill-opacity:1"
         id="path1179" />
      <path
         d="m 38.025199,16.563465 q -0.666748,0 -1.142997,-0.232833 -0.476248,-0.243416 -0.730248,-0.698498 -0.253999,-0.465665 -0.253999,-1.111246 v -2.24366 q 0,-0.656164 0.253999,-1.111246 0.254,-0.455082 0.730248,-0.687915 0.486832,-0.243416 1.142997,-0.243416 0.677331,0 1.121829,0.232833 0.455082,0.232833 0.677331,0.687915 0.232833,0.455081 0.232833,1.121829 v 1.227663 h -2.455325 v 1.174746 q 0,0.232833 0.05292,0.380999 0.05292,0.148166 0.148166,0.211666 0.09525,0.0635 0.22225,0.0635 0.126999,0 0.222249,-0.05292 0.105833,-0.0635 0.158749,-0.190499 0.0635,-0.127 0.0635,-0.349249 v -0.645581 h 1.587495 v 0.592665 q 0,0.93133 -0.539748,1.407578 -0.539749,0.465666 -1.492245,0.465666 z M 37.601867,12.70056 h 0.86783 v -0.613831 q 0,-0.243416 -0.0635,-0.380999 -0.05292,-0.137583 -0.158749,-0.190499 -0.09525,-0.05292 -0.232833,-0.05292 -0.126999,0 -0.222249,0.0635 -0.08467,0.0635 -0.137583,0.222249 -0.05292,0.148166 -0.05292,0.433916 z"
         style="fill:#ffffff;fill-opacity:1"
         id="path1181" />
      <path
         d="m 40.798016,18.11921 v -2.709325 q 0.349249,-0.15875 0.603248,-0.412749 0.253999,-0.264582 0.433916,-0.634998 0.179916,-0.380998 0.285749,-0.878414 0.105833,-0.507998 0.148166,-1.153579 l 0.179916,-1.989661 H 45.8145 v 5.058818 h 0.888997 v 2.719908 h -1.238246 l -0.116416,-1.661578 h -3.196156 l -0.09525,1.661578 z m 1.862661,-2.719908 h 1.576912 V 11.367064 H 43.72959 l -0.126999,1.375829 q -0.03175,0.582082 -0.116417,1.015997 -0.08467,0.423332 -0.211666,0.740831 -0.116416,0.306916 -0.275166,0.529165 -0.158749,0.211666 -0.338665,0.370416 z"
         style="fill:#ffffff;fill-opacity:1"
         id="path1183" />
      <path
         d="m 48.682557,16.563465 q -0.465665,0 -0.783164,-0.22225 -0.317499,-0.222249 -0.476249,-0.560915 -0.158749,-0.349248 -0.158749,-0.709081 0,-0.571498 0.222249,-0.96308 0.232833,-0.391582 0.603248,-0.656164 0.370416,-0.264583 0.814914,-0.444499 0.444499,-0.190499 0.878414,-0.338666 v -0.613831 q 0,-0.15875 -0.03175,-0.275166 -0.03175,-0.126999 -0.105833,-0.190499 -0.07408,-0.07408 -0.222249,-0.07408 -0.148166,0 -0.232833,0.0635 -0.07408,0.0635 -0.105833,0.179917 -0.03175,0.105833 -0.04233,0.243415 l -0.04233,0.444499 -1.608661,-0.0635 q 0.05292,-1.100663 0.582081,-1.619245 0.539748,-0.529165 1.608662,-0.529165 0.93133,0 1.386412,0.518582 0.465665,0.507999 0.465665,1.322913 v 2.85749 q 0,0.380999 0.01058,0.666748 0.02117,0.285749 0.04233,0.497415 0.03175,0.211666 0.05292,0.359833 h -1.545162 q -0.03175,-0.243416 -0.07408,-0.529165 -0.04233,-0.285749 -0.0635,-0.338666 -0.105833,0.380999 -0.402165,0.677331 -0.285749,0.296333 -0.772581,0.296333 z m 0.613831,-1.164163 q 0.105833,0 0.1905,-0.04233 0.09525,-0.04233 0.169333,-0.116416 0.07408,-0.07408 0.126999,-0.148166 v -1.672161 q -0.211666,0.126999 -0.391582,0.264582 -0.179916,0.127 -0.306916,0.285749 -0.126999,0.15875 -0.201082,0.349249 -0.0635,0.179916 -0.0635,0.412749 0,0.306915 0.127,0.486832 0.126999,0.179916 0.349248,0.179916 z"
         style="fill:#ffffff;fill-opacity:1"
         id="path1185" />
      <path
         d="m 52.460794,16.457632 v -6.117148 h 1.365245 v 3.27024 l 1.598078,-3.27024 h 1.34408 v 6.117148 h -1.396996 v -3.23849 l -1.555745,3.23849 z M 54.63037,9.65257 q -0.751414,0 -1.206496,-0.423332 -0.455082,-0.423332 -0.455082,-1.2276628 h 0.973664 q 0,0.3915821 0.148166,0.5820815 0.158749,0.1904994 0.539748,0.1904994 0.370415,0 0.529165,-0.1904994 0.158749,-0.2010827 0.158749,-0.5820815 h 0.973664 q 0,0.8043308 -0.455082,1.2276628 Q 55.381784,9.65257 54.63037,9.65257 Z"
         style="fill:#ffffff;fill-opacity:1"
         id="path1187" />
      <path
         d="m 60.546413,16.457632 v -6.117148 h 2.169576 q 0.920747,0 1.386412,0.201083 0.465665,0.1905 0.624415,0.529165 0.158749,0.338666 0.158749,0.793748 0,0.603248 -0.264582,0.888997 -0.253999,0.275166 -0.677331,0.391582 0.444498,0.105833 0.677331,0.317499 0.232833,0.211666 0.317499,0.518582 0.09525,0.306915 0.09525,0.709081 0,0.592664 -0.22225,0.99483 -0.222249,0.391582 -0.751414,0.582081 -0.529165,0.1905 -1.439329,0.1905 z m 1.714494,-0.952497 h 0.285749 q 0.232833,0 0.412749,-0.04233 0.179916,-0.04233 0.285749,-0.222249 0.116416,-0.190499 0.116416,-0.603248 0,-0.465665 -0.105833,-0.666748 -0.09525,-0.201082 -0.275166,-0.243416 -0.179916,-0.04233 -0.423332,-0.04233 h -0.296332 z m 0,-2.751658 h 0.433915 q 0.306916,0 0.423332,-0.1905 0.116417,-0.201082 0.116417,-0.550331 0,-0.338666 -0.127,-0.560915 -0.116416,-0.222249 -0.539748,-0.222249 h -0.306916 z"
         style="fill:#ffffff;fill-opacity:1"
         id="path1189" />
      <path
         d="m 67.891215,16.563465 q -0.666748,0 -1.142996,-0.232833 -0.476249,-0.243416 -0.730248,-0.698498 -0.253999,-0.465665 -0.253999,-1.111246 v -2.24366 q 0,-0.656164 0.253999,-1.111246 0.253999,-0.455082 0.730248,-0.687915 0.486831,-0.243416 1.142996,-0.243416 0.677331,0 1.12183,0.232833 0.455082,0.232833 0.677331,0.687915 0.232832,0.455081 0.232832,1.121829 v 1.227663 h -2.455325 v 1.174746 q 0,0.232833 0.05292,0.380999 0.05292,0.148166 0.148167,0.211666 0.09525,0.0635 0.222249,0.0635 0.127,0 0.222249,-0.05292 0.105833,-0.0635 0.15875,-0.190499 0.0635,-0.127 0.0635,-0.349249 v -0.645581 h 1.587495 v 0.592665 q 0,0.93133 -0.539748,1.407578 -0.539748,0.465666 -1.492245,0.465666 z M 67.467883,12.70056 h 0.86783 v -0.613831 q 0,-0.243416 -0.0635,-0.380999 -0.05292,-0.137583 -0.15875,-0.190499 -0.09525,-0.05292 -0.232832,-0.05292 -0.127,0 -0.22225,0.0635 -0.08467,0.0635 -0.137583,0.222249 -0.05292,0.148166 -0.05292,0.433916 z m 0.86783,-3.2490727 V 7.8851589 h 1.375829 v 1.5663284 z m -2.307159,0 V 7.8851589 h 1.375829 v 1.5663284 z"
         style="fill:#ffffff;fill-opacity:1"
         id="path1191" />
      <path
         d="m 70.865115,18.468459 v -8.127975 h 1.725078 v 0.444499 q 0.306916,-0.275166 0.656165,-0.412749 0.349249,-0.137583 0.666748,-0.137583 0.349248,0 0.592664,0.137583 0.254,0.137583 0.412749,0.391582 0.15875,0.243416 0.232833,0.571499 0.07408,0.328082 0.07408,0.698497 v 2.635242 q 0,0.571498 -0.15875,0.99483 -0.148166,0.423332 -0.444498,0.666748 -0.296333,0.232833 -0.730248,0.232833 -0.328082,0 -0.666748,-0.148167 -0.328082,-0.158749 -0.634998,-0.423332 v 2.476493 z m 2.18016,-3.016241 q 0.169333,0 0.264582,-0.09525 0.09525,-0.09525 0.137583,-0.243415 0.05292,-0.15875 0.05292,-0.349249 v -2.857491 q 0,-0.179916 -0.04233,-0.317499 -0.04233,-0.148166 -0.137583,-0.232833 -0.09525,-0.08467 -0.243416,-0.08467 -0.137583,0 -0.264583,0.0635 -0.116416,0.05292 -0.222249,0.148166 v 3.809988 q 0.116416,0.07408 0.222249,0.116416 0.116417,0.04233 0.232833,0.04233 z"
         style="fill:#ffffff;fill-opacity:1"
         id="path1193" />
      <path
         d="m 78.19933,16.563465 q -0.666747,0 -1.142996,-0.243416 -0.465665,-0.243416 -0.719664,-0.698498 -0.253999,-0.455082 -0.253999,-1.100663 v -2.24366 q 0,-0.656164 0.253999,-1.111246 0.253999,-0.455082 0.719664,-0.687915 0.476249,-0.243416 1.142996,-0.243416 0.656165,0 1.111247,0.201083 0.465665,0.201083 0.709081,0.613832 0.243416,0.402165 0.243416,1.02658 v 0.645581 h -1.661578 v -0.698498 q 0,-0.243416 -0.05292,-0.370415 -0.04233,-0.137583 -0.137583,-0.1905 -0.08467,-0.05292 -0.211666,-0.05292 -0.126999,0 -0.211666,0.07408 -0.08467,0.0635 -0.126999,0.222249 -0.04233,0.148166 -0.04233,0.423332 v 2.539992 q 0,0.412749 0.09525,0.560915 0.105833,0.148166 0.296333,0.148166 0.137583,0 0.222249,-0.05292 0.08467,-0.0635 0.127,-0.1905 0.04233,-0.137583 0.04233,-0.359832 v -0.814914 h 1.661578 v 0.740831 q 0,0.613831 -0.253999,1.037163 -0.243416,0.412749 -0.709081,0.624415 -0.455082,0.201083 -1.100664,0.201083 z"
         style="fill:#ffffff;fill-opacity:1"
         id="path1195" />
      <path
         d="m 81.90347,16.457632 v -4.952985 h -1.111247 v -1.164163 h 3.936988 v 1.164163 h -1.111247 v 4.952985 z"
         style="fill:#ffffff;fill-opacity:1"
         id="path1197" />
      <path
         d="m 85.448863,16.457632 v -6.117148 h 1.725078 v 2.412993 h 0.253999 l 0.931331,-2.412993 h 1.852077 l -1.206496,2.889241 1.238246,3.227907 H 88.42277 l -0.99483,-2.709325 h -0.253999 v 2.709325 z"
         style="fill:#ffffff;fill-opacity:1"
         id="path1199" />
      <path
         d="m 90.846328,16.457632 v -6.117148 h 1.365246 v 3.27024 l 1.598078,-3.27024 h 1.344079 v 6.117148 h -1.396996 v -3.23849 l -1.555745,3.23849 z"
         style="fill:#ffffff;fill-opacity:1"
         id="path1201" />
      <path
         d="m 99.143611,16.457632 0.328082,-2.846908 h -0.582081 l 0.03175,-1.068913 h 0.698497 l 0.148167,-1.227663 h -0.836081 l 0.02117,-1.100663 h 1.005413 l 0.264585,-2.3283261 h 1.12183 l -0.27517,2.3283261 h 0.8255 l 0.26458,-2.3283261 h 1.11125 l -0.27517,2.3283261 h 0.56092 l -0.0318,1.100663 h -0.71967 l -0.13758,1.227663 h 0.83608 l -0.0318,1.068913 h -0.9525 l -0.34925,2.846908 h -1.10066 l 0.33867,-2.846908 h -0.8255 l -0.33867,2.846908 z m 1.576909,-3.915821 h 0.83608 l 0.14817,-1.227663 h -0.8255 z"
         style="fill:#f57500;fill-opacity:1"
         id="path1203" />
      <path
         d="m 106.79532,16.595215 q -0.86783,0 -1.38641,-0.338666 -0.51858,-0.349249 -0.74083,-0.952497 -0.22225,-0.613831 -0.22225,-1.396996 0.0106,-0.317499 0.0635,-0.613831 0.0635,-0.306916 0.17991,-0.560915 0.127,-0.264582 0.30692,-0.455082 0.1905,-0.201082 0.4445,-0.328082 -0.32808,-0.243416 -0.58208,-0.698498 -0.254,-0.465665 -0.27517,-1.174746 -0.0106,-0.7196644 0.23283,-1.2382461 0.254,-0.5185817 0.75142,-0.7937475 0.49741,-0.2751658 1.22766,-0.2751658 0.74083,0 1.22766,0.2857491 0.49742,0.2751658 0.74083,0.7937475 0.24342,0.5079984 0.22225,1.2276628 -0.0106,0.719664 -0.254,1.18533 -0.24341,0.455081 -0.58208,0.687914 0.254,0.127 0.43392,0.328082 0.1905,0.1905 0.30691,0.455082 0.127,0.253999 0.1905,0.560915 0.0635,0.296332 0.0635,0.613831 0.0212,0.783165 -0.21166,1.396996 -0.22225,0.603248 -0.74083,0.952497 -0.51859,0.338666 -1.397,0.338666 z m 0,-1.301746 q 0.28575,0 0.41275,-0.211666 0.127,-0.211666 0.15875,-0.497415 0.0318,-0.296333 0.0318,-0.539749 0.0106,-0.328082 -0.0318,-0.634998 -0.0318,-0.306915 -0.15875,-0.497415 -0.127,-0.201082 -0.41275,-0.201082 -0.27516,0 -0.40216,0.201082 -0.127,0.1905 -0.16934,0.497415 -0.0318,0.296333 -0.0318,0.634998 0,0.243416 0.0318,0.539749 0.0318,0.296332 0.15875,0.507998 0.13759,0.201083 0.41275,0.201083 z m 0,-3.979321 q 0.17992,0 0.29633,-0.137583 0.11642,-0.148166 0.16934,-0.433915 0.0635,-0.285749 0.0635,-0.709081 0,-0.4339155 -0.13759,-0.6879147 -0.127,-0.2539992 -0.39158,-0.2539992 -0.26458,0 -0.41275,0.2539992 -0.13758,0.2539992 -0.13758,0.6773307 0,0.423332 0.0529,0.719665 0.0635,0.285749 0.1905,0.433915 0.12699,0.137583 0.30691,0.137583 z"
         style="fill:#f57500;fill-opacity:1"
         id="path1205" />
    </g>
    <g
       aria-label="Создание Full Page слайдера от А до Я 
"
       transform="matrix(1.0229735,0,0,1.0229735,-3.5587195,-15.612975)"
       id="text855-6"
       style="font-style:normal;font-weight:normal;font-size:4.58611px;line-height:1.25;font-family:sans-serif;white-space:pre;shape-inside:url(#rect857-7);fill:#000000;fill-opacity:1;stroke:none">
      <path
         d="m 24.235585,38.65873 q 0,-0.298097 0.100895,-0.582436 0.10548,-0.288924 0.302683,-0.522816 0.197203,-0.238478 0.486128,-0.376061 0.288925,-0.14217 0.655813,-0.14217 0.435681,0 0.74295,0.201789 0.311856,0.197203 0.458611,0.509059 l -0.252236,0.155927 q -0.10548,-0.215547 -0.265994,-0.339372 -0.160514,-0.128411 -0.343958,-0.183444 -0.178859,-0.05503 -0.357717,-0.05503 -0.293511,0 -0.51823,0.119239 -0.22472,0.114653 -0.380648,0.311856 -0.151341,0.192616 -0.229305,0.43568 -0.07796,0.238478 -0.07796,0.486128 0,0.27058 0.09172,0.51823 0.09172,0.24765 0.256822,0.440267 0.1651,0.18803 0.385234,0.302683 0.224719,0.110067 0.486127,0.110067 0.183445,0 0.376061,-0.06421 0.192617,-0.06421 0.357717,-0.197202 0.169686,-0.132998 0.27058,-0.343959 l 0.265995,0.137584 q -0.100895,0.243063 -0.311856,0.41275 -0.210961,0.169686 -0.472369,0.256822 -0.256822,0.08714 -0.504472,0.08714 -0.334786,0 -0.614539,-0.14217 Q 24.863882,40.048322 24.657508,39.809844 24.455719,39.56678 24.345652,39.268683 24.235585,38.966 24.235585,38.65873 Z"
         style="font-style:normal;font-variant:normal;font-weight:normal;font-stretch:normal;font-size:4.58611px;font-family:raleway;-inkscape-font-specification:raleway;fill:#ffffff;fill-opacity:1"
         id="path1116" />
      <path
         d="m 28.55111,40.355591 q -0.256822,0 -0.476955,-0.09631 -0.215548,-0.100895 -0.376061,-0.270581 -0.155928,-0.174272 -0.243064,-0.394405 -0.08714,-0.224719 -0.08714,-0.472369 0,-0.256823 0.08714,-0.476956 0.08714,-0.224719 0.24765,-0.394405 0.160514,-0.174273 0.376061,-0.270581 0.220133,-0.100894 0.476955,-0.100894 0.256822,0 0.47237,0.100894 0.215547,0.09631 0.376061,0.270581 0.160513,0.169686 0.24765,0.394405 0.08714,0.220133 0.08714,0.476956 0,0.24765 -0.08714,0.472369 -0.08714,0.220133 -0.24765,0.394405 -0.155928,0.169686 -0.376061,0.270581 -0.215548,0.09631 -0.476956,0.09631 z m -0.866775,-1.229077 q 0,0.265994 0.114653,0.486127 0.119239,0.215548 0.316442,0.343959 0.197202,0.123825 0.43568,0.123825 0.238478,0 0.435681,-0.128411 0.197202,-0.128412 0.316441,-0.348545 0.119239,-0.224719 0.119239,-0.486128 0,-0.265994 -0.119239,-0.486127 -0.119239,-0.220133 -0.316441,-0.348545 -0.197203,-0.128411 -0.435681,-0.128411 -0.238478,0 -0.43568,0.132998 -0.192617,0.132997 -0.311856,0.35313 -0.119239,0.215547 -0.119239,0.486128 z"
         style="font-style:normal;font-variant:normal;font-weight:normal;font-stretch:normal;font-size:4.58611px;font-family:raleway;-inkscape-font-specification:raleway;fill:#ffffff;fill-opacity:1"
         id="path1118" />
      <path
         d="m 30.954228,40.337247 q -0.3302,0 -0.564091,-0.123825 -0.233892,-0.128411 -0.357717,-0.357717 l 0.256822,-0.114653 q 0.08714,0.160514 0.252237,0.252237 0.165099,0.08714 0.398991,0.08714 0.279753,0 0.444853,-0.128411 0.169686,-0.128412 0.169686,-0.343959 0,-0.197202 -0.132997,-0.316441 -0.132998,-0.119239 -0.366889,-0.123825 h -0.243064 v -0.215547 h 0.261408 q 0.100895,0 0.183445,-0.05503 0.08255,-0.05503 0.128411,-0.146755 0.04586,-0.09172 0.04586,-0.206375 0,-0.178859 -0.128411,-0.288925 -0.123825,-0.110067 -0.366889,-0.110067 -0.201789,0 -0.339372,0.08255 -0.132997,0.07796 -0.215547,0.233892 l -0.238478,-0.128411 q 0.10548,-0.210961 0.311855,-0.3302 0.210961,-0.119239 0.490714,-0.119239 0.229306,0 0.398992,0.07796 0.174272,0.07338 0.27058,0.215547 0.100895,0.137583 0.100895,0.334786 0,0.169686 -0.08255,0.316442 -0.08255,0.142169 -0.229306,0.215547 0.210961,0.0642 0.325614,0.224719 0.119239,0.160514 0.119239,0.376061 0,0.215547 -0.114653,0.371475 -0.114653,0.155928 -0.316441,0.238478 -0.201789,0.08255 -0.463198,0.08255 z"
         style="font-style:normal;font-variant:normal;font-weight:normal;font-stretch:normal;font-size:4.58611px;font-family:raleway;-inkscape-font-specification:raleway;fill:#ffffff;fill-opacity:1"
         id="path1120" />
      <path
         d="m 32.096162,40.864649 v -0.834672 h 0.04127 q 0.10548,0 0.192617,-0.06421 0.08714,-0.06421 0.155927,-0.22472 0.06879,-0.160513 0.110067,-0.440266 0.04127,-0.284339 0.05503,-0.715433 l 0.02293,-0.664986 h 1.554691 v 2.10961 h 0.321028 v 0.834672 H 34.269978 V 40.30973 h -1.89865 v 0.554919 z m 0.513644,-0.834672 h 1.307042 v -1.829858 h -0.963084 l -0.01376,0.41275 q -0.01376,0.426509 -0.05962,0.715434 -0.04127,0.284338 -0.110067,0.454024 -0.06421,0.1651 -0.160514,0.24765 z"
         style="font-style:normal;font-variant:normal;font-weight:normal;font-stretch:normal;font-size:4.58611px;font-family:raleway;-inkscape-font-specification:raleway;fill:#ffffff;fill-opacity:1"
         id="path1122" />
      <path
         d="m 34.829483,39.621814 q 0,-0.22472 0.128411,-0.385234 0.128411,-0.1651 0.353131,-0.252236 0.229305,-0.09172 0.527402,-0.09172 0.174273,0 0.362303,0.02752 0.188031,0.02752 0.334786,0.08255 V 38.8009 q 0,-0.302683 -0.178858,-0.481542 -0.178858,-0.178858 -0.4953,-0.178858 -0.192617,0 -0.380647,0.07338 -0.183445,0.06879 -0.385233,0.206375 l -0.119239,-0.220134 q 0.233891,-0.160513 0.458611,-0.238477 0.224719,-0.08255 0.458611,-0.08255 0.440266,0 0.697089,0.252236 0.256822,0.252236 0.256822,0.697089 v 1.105252 q 0,0.06421 0.02752,0.09631 0.02752,0.02752 0.08714,0.0321 v 0.24765 q -0.05045,0.0046 -0.08714,0.0092 -0.03669,0.0046 -0.05503,0 -0.114653,-0.0046 -0.174272,-0.07338 -0.05962,-0.06879 -0.06421,-0.146756 l -0.0046,-0.174272 q -0.160514,0.206375 -0.417336,0.321028 -0.256822,0.110066 -0.522816,0.110066 -0.229306,0 -0.417336,-0.09631 -0.183445,-0.100895 -0.288925,-0.265994 -0.100895,-0.169687 -0.100895,-0.371475 z m 1.600553,0.183444 q 0.05045,-0.06421 0.07796,-0.123825 0.02752,-0.05962 0.02752,-0.105481 v -0.348544 q -0.155928,-0.05962 -0.325614,-0.09172 -0.1651,-0.0321 -0.334786,-0.0321 -0.334786,0 -0.541161,0.132997 -0.206375,0.132998 -0.206375,0.362303 0,0.132997 0.06879,0.252236 0.06879,0.114653 0.201789,0.192617 0.132997,0.07338 0.311855,0.07338 0.22472,0 0.417336,-0.08714 0.197203,-0.08714 0.302684,-0.224719 z"
         style="font-style:normal;font-variant:normal;font-weight:normal;font-stretch:normal;font-size:4.58611px;font-family:raleway;-inkscape-font-specification:raleway;fill:#ffffff;fill-opacity:1"
         id="path1124" />
      <path
         d="m 37.516936,40.30973 v -2.389363 h 0.311855 v 1.027288 h 1.366661 v -1.027288 h 0.311856 v 2.389363 h -0.311856 v -1.082322 h -1.366661 v 1.082322 z"
         style="font-style:normal;font-variant:normal;font-weight:normal;font-stretch:normal;font-size:4.58611px;font-family:raleway;-inkscape-font-specification:raleway;fill:#ffffff;fill-opacity:1"
         id="path1126" />
      <path
         d="m 40.190629,40.30973 v -2.384777 h 0.311856 v 1.962855 l 1.453797,-1.967441 h 0.279753 v 2.389363 h -0.311856 v -1.930752 l -1.430866,1.930752 z"
         style="font-style:normal;font-variant:normal;font-weight:normal;font-stretch:normal;font-size:4.58611px;font-family:raleway;-inkscape-font-specification:raleway;fill:#ffffff;fill-opacity:1"
         id="path1128" />
      <path
         d="m 43.95124,40.355591 q -0.256822,0 -0.476955,-0.09631 -0.220134,-0.100895 -0.380648,-0.270581 -0.160513,-0.174272 -0.252236,-0.398991 -0.08714,-0.22472 -0.08714,-0.481542 0,-0.334786 0.151342,-0.614539 0.155928,-0.279752 0.426508,-0.444852 0.270581,-0.169686 0.614539,-0.169686 0.35313,0 0.614539,0.169686 0.265994,0.169686 0.417336,0.449439 0.151341,0.275166 0.151341,0.605366 0,0.03669 0,0.07338 0,0.0321 -0.0046,0.05045 h -2.045405 q 0.02293,0.256822 0.14217,0.458611 0.123825,0.197203 0.316441,0.316442 0.197203,0.114652 0.426508,0.114652 0.233892,0 0.440267,-0.119238 0.210961,-0.119239 0.293511,-0.311856 l 0.270581,0.07338 q -0.07338,0.169686 -0.22472,0.307269 -0.151342,0.137584 -0.357716,0.215547 -0.201789,0.07338 -0.435681,0.07338 z m -0.880533,-1.352902 h 1.765652 q -0.01834,-0.261409 -0.142169,-0.458611 -0.119239,-0.197203 -0.316442,-0.30727 -0.192616,-0.114652 -0.426508,-0.114652 -0.233892,0 -0.426508,0.114652 -0.192617,0.110067 -0.316442,0.311856 -0.119239,0.197203 -0.137583,0.454025 z"
         style="font-style:normal;font-variant:normal;font-weight:normal;font-stretch:normal;font-size:4.58611px;font-family:raleway;-inkscape-font-specification:raleway;fill:#ffffff;fill-opacity:1"
         id="path1130" />
      <path
         d="m 46.776279,40.30973 v -3.256138 h 2.187574 v 0.554919 h -1.554691 v 0.839258 h 1.293283 v 0.513645 h -1.293283 v 1.348316 z"
         style="font-style:normal;font-variant:normal;font-weight:bold;font-stretch:normal;font-family:raleway;-inkscape-font-specification:'raleway Bold';fill:#ffffff"
         id="path1132" />
      <path
         d="m 49.229837,39.410853 v -1.504245 h 0.614539 v 1.371247 q 0,0.275167 0.100894,0.417336 0.100895,0.137584 0.298097,0.137584 0.119239,0 0.233892,-0.04586 0.119239,-0.05045 0.215547,-0.146756 0.100895,-0.09631 0.169686,-0.243064 v -1.490486 h 0.614539 v 1.715206 q 0,0.09631 0.0321,0.137583 0.03669,0.04127 0.114652,0.05045 v 0.499886 q -0.09172,0.01376 -0.155927,0.01834 -0.05962,0.0092 -0.110067,0.0092 -0.1651,0 -0.27058,-0.07338 -0.100895,-0.07796 -0.119239,-0.210961 l -0.01376,-0.192617 q -0.160513,0.243064 -0.41275,0.371475 -0.252236,0.123825 -0.554919,0.123825 -0.371475,0 -0.564091,-0.238478 -0.192617,-0.243063 -0.192617,-0.70626 z"
         style="font-style:normal;font-variant:normal;font-weight:bold;font-stretch:normal;font-family:raleway;-inkscape-font-specification:'raleway Bold';fill:#ffffff"
         id="path1134" />
      <path
         d="m 52.082389,36.96187 h 0.614539 v 2.577394 q 0,0.1651 0.05503,0.224719 0.05503,0.05503 0.151342,0.05503 0.07338,0 0.151341,-0.01834 0.07796,-0.01834 0.137584,-0.04586 l 0.08255,0.467783 q -0.123825,0.05962 -0.288925,0.09172 -0.1651,0.0321 -0.298097,0.0321 -0.288925,0 -0.449439,-0.151342 -0.155928,-0.155927 -0.155928,-0.440266 z"
         style="font-style:normal;font-variant:normal;font-weight:bold;font-stretch:normal;font-family:raleway;-inkscape-font-specification:'raleway Bold';fill:#ffffff"
         id="path1136" />
      <path
         d="m 53.536183,36.96187 h 0.614539 v 2.577394 q 0,0.1651 0.05503,0.224719 0.05503,0.05503 0.151341,0.05503 0.07338,0 0.151342,-0.01834 0.07796,-0.01834 0.137583,-0.04586 l 0.08255,0.467783 q -0.123825,0.05962 -0.288925,0.09172 -0.1651,0.0321 -0.298097,0.0321 -0.288925,0 -0.449439,-0.151342 -0.155928,-0.155927 -0.155928,-0.440266 z"
         style="font-style:normal;font-variant:normal;font-weight:bold;font-stretch:normal;font-family:raleway;-inkscape-font-specification:'raleway Bold';fill:#ffffff"
         id="path1138" />
      <path
         d="m 56.031021,40.30973 v -3.256138 h 1.380419 q 0.224719,0 0.41275,0.09172 0.18803,0.09172 0.325614,0.24765 0.142169,0.155928 0.220133,0.348544 0.07796,0.192617 0.07796,0.394406 0,0.275167 -0.128411,0.522816 -0.128412,0.24765 -0.353131,0.403578 -0.224719,0.155928 -0.531989,0.155928 H 56.6639 v 1.091494 z m 0.632883,-1.646413 h 0.733777 q 0.114653,0 0.206375,-0.06421 0.09172,-0.06421 0.146756,-0.183444 0.05503,-0.123825 0.05503,-0.279753 0,-0.169686 -0.06421,-0.288925 -0.05962,-0.119239 -0.160514,-0.178858 -0.09631,-0.05962 -0.210961,-0.05962 h -0.706261 z"
         style="font-style:normal;font-variant:normal;font-weight:bold;font-stretch:normal;font-family:raleway;-inkscape-font-specification:'raleway Bold';fill:#ffffff"
         id="path1140" />
      <path
         d="m 58.631334,39.598883 q 0,-0.233892 0.128412,-0.408164 0.132997,-0.178858 0.366888,-0.275166 0.233892,-0.09631 0.536575,-0.09631 0.151342,0 0.30727,0.02293 0.155927,0.02293 0.27058,0.07338 v -0.128411 q 0,-0.229306 -0.137583,-0.353131 -0.132997,-0.123825 -0.398992,-0.123825 -0.197203,0 -0.376061,0.06879 -0.178858,0.06879 -0.376061,0.201789 l -0.197203,-0.403578 q 0.238478,-0.155928 0.486128,-0.233892 0.252236,-0.07796 0.527403,-0.07796 0.513644,0 0.797983,0.256823 0.288925,0.256822 0.288925,0.733777 v 0.765881 q 0,0.09631 0.0321,0.137583 0.03669,0.04127 0.114652,0.05045 v 0.499886 q -0.08255,0.01376 -0.151341,0.02293 -0.06421,0.0092 -0.110067,0.0092 -0.183444,0 -0.279753,-0.08255 -0.09172,-0.08255 -0.114652,-0.201789 l -0.01376,-0.123825 q -0.155927,0.201789 -0.389819,0.311856 -0.233892,0.110066 -0.476956,0.110066 -0.238477,0 -0.431094,-0.09631 -0.18803,-0.100895 -0.298097,-0.270581 Q 58.63133,39.81446 58.63133,39.598913 Z m 1.495072,0.123825 q 0.05045,-0.05503 0.08255,-0.110067 0.0321,-0.05503 0.0321,-0.100894 v -0.243064 q -0.110067,-0.04586 -0.238478,-0.06879 -0.128411,-0.02752 -0.243063,-0.02752 -0.238478,0 -0.394406,0.10548 -0.151342,0.100895 -0.151342,0.270581 0,0.09172 0.05045,0.174272 0.05045,0.08255 0.146755,0.132997 0.09631,0.05045 0.229306,0.05045 0.137583,0 0.27058,-0.05045 0.132997,-0.05503 0.215547,-0.132997 z"
         style="font-style:normal;font-variant:normal;font-weight:bold;font-stretch:normal;font-family:raleway;-inkscape-font-specification:'raleway Bold';fill:#ffffff"
         id="path1142" />
      <path
         d="m 62.36901,40.323488 q -0.238477,0 -0.440266,-0.09172 -0.197203,-0.09631 -0.343958,-0.265994 -0.14217,-0.169686 -0.220134,-0.38982 -0.07796,-0.220133 -0.07796,-0.467783 0,-0.261408 0.08255,-0.486127 0.08255,-0.22472 0.229306,-0.394406 0.151341,-0.174272 0.35313,-0.265994 0.206375,-0.09631 0.454025,-0.09631 0.279753,0 0.490714,0.128411 0.210961,0.123825 0.348544,0.334787 v -0.421923 h 0.536575 v 2.288469 q 0,0.357717 -0.174272,0.609953 -0.169686,0.256822 -0.472369,0.389819 -0.302684,0.137584 -0.687917,0.137584 -0.389819,0 -0.6604,-0.132998 -0.27058,-0.128411 -0.463197,-0.366888 l 0.334786,-0.325614 q 0.137584,0.169686 0.343959,0.265994 0.210961,0.09631 0.444852,0.09631 0.197203,0 0.357717,-0.07338 0.1651,-0.06879 0.261408,-0.220134 0.100895,-0.146755 0.100895,-0.380647 v -0.302683 q -0.119239,0.206375 -0.339373,0.321028 -0.215547,0.110066 -0.458611,0.110066 z m 0.206375,-0.490713 q 0.100895,0 0.192617,-0.0321 0.09172,-0.0321 0.169686,-0.08714 0.07796,-0.05503 0.137583,-0.128411 0.05962,-0.07796 0.09172,-0.155928 v -0.573264 q -0.05503,-0.142169 -0.155928,-0.24765 -0.09631,-0.10548 -0.220134,-0.160514 -0.119238,-0.05962 -0.252236,-0.05962 -0.142169,0 -0.256822,0.05962 -0.114652,0.05962 -0.197202,0.169686 -0.08255,0.105481 -0.128412,0.238478 -0.04127,0.128411 -0.04127,0.270581 0,0.146755 0.05045,0.275166 0.05045,0.128411 0.137583,0.22472 0.09172,0.09631 0.210961,0.151341 0.123825,0.05503 0.261408,0.05503 z"
         style="font-style:normal;font-variant:normal;font-weight:bold;font-stretch:normal;font-family:raleway;-inkscape-font-specification:'raleway Bold';fill:#ffffff"
         id="path1144" />
      <path
         d="m 65.450872,40.355591 q -0.288925,0 -0.522817,-0.09631 -0.233892,-0.100895 -0.398992,-0.270581 -0.1651,-0.174272 -0.256822,-0.394405 -0.08714,-0.224719 -0.08714,-0.472369 0,-0.343959 0.151342,-0.628298 0.155927,-0.284338 0.440266,-0.454024 0.288925,-0.174273 0.678745,-0.174273 0.394405,0 0.674158,0.174273 0.279753,0.169686 0.426508,0.454024 0.151342,0.279753 0.151342,0.605367 0,0.05503 -0.0046,0.114653 -0.0046,0.05503 -0.0092,0.09172 h -1.857374 q 0.01834,0.183444 0.10548,0.321028 0.09172,0.137583 0.229306,0.210961 0.142169,0.06879 0.302683,0.06879 0.183444,0 0.343958,-0.08714 0.1651,-0.09172 0.22472,-0.238477 l 0.527402,0.146755 q -0.08714,0.183445 -0.252236,0.325614 -0.160514,0.142169 -0.380647,0.224719 -0.220133,0.07796 -0.486127,0.07796 z m -0.628298,-1.440038 h 1.256595 q -0.01834,-0.183445 -0.105481,-0.316442 -0.08255,-0.137583 -0.220133,-0.210961 -0.137584,-0.07796 -0.30727,-0.07796 -0.1651,0 -0.302683,0.07796 -0.132997,0.07338 -0.220133,0.210961 -0.08255,0.132997 -0.100895,0.316442 z"
         style="font-style:normal;font-variant:normal;font-weight:bold;font-stretch:normal;font-family:raleway;-inkscape-font-specification:'raleway Bold';fill:#ffffff"
         id="path1146" />
      <path
         d="m 69.303198,40.355591 q -0.293511,0 -0.527403,-0.09631 -0.233891,-0.100895 -0.398991,-0.275167 -0.1651,-0.178858 -0.256823,-0.403577 -0.08714,-0.22472 -0.08714,-0.47237 0,-0.339372 0.151342,-0.619125 0.155928,-0.284338 0.440266,-0.454025 0.284339,-0.169686 0.674159,-0.169686 0.389819,0 0.669572,0.169686 0.279752,0.169687 0.417336,0.444853 l -0.600781,0.183445 q -0.07796,-0.132998 -0.206375,-0.201789 -0.128411,-0.07338 -0.284338,-0.07338 -0.174273,0 -0.321028,0.09172 -0.14217,0.08714 -0.22472,0.252236 -0.08255,0.160514 -0.08255,0.376061 0,0.210961 0.08255,0.376061 0.08714,0.160514 0.229306,0.256822 0.142169,0.09172 0.316442,0.09172 0.110066,0 0.206375,-0.03669 0.100894,-0.03669 0.178858,-0.100895 0.07796,-0.06421 0.114653,-0.146755 l 0.60078,0.183444 q -0.08255,0.178859 -0.243064,0.321028 -0.155928,0.142169 -0.371475,0.224719 -0.210961,0.07796 -0.476955,0.07796 z"
         style="font-style:normal;font-variant:normal;font-weight:bold;font-stretch:normal;font-family:raleway;-inkscape-font-specification:'raleway Bold';fill:#ffffff"
         id="path1148" />
      <path
         d="m 70.596478,40.341833 v -0.545747 q 0.110066,-0.0046 0.197203,-0.05503 0.08714,-0.05045 0.151341,-0.169686 0.06879,-0.123825 0.105481,-0.343958 0.04127,-0.220133 0.05503,-0.564091 l 0.0321,-0.756709 H 72.93998 V 40.30973 H 72.325441 V 38.443183 H 71.6788 l -0.0092,0.279753 q -0.01834,0.472369 -0.09172,0.784225 -0.07338,0.311855 -0.206375,0.4953 -0.128411,0.178858 -0.321027,0.256822 -0.192617,0.07796 -0.454025,0.08255 z"
         style="font-style:normal;font-variant:normal;font-weight:bold;font-stretch:normal;font-family:raleway;-inkscape-font-specification:'raleway Bold';fill:#ffffff"
         id="path1150" />
      <path
         d="m 73.334383,39.598883 q 0,-0.233892 0.128411,-0.408164 0.132997,-0.178858 0.366889,-0.275166 0.233892,-0.09631 0.536575,-0.09631 0.151342,0 0.307269,0.02293 0.155928,0.02293 0.270581,0.07338 v -0.128411 q 0,-0.229306 -0.137584,-0.353131 -0.132997,-0.123825 -0.398991,-0.123825 -0.197203,0 -0.376061,0.06879 -0.178858,0.06879 -0.376061,0.201789 l -0.197203,-0.403578 q 0.238478,-0.155928 0.486128,-0.233892 0.252236,-0.07796 0.527402,-0.07796 0.513645,0 0.797984,0.256823 0.288925,0.256822 0.288925,0.733777 v 0.765881 q 0,0.09631 0.0321,0.137583 0.03669,0.04127 0.114653,0.05045 v 0.499886 q -0.08255,0.01376 -0.151342,0.02293 -0.06421,0.0092 -0.110066,0.0092 -0.183445,0 -0.279753,-0.08255 -0.09172,-0.08255 -0.114653,-0.201789 l -0.01376,-0.123825 q -0.155928,0.201789 -0.389819,0.311856 -0.233892,0.110066 -0.476956,0.110066 -0.238478,0 -0.431094,-0.09631 -0.188031,-0.100895 -0.298097,-0.270581 -0.105481,-0.174272 -0.105481,-0.389819 z m 1.495072,0.123825 q 0.05045,-0.05503 0.08255,-0.110067 0.0321,-0.05503 0.0321,-0.100894 v -0.243064 q -0.110067,-0.04586 -0.238478,-0.06879 -0.128411,-0.02752 -0.243064,-0.02752 -0.238478,0 -0.394405,0.10548 -0.151342,0.100895 -0.151342,0.270581 0,0.09172 0.05045,0.174272 0.05045,0.08255 0.146756,0.132997 0.09631,0.05045 0.229305,0.05045 0.137584,0 0.270581,-0.05045 0.132997,-0.05503 0.215547,-0.132997 z"
         style="font-style:normal;font-variant:normal;font-weight:bold;font-stretch:normal;font-family:raleway;-inkscape-font-specification:'raleway Bold';fill:#ffffff"
         id="path1152" />
      <path
         d="m 76.131906,40.30973 v -2.398535 h 0.614539 v 1.577621 l 1.077736,-1.582208 h 0.559506 V 40.30973 H 77.769148 V 38.768797 L 76.70517,40.30973 Z m 1.128184,-2.627841 q -0.353131,0 -0.55492,-0.178858 -0.201789,-0.183445 -0.201789,-0.467784 h 0.380648 q 0,0.137584 0.09172,0.229306 0.09172,0.09172 0.284339,0.09172 0.192616,0 0.275166,-0.08714 0.08714,-0.08714 0.105481,-0.233892 h 0.380647 q 0,0.284339 -0.201789,0.467784 -0.201789,0.178858 -0.559505,0.178858 z"
         style="font-style:normal;font-variant:normal;font-weight:bold;font-stretch:normal;font-family:raleway;-inkscape-font-specification:'raleway Bold';fill:#ffffff"
         id="path1154" />
      <path
         d="m 78.745987,40.892166 v -1.119011 h 0.06421 q 0.09172,0 0.169686,-0.05045 0.08255,-0.05045 0.14217,-0.169686 0.0642,-0.123825 0.100894,-0.339372 0.04127,-0.215547 0.05503,-0.550333 l 0.02752,-0.756709 h 1.802342 v 1.866547 h 0.334786 v 1.119011 h -0.53658 V 40.30973 h -1.618897 v 0.582436 z m 0.839258,-1.119011 h 0.90805 v -1.348316 h -0.651228 l -0.01376,0.298097 q -0.01376,0.302683 -0.04586,0.513644 -0.02752,0.206375 -0.07796,0.339372 -0.04586,0.128412 -0.119239,0.197203 z"
         style="font-style:normal;font-variant:normal;font-weight:bold;font-stretch:normal;font-family:raleway;-inkscape-font-specification:'raleway Bold';fill:#ffffff"
         id="path1156" />
      <path
         d="m 82.956033,40.355591 q -0.288925,0 -0.522817,-0.09631 -0.233891,-0.100895 -0.398991,-0.270581 -0.1651,-0.174272 -0.256823,-0.394405 -0.08714,-0.224719 -0.08714,-0.472369 0,-0.343959 0.151342,-0.628298 0.155928,-0.284338 0.440267,-0.454024 0.288925,-0.174273 0.678744,-0.174273 0.394405,0 0.674158,0.174273 0.279753,0.169686 0.426508,0.454024 0.151342,0.279753 0.151342,0.605367 0,0.05503 -0.0046,0.114653 -0.0046,0.05503 -0.0092,0.09172 h -1.857375 q 0.01834,0.183444 0.105481,0.321028 0.09172,0.137583 0.229305,0.210961 0.142169,0.06879 0.302683,0.06879 0.183445,0 0.343959,-0.08714 0.1651,-0.09172 0.224719,-0.238477 l 0.527403,0.146755 q -0.08714,0.183445 -0.252236,0.325614 -0.160514,0.142169 -0.380648,0.224719 -0.220133,0.07796 -0.486127,0.07796 z m -0.628297,-1.440038 h 1.256594 q -0.01834,-0.183445 -0.105481,-0.316442 -0.08255,-0.137583 -0.220133,-0.210961 -0.137583,-0.07796 -0.307269,-0.07796 -0.1651,0 -0.302684,0.07796 -0.132997,0.07338 -0.220133,0.210961 -0.08255,0.132997 -0.100894,0.316442 z"
         style="font-style:normal;font-variant:normal;font-weight:bold;font-stretch:normal;font-family:raleway;-inkscape-font-specification:'raleway Bold';fill:#ffffff"
         id="path1158" />
      <path
         d="m 86.028725,40.355591 q -0.279753,0 -0.4953,-0.123825 -0.210961,-0.128411 -0.3302,-0.343958 v 1.398764 h -0.614539 v -3.379964 h 0.536575 v 0.41275 q 0.137583,-0.210961 0.348544,-0.3302 0.210961,-0.123825 0.481542,-0.123825 0.243064,0 0.444852,0.09631 0.206375,0.09631 0.357717,0.27058 0.151342,0.169686 0.233892,0.394406 0.08714,0.220133 0.08714,0.476955 0,0.348545 -0.137584,0.632883 -0.132997,0.284339 -0.371474,0.454025 -0.233892,0.1651 -0.541161,0.1651 z M 85.82235,39.832775 q 0.142169,0 0.256822,-0.05962 0.114653,-0.05962 0.197202,-0.160514 0.08714,-0.10548 0.128412,-0.233891 0.04586,-0.132997 0.04586,-0.275167 0,-0.151341 -0.05045,-0.279753 -0.04586,-0.128411 -0.137583,-0.224719 -0.09172,-0.100894 -0.215547,-0.155928 -0.119239,-0.05503 -0.261408,-0.05503 -0.08714,0 -0.178859,0.0321 -0.08714,0.02752 -0.169686,0.08255 -0.08255,0.05503 -0.146755,0.128411 -0.05962,0.07338 -0.08714,0.160514 v 0.564091 q 0.05503,0.132997 0.146755,0.243064 0.09631,0.110067 0.220134,0.174272 0.123825,0.05962 0.252236,0.05962 z"
         style="font-style:normal;font-variant:normal;font-weight:bold;font-stretch:normal;font-family:raleway;-inkscape-font-specification:'raleway Bold';fill:#ffffff"
         id="path1160" />
      <path
         d="m 87.331175,39.598883 q 0,-0.233892 0.128411,-0.408164 0.132997,-0.178858 0.366889,-0.275166 0.233891,-0.09631 0.536575,-0.09631 0.151341,0 0.307269,0.02293 0.155928,0.02293 0.270581,0.07338 v -0.128411 q 0,-0.229306 -0.137584,-0.353131 -0.132997,-0.123825 -0.398991,-0.123825 -0.197203,0 -0.376061,0.06879 -0.178859,0.06879 -0.376061,0.201789 L 87.455,38.177189 q 0.238478,-0.155928 0.486128,-0.233892 0.252236,-0.07796 0.527402,-0.07796 0.513645,0 0.797983,0.256823 0.288925,0.256822 0.288925,0.733777 v 0.765881 q 0,0.09631 0.0321,0.137583 0.03669,0.04127 0.114653,0.05045 v 0.499886 q -0.08255,0.01376 -0.151342,0.02293 -0.06421,0.0092 -0.110066,0.0092 -0.183445,0 -0.279753,-0.08255 -0.09172,-0.08255 -0.114653,-0.201789 l -0.01376,-0.123825 q -0.155928,0.201789 -0.38982,0.311856 -0.233891,0.110066 -0.476955,0.110066 -0.238478,0 -0.431094,-0.09631 Q 87.546717,40.15842 87.436651,39.988734 87.33117,39.814462 87.33117,39.598915 Z m 1.495072,0.123825 q 0.05045,-0.05503 0.08255,-0.110067 0.0321,-0.05503 0.0321,-0.100894 v -0.243064 q -0.110067,-0.04586 -0.238478,-0.06879 -0.128411,-0.02752 -0.243064,-0.02752 -0.238478,0 -0.394405,0.10548 -0.151342,0.100895 -0.151342,0.270581 0,0.09172 0.05045,0.174272 0.05045,0.08255 0.146756,0.132997 0.09631,0.05045 0.229305,0.05045 0.137583,0 0.270581,-0.05045 0.132997,-0.05503 0.215547,-0.132997 z"
         style="font-style:normal;font-variant:normal;font-weight:bold;font-stretch:normal;font-family:raleway;-inkscape-font-specification:'raleway Bold';fill:#ffffff"
         id="path1162" />
      <path
         d="m 92.380477,40.355591 q -0.256822,0 -0.476956,-0.09631 -0.215547,-0.100895 -0.376061,-0.270581 -0.155927,-0.174272 -0.243064,-0.394405 -0.08714,-0.224719 -0.08714,-0.472369 0,-0.256823 0.08714,-0.476956 0.08714,-0.224719 0.24765,-0.394405 0.160514,-0.174273 0.376061,-0.270581 0.220134,-0.100894 0.476956,-0.100894 0.256822,0 0.472369,0.100894 0.215547,0.09631 0.376061,0.270581 0.160514,0.169686 0.24765,0.394405 0.08714,0.220133 0.08714,0.476956 0,0.24765 -0.08714,0.472369 -0.08714,0.220133 -0.24765,0.394405 -0.155927,0.169686 -0.376061,0.270581 -0.215547,0.09631 -0.476955,0.09631 z m -0.866775,-1.229077 q 0,0.265994 0.114653,0.486127 0.119239,0.215548 0.316441,0.343959 0.197203,0.123825 0.435681,0.123825 0.238478,0 0.43568,-0.128411 0.197203,-0.128412 0.316442,-0.348545 0.119239,-0.224719 0.119239,-0.486128 0,-0.265994 -0.119239,-0.486127 -0.119239,-0.220133 -0.316442,-0.348545 -0.197202,-0.128411 -0.43568,-0.128411 -0.238478,0 -0.435681,0.132998 -0.192616,0.132997 -0.311855,0.35313 -0.119239,0.215547 -0.119239,0.486128 z"
         style="font-style:normal;font-variant:normal;font-weight:normal;font-stretch:normal;font-size:4.58611px;font-family:raleway;-inkscape-font-specification:raleway;fill:#ffffff;fill-opacity:1"
         id="path1164" />
      <path
         d="m 94.687284,40.30973 v -2.109611 h -0.853017 v -0.279752 h 2.017889 v 0.279752 h -0.853017 v 2.109611 z"
         style="font-style:normal;font-variant:normal;font-weight:normal;font-stretch:normal;font-size:4.58611px;font-family:raleway;-inkscape-font-specification:raleway;fill:#ffffff;fill-opacity:1"
         id="path1166" />
      <path
         d="m 98.379098,37.053592 h 0.270581 l 1.352901,3.256138 h -0.339371 l -0.421922,-1.018116 h -1.462969 l -0.417336,1.018116 h -0.343958 z m 0.788811,1.985786 -0.655813,-1.609725 -0.664986,1.609725 z"
         style="font-style:normal;font-variant:normal;font-weight:normal;font-stretch:normal;font-size:4.58611px;font-family:raleway;-inkscape-font-specification:raleway;fill:#ffffff;fill-opacity:1"
         id="path1168" />
      <path
         d="m 101.16744,40.864649 v -0.834672 h 0.0413 q 0.10548,0 0.19261,-0.06421 0.0871,-0.06421 0.15593,-0.22472 0.0688,-0.160513 0.11007,-0.440266 0.0413,-0.284339 0.055,-0.715433 l 0.0229,-0.664986 h 1.55469 v 2.10961 h 0.32103 v 0.834672 h -0.27975 V 40.30973 h -1.89865 v 0.554919 z m 0.51365,-0.834672 h 1.30704 v -1.829858 h -0.96309 l -0.0138,0.41275 q -0.0138,0.426509 -0.0596,0.715434 -0.0413,0.284338 -0.11007,0.454024 -0.0642,0.1651 -0.16051,0.24765 z"
         style="font-style:normal;font-variant:normal;font-weight:normal;font-stretch:normal;font-size:4.58611px;font-family:raleway;-inkscape-font-specification:raleway;fill:#ffffff;fill-opacity:1"
         id="path1170" />
      <path
         d="m 105.11149,40.355591 q -0.25682,0 -0.47695,-0.09631 -0.21555,-0.100895 -0.37606,-0.270581 -0.15593,-0.174272 -0.24307,-0.394405 -0.0871,-0.224719 -0.0871,-0.472369 0,-0.256823 0.0871,-0.476956 0.0871,-0.224719 0.24765,-0.394405 0.16052,-0.174273 0.37607,-0.270581 0.22013,-0.100894 0.47695,-0.100894 0.25682,0 0.47237,0.100894 0.21555,0.09631 0.37606,0.270581 0.16052,0.169686 0.24765,0.394405 0.0871,0.220133 0.0871,0.476956 0,0.24765 -0.0871,0.472369 -0.0871,0.220133 -0.24765,0.394405 -0.15593,0.169686 -0.37606,0.270581 -0.21555,0.09631 -0.47696,0.09631 z m -0.86677,-1.229077 q 0,0.265994 0.11465,0.486127 0.11924,0.215548 0.31644,0.343959 0.19721,0.123825 0.43568,0.123825 0.23848,0 0.43569,-0.128411 0.1972,-0.128412 0.31644,-0.348545 0.11924,-0.224719 0.11924,-0.486128 0,-0.265994 -0.11924,-0.486127 -0.11924,-0.220133 -0.31644,-0.348545 -0.19721,-0.128411 -0.43569,-0.128411 -0.23847,0 -0.43568,0.132998 -0.19261,0.132997 -0.31185,0.35313 -0.11924,0.215547 -0.11924,0.486128 z"
         style="font-style:normal;font-variant:normal;font-weight:normal;font-stretch:normal;font-size:4.58611px;font-family:raleway;-inkscape-font-specification:raleway;fill:#ffffff;fill-opacity:1"
         id="path1172" />
      <path
         d="m 107.9457,40.30973 0.87136,-1.380419 q -0.35313,-0.08255 -0.54574,-0.334786 -0.18803,-0.252236 -0.18803,-0.600781 0,-0.261408 0.12841,-0.472369 0.13299,-0.215547 0.37147,-0.339372 0.23848,-0.128411 0.56868,-0.128411 h 1.00894 v 3.256138 h -0.31644 v -1.339144 h -0.58243 q -0.0275,0 -0.0596,0 -0.0275,0 -0.055,0 l -0.83467,1.339144 z m 1.21991,-1.618897 h 0.67874 v -1.357488 h -0.6604 q -0.22472,0 -0.40357,0.08255 -0.17886,0.08255 -0.27517,0.229305 -0.0963,0.146756 -0.0963,0.348544 0,0.201789 0.0871,0.357717 0.0871,0.155928 0.25223,0.24765 0.16969,0.09172 0.41734,0.09172 z"
         style="font-style:normal;font-variant:normal;font-weight:normal;font-stretch:normal;font-size:4.58611px;font-family:raleway;-inkscape-font-specification:raleway;fill:#ffffff;fill-opacity:1"
         id="path1174" />
    </g>
  </g>
</svg>
