<?xml version="1.0" encoding="UTF-8" standalone="no"?>
<svg
   width="400.47101"
   height="127.94901"
   viewBox="0 0 400.471 127.94901"
   version="1.1"
   id="svg12"
   xmlns="http://www.w3.org/2000/svg"
   xmlns:svg="http://www.w3.org/2000/svg">
  <defs
     id="defs16" />
  <g
     aria-label="Я - Автор!"
     id="text1846"
     style="font-weight:800;font-size:61.4513px;line-height:1.25;font-family:Raleway;-inkscape-font-specification:'Raleway Ultra-Bold';stroke-width:1.53628"
     transform="translate(-2,-15.513425)">
    <path
       d="m 84.203962,124.85279 v -15.73153 h -5.223361 l -9.709305,15.73153 H 58.332964 l 10.569624,-16.89911 q -3.687078,-1.59773 -5.837874,-4.9161 -2.089344,-3.379823 -2.089344,-7.865768 0,-2.949662 1.044672,-5.469166 1.106124,-2.519503 2.949663,-4.424493 1.90499,-1.904991 4.485945,-2.949663 2.642406,-1.106123 5.776422,-1.106123 h 19.049903 v 43.630423 z m 0,-35.027241 h -7.681413 q -0.983221,0 -1.966441,0.368708 -0.92177,0.307256 -1.720637,0.983221 -0.737415,0.614513 -1.229026,1.659185 -0.430159,0.983221 -0.430159,2.335149 0,2.703857 1.536283,4.055786 1.536282,1.290482 3.687078,1.290482 h 7.804315 z"
       style="font-weight:800;-inkscape-font-specification:'Raleway Ultra-Bold';fill:#ff9910"
       id="path20907" />
    <path
       d="m 117.01893,111.70221 v -7.43561 h 18.61974 v 7.43561 z"
       style="font-weight:bold;-inkscape-font-specification:'Raleway Bold';fill:#ffffff"
       id="path20909" />
    <path
       d="m 170.85022,81.222367 h 7.49705 l 16.59186,43.630423 h -8.72609 l -4.05579,-10.87688 h -15.23992 l -3.99433,10.87688 h -8.72609 z m 9.77075,26.792763 -6.02223,-17.144909 -6.26803,17.144909 z"
       style="font-weight:bold;-inkscape-font-specification:'Raleway Bold';fill:#ffffff"
       id="path20911" />
    <path
       d="m 218.16765,92.652309 q 1.78209,0 3.25692,0.675964 1.47483,0.614513 2.51951,1.720637 1.10612,1.106123 1.65918,2.580954 0.61452,1.474831 0.61452,3.134016 0,2.08934 -1.10613,4.24014 -1.10612,2.08934 -3.62563,3.13402 2.82676,0.79886 4.4245,2.76531 1.65918,1.90499 1.65918,5.22336 0,4.42449 -3.07256,6.57529 -3.07257,2.15079 -8.48028,2.15079 H 199.11775 V 92.652309 Z m -3.87143,13.457831 q 1.72064,0 2.76531,-0.98322 1.04467,-0.98322 1.04467,-2.82676 0,-1.53628 -0.92177,-2.580952 -0.86031,-1.106123 -2.6424,-1.106123 h -7.25126 v 7.497055 z m 1.10613,12.78187 q 1.78208,0 2.82676,-1.16757 1.10612,-1.16757 1.10612,-2.82676 0,-1.72064 -1.04467,-2.82676 -1.04467,-1.16757 -2.82676,-1.16757 h -8.17303 v 7.98866 z"
       style="font-weight:bold;-inkscape-font-specification:'Raleway Bold';fill:#ffffff"
       id="path20913" />
    <path
       d="m 248.463,124.85279 h -8.17302 V 99.78066 h -10.07802 v -7.128351 h 28.2676 V 99.78066 H 248.463 Z"
       style="font-weight:bold;-inkscape-font-specification:'Raleway Bold';fill:#ffffff"
       id="path20915" />
    <path
       d="m 276.60756,125.4673 q -3.93288,0 -7.0669,-1.35192 -3.13402,-1.35193 -5.34626,-3.62563 -2.1508,-2.33515 -3.31837,-5.34626 -1.16758,-3.01112 -1.16758,-6.32949 0,-3.37982 1.16758,-6.39093 1.16757,-3.011118 3.31837,-5.284816 2.21224,-2.33515 5.34626,-3.687078 3.13402,-1.351929 7.0669,-1.351929 3.93288,0 7.00545,1.351929 3.13401,1.351928 5.28481,3.687078 2.21225,2.273698 3.37982,5.284816 1.16758,3.01111 1.16758,6.39093 0,3.31837 -1.16758,6.32949 -1.16757,3.01111 -3.31837,5.34626 -2.15079,2.2737 -5.28481,3.62563 -3.13402,1.35192 -7.0669,1.35192 z m -8.41883,-16.6533 q 0,2.1508 0.61451,3.93288 0.67597,1.72064 1.78209,3.01112 1.16758,1.29048 2.70386,2.02789 1.53628,0.67597 3.31837,0.67597 1.78209,0 3.31837,-0.67597 1.53628,-0.73741 2.64241,-2.02789 1.16757,-1.29048 1.78208,-3.07257 0.67597,-1.78208 0.67597,-3.93288 0,-2.08934 -0.67597,-3.87143 -0.61451,-1.78209 -1.78208,-3.07257 -1.10613,-1.29047 -2.64241,-1.966439 -1.53628,-0.737416 -3.31837,-0.737416 -1.78209,0 -3.31837,0.737416 -1.53628,0.737419 -2.70386,2.027889 -1.10612,1.29048 -1.78209,3.07257 -0.61451,1.78209 -0.61451,3.87143 z"
       style="font-weight:bold;-inkscape-font-specification:'Raleway Bold';fill:#ffffff"
       id="path20917" />
    <path
       d="m 318.39438,125.4673 q -3.80998,0 -6.63674,-1.65918 -2.82676,-1.72064 -4.42449,-4.60885 v 18.74265 h -8.23448 V 92.652309 h 7.18981 v 5.530617 q 1.78208,-2.82676 4.60884,-4.424494 2.82676,-1.659185 6.51384,-1.659185 3.25692,0 6.02223,1.351929 2.76531,1.290477 4.73175,3.564175 2.02789,2.212247 3.13402,5.284809 1.16757,3.01112 1.16757,6.39094 0,3.50272 -1.04467,6.57529 -1.04467,3.07256 -2.94966,5.34626 -1.84354,2.2737 -4.4245,3.56418 -2.58095,1.29047 -5.65352,1.29047 z m -2.76531,-7.00544 q 1.84354,0 3.37983,-0.79887 1.59773,-0.79887 2.70385,-2.1508 1.10613,-1.35193 1.72064,-3.13401 0.61451,-1.78209 0.61451,-3.68708 0,-2.02789 -0.67596,-3.74853 -0.67597,-1.78209 -1.90499,-3.07257 -1.16758,-1.29047 -2.82676,-2.027889 -1.59774,-0.737416 -3.50273,-0.737416 -1.16757,0 -2.3966,0.43016 -1.22902,0.368707 -2.2737,1.106125 -1.04467,0.73741 -1.90499,1.72063 -0.79886,0.98323 -1.22902,2.1508 v 7.55851 q 1.10612,2.76531 3.37982,4.60885 2.2737,1.78209 4.9161,1.78209 z"
       style="font-weight:bold;-inkscape-font-specification:'Raleway Bold';fill:#ffffff"
       id="path20919" />
    <path
       d="M 339.59497,108.44529 V 80.792208 h 8.23448 v 27.653082 z m 0,16.4075 v -9.27915 h 8.23448 v 9.27915 z"
       style="font-weight:bold;-inkscape-font-specification:'Raleway Bold';fill:#ffffff"
       id="path20921" />
  </g>
</svg>
