<svg width="380" height="56" version="1.1" viewBox="0 0 380 56" xmlns="http://www.w3.org/2000/svg">
 <defs>
  <style>.cls-1 {
        fill: #8f97a6;
      }

      .cls-1, .cls-2 {
        fill-rule: evenodd;
      }

      .cls-2 {
        fill: #fff;
      }</style>
 </defs>
 <path id="a" class="cls-1" d="M101.623,37.784h-1.4l5.45,10.593-0.623,1.286-0.247.445a2.226,2.226,0,0,1-1.968,1.256,3.166,3.166,0,0,1-.831-0.069l-0.109.989a3.082,3.082,0,0,0,.93.109,3.346,3.346,0,0,0,3.086-1.869l0.356-.683,5.568-12.057h-1.434l-4.095,9.228ZM124.5,46.775a6.591,6.591,0,0,0-1.092-4.035,3.561,3.561,0,0,0-3.012-1.454A3.8,3.8,0,0,0,117.042,43l-0.059-1.513h-1.1V56.3h1.177V50.84a3.961,3.961,0,0,0,3.363,1.543,3.529,3.529,0,0,0,2.967-1.469,6.448,6.448,0,0,0,1.107-3.971V46.775Zm-2.022,3.417a2.686,2.686,0,0,1-2.329,1.192,3.51,3.51,0,0,1-1.87-.485,3.141,3.141,0,0,1-1.216-1.4V44.361a3.121,3.121,0,0,1,3.066-2.047,2.712,2.712,0,0,1,2.344,1.187,5.507,5.507,0,0,1,.841,3.234A5.994,5.994,0,0,1,122.477,50.192Zm6.784-3.279a5.76,5.76,0,0,0,1.33,3.971,4.406,4.406,0,0,0,3.457,1.5,4.622,4.622,0,0,0,2.482-.672,4.465,4.465,0,0,0,1.687-1.914,6.351,6.351,0,0,0,.6-2.794V46.755a5.777,5.777,0,0,0-1.325-3.971,4.4,4.4,0,0,0-3.462-1.5,4.494,4.494,0,0,0-4.169,2.611,6.3,6.3,0,0,0-.6,2.779v0.237Zm1.186-.129a5.024,5.024,0,0,1,1-3.249,3.164,3.164,0,0,1,2.582-1.241,3.261,3.261,0,0,1,1.879.559,3.656,3.656,0,0,1,1.276,1.578,5.45,5.45,0,0,1,.455,2.245V46.9a5.014,5.014,0,0,1-.994,3.249,3.364,3.364,0,0,1-5.2,0,4.86,4.86,0,0,1-.994-3.15V46.785Zm20.715,5.4h1.563l-4.876-5.509,4.391-5.193h-1.493l-3.927,4.748H145.2V41.483H144v10.7h1.2V47.279h1.642Zm7.4-1.9v-8.8h-1.177v10.7h1.177l5.776-8.793v8.793h1.187v-10.7h-1.187Zm23.054-.049a5.12,5.12,0,0,1-.885-3.195V46.7a5.237,5.237,0,0,1,.885-3.244,3.226,3.226,0,0,1,4.569-.386,2.906,2.906,0,0,1,.905,2.028h1.138A3.823,3.823,0,0,0,187,42.334a4.126,4.126,0,0,0-2.9-1.048,4.382,4.382,0,0,0-2.418.663,4.267,4.267,0,0,0-1.587,1.879,6.678,6.678,0,0,0-.554,2.8v0.356a5.917,5.917,0,0,0,1.231,3.936,4.135,4.135,0,0,0,3.338,1.464,4.518,4.518,0,0,0,2-.455,3.844,3.844,0,0,0,1.5-1.261,3.358,3.358,0,0,0,.613-1.785h-1.138a2.451,2.451,0,0,1-.905,1.805,3.125,3.125,0,0,1-2.072.7A2.97,2.97,0,0,1,181.613,50.236Zm11.259-3.323a5.76,5.76,0,0,0,1.33,3.971,4.406,4.406,0,0,0,3.457,1.5,4.62,4.62,0,0,0,2.482-.672,4.465,4.465,0,0,0,1.687-1.914,6.351,6.351,0,0,0,.6-2.794V46.755a5.777,5.777,0,0,0-1.325-3.971,4.4,4.4,0,0,0-3.462-1.5A4.494,4.494,0,0,0,193.47,43.9a6.3,6.3,0,0,0-.6,2.779v0.237Zm1.187-.129a5.018,5.018,0,0,1,1-3.249,3.162,3.162,0,0,1,2.581-1.241,3.259,3.259,0,0,1,1.879.559,3.649,3.649,0,0,1,1.276,1.578,5.45,5.45,0,0,1,.455,2.245V46.9a5.014,5.014,0,0,1-.994,3.249,3.363,3.363,0,0,1-5.2,0,4.854,4.854,0,0,1-.994-3.15V46.785Zm17.292-.574h-1.83V47.24h1.632a3.881,3.881,0,0,1,2.147.475,1.738,1.738,0,0,1,.7,1.553,1.826,1.826,0,0,1-.767,1.548,3.494,3.494,0,0,1-2.121.569,3.38,3.38,0,0,1-2.1-.648,1.958,1.958,0,0,1-.855-1.617H206.97a2.825,2.825,0,0,0,1.177,2.354,4.74,4.74,0,0,0,2.967.9,4.814,4.814,0,0,0,2.967-.841,2.707,2.707,0,0,0,1.118-2.285,2.463,2.463,0,0,0-2.058-2.552,3.044,3.044,0,0,0,1.385-.969A2.242,2.242,0,0,0,215,44.332a2.666,2.666,0,0,0-1.029-2.245A4.607,4.607,0,0,0,211.1,41.3a4.51,4.51,0,0,0-2.814.87,2.663,2.663,0,0,0-1.142,2.206h1.177a1.772,1.772,0,0,1,.816-1.489,3.266,3.266,0,0,1,1.963-.588,3.326,3.326,0,0,1,1.988.524,1.736,1.736,0,0,1,.722,1.493q0,1.84-2.463,1.9h0Zm8.544,4.975-0.01,4.144h1.138V52.185h8.041V55.33h1.177V51.186h-1.108v-9.7h-6.32l-0.188,4.075a9.189,9.189,0,0,1-1.434,4.945l-0.524.682H219.9Zm3.917-5.816,0.128-2.779h4.006v8.6h-5.914a9.862,9.862,0,0,0,1.78-5.816h0Zm19.79,6.815V52.066a6.3,6.3,0,0,1-.326-2.324V44.678a3.213,3.213,0,0,0-1.063-2.5,4.171,4.171,0,0,0-2.824-.9,4.57,4.57,0,0,0-2.918.935,2.753,2.753,0,0,0-1.187,2.211l1.187,0.01a1.88,1.88,0,0,1,.811-1.523,3.229,3.229,0,0,1,2.048-.633,2.924,2.924,0,0,1,2.062.658,2.346,2.346,0,0,1,.707,1.805v1.217h-2.146a6.249,6.249,0,0,0-3.625.91,2.865,2.865,0,0,0-1.3,2.473,2.8,2.8,0,0,0,.955,2.176,3.585,3.585,0,0,0,2.5.86,4.861,4.861,0,0,0,2.042-.44,4.131,4.131,0,0,0,1.588-1.251,5.63,5.63,0,0,0,.227,1.494H243.6Zm-6.72-1.444a1.911,1.911,0,0,1-.668-1.493,1.945,1.945,0,0,1,1-1.726,5.3,5.3,0,0,1,2.769-.648H242.1v2.354a3.379,3.379,0,0,1-1.36,1.533,3.972,3.972,0,0,1-2.122.574A2.513,2.513,0,0,1,236.882,50.741Zm20.937-9.258h-1.187v4.8h-5.766v-4.8h-1.187v10.7h1.187V47.279h5.766v4.906h1.187v-10.7Zm7.7,8.8v-8.8h-1.177v10.7h1.177l5.776-8.793v8.793h1.187v-10.7H271.3Zm17.031-8.8a4.273,4.273,0,0,0-2.824.87,2.872,2.872,0,0,0-1.043,2.324,3.162,3.162,0,0,0,.608,1.939A2.98,2.98,0,0,0,281,47.724l-2.69,4.461h1.305l2.612-4.312h3.323v4.312h1.187v-10.7h-4.184Zm-1.973,1.6a2.93,2.93,0,0,1,1.943-.593h3.027v4.372h-3.412a2.3,2.3,0,0,1-1.667-.623,2.1,2.1,0,0,1-.6-1.543A1.993,1.993,0,0,1,280.581,43.085ZM302.6,50.236a5.12,5.12,0,0,1-.885-3.195V46.7a5.237,5.237,0,0,1,.885-3.244,3.226,3.226,0,0,1,4.569-.386,2.906,2.906,0,0,1,.9,2.028h1.138a3.823,3.823,0,0,0-1.222-2.76,4.126,4.126,0,0,0-2.9-1.048,4.382,4.382,0,0,0-2.418.663,4.267,4.267,0,0,0-1.587,1.879,6.678,6.678,0,0,0-.554,2.8v0.356a5.917,5.917,0,0,0,1.231,3.936,4.135,4.135,0,0,0,3.338,1.464,4.518,4.518,0,0,0,2-.455,3.844,3.844,0,0,0,1.5-1.261,3.358,3.358,0,0,0,.613-1.785H308.07a2.454,2.454,0,0,1-.9,1.805,3.125,3.125,0,0,1-2.072.7A2.97,2.97,0,0,1,302.6,50.236Zm19.933,1.948V52.066a6.27,6.27,0,0,1-.327-2.324V44.678a3.21,3.21,0,0,0-1.063-2.5,4.169,4.169,0,0,0-2.824-.9,4.568,4.568,0,0,0-2.917.935,2.75,2.75,0,0,0-1.187,2.211l1.187,0.01a1.88,1.88,0,0,1,.811-1.523,3.226,3.226,0,0,1,2.047-.633,2.923,2.923,0,0,1,2.062.658,2.343,2.343,0,0,1,.707,1.805v1.217h-2.146a6.251,6.251,0,0,0-3.625.91,2.864,2.864,0,0,0-1.3,2.473,2.8,2.8,0,0,0,.954,2.176,3.587,3.587,0,0,0,2.5.86,4.866,4.866,0,0,0,2.043-.44,4.12,4.12,0,0,0,1.587-1.251,5.581,5.581,0,0,0,.228,1.494h1.266Zm-6.721-1.444a1.913,1.913,0,0,1-.667-1.493,1.944,1.944,0,0,1,1-1.726,5.306,5.306,0,0,1,2.77-.648h2.116v2.354a3.371,3.371,0,0,1-1.359,1.533,3.977,3.977,0,0,1-2.122.574A2.516,2.516,0,0,1,315.808,50.741Zm13.974-.455v-8.8h-1.177v10.7h1.177l5.777-8.793v8.793h1.186v-10.7h-1.186Zm4.708-12.66A1.606,1.606,0,0,1,334,38.862a1.922,1.922,0,0,1-1.36.455,1.976,1.976,0,0,1-1.36-.435,1.59,1.59,0,0,1-.49-1.256h-1.009a2.347,2.347,0,0,0,.787,1.845,3.432,3.432,0,0,0,4.154-.005,2.365,2.365,0,0,0,.776-1.84H334.49Zm16.388,3.857h-8.832v1.009H345.8v9.693h1.187V42.492h3.9V41.483Zm3.737,5.43a5.76,5.76,0,0,0,1.33,3.971,4.406,4.406,0,0,0,3.457,1.5,4.622,4.622,0,0,0,2.482-.672,4.465,4.465,0,0,0,1.687-1.914,6.365,6.365,0,0,0,.6-2.794V46.755a5.777,5.777,0,0,0-1.325-3.971,4.4,4.4,0,0,0-3.462-1.5,4.494,4.494,0,0,0-4.169,2.611,6.3,6.3,0,0,0-.6,2.779v0.237Zm1.186-.129a5.024,5.024,0,0,1,1-3.249,3.164,3.164,0,0,1,2.582-1.241,3.261,3.261,0,0,1,1.879.559,3.656,3.656,0,0,1,1.276,1.578,5.45,5.45,0,0,1,.455,2.245V46.9A5.014,5.014,0,0,1,362,50.152a3.364,3.364,0,0,1-5.2,0A4.86,4.86,0,0,1,355.8,47V46.785Zm18.183,5.4a4.872,4.872,0,0,0,2.953-.776,2.572,2.572,0,0,0,1.043-2.191,2.354,2.354,0,0,0-.638-1.632,2.938,2.938,0,0,0-1.686-.9,2.741,2.741,0,0,0,1.414-.915,2.278,2.278,0,0,0,.485-1.429,2.4,2.4,0,0,0-1.088-2.132,5.62,5.62,0,0,0-3.126-.727h-3.926v10.7h4.569Zm0.04-4.926a3.46,3.46,0,0,1,2.057.524A1.66,1.66,0,0,1,376.8,49.2a1.71,1.71,0,0,1-.722,1.484,3.509,3.509,0,0,1-2.057.514h-3.432V47.259h3.432Zm-3.432-4.767h2.749a4.568,4.568,0,0,1,2.27.45,1.536,1.536,0,0,1,.767,1.429q0,1.86-2.789,1.9h-3V42.492Z" data-name="Уроки создания сайтов copy"/>
 <path id="b" class="cls-2" d="M105.882-.313h-3.594L97.724,16.206l-0.1-.017L94.129-.313H89.348l5.7,24.1h4.531L104.043,7.88h0.1l4.464,15.906h4.53l5.684-24.1h-4.764L110.58,16.206h-0.1Zm27.023,23.856a9.034,9.034,0,0,0,2.893-1.488l-1.321-2.986a12.445,12.445,0,0,1-2.341,1.018,9.478,9.478,0,0,1-2.691.323,3.754,3.754,0,0,1-2.884-1.137,4.619,4.619,0,0,1-1.2-2.9l0.033-.1h10.8V13.64a8.358,8.358,0,0,0-2.023-5.909,8.317,8.317,0,0,0-11.627.381,9.733,9.733,0,0,0-2.215,6.571v0.662a8.828,8.828,0,0,0,2.34,6.306,8.187,8.187,0,0,0,6.253,2.483A12.648,12.648,0,0,0,132.905,23.544ZM130.69,10.189a3.849,3.849,0,0,1,.727,2.458v0.43h-5.985l-0.05-.083a5.313,5.313,0,0,1,.97-2.7,2.551,2.551,0,0,1,2.14-1.026A2.633,2.633,0,0,1,130.69,10.189Zm24.939,4.792a11.725,11.725,0,0,0-1.8-6.861,6.013,6.013,0,0,0-5.25-2.574,5.3,5.3,0,0,0-2.516.579,5.5,5.5,0,0,0-1.88,1.655V-2.034h-4.865v25.82h4.179l0.368-2.218a5.658,5.658,0,0,0,2,1.912,5.578,5.578,0,0,0,2.75.654,6.129,6.129,0,0,0,5.216-2.4,10.4,10.4,0,0,0,1.8-6.405V14.981Zm-4.864.35a7.678,7.678,0,0,1-.753,3.755,2.778,2.778,0,0,1-2.641,1.324,4.023,4.023,0,0,1-1.948-.433,3.1,3.1,0,0,1-1.245-1.249V11.1a3.3,3.3,0,0,1,1.237-1.357,3.654,3.654,0,0,1,1.922-.475,2.73,2.73,0,0,1,2.65,1.54,9.349,9.349,0,0,1,.778,4.171v0.35ZM167.3,23.786a10.13,10.13,0,0,0,7.356-2.806,9.643,9.643,0,0,0,2.892-7.241V9.75a9.678,9.678,0,0,0-2.892-7.241A10.1,10.1,0,0,0,167.3-.313h-8.359v24.1H167.3ZM167.052,3.411a5.107,5.107,0,0,1,4.113,1.753,6.783,6.783,0,0,1,1.488,4.547v4.018a6.834,6.834,0,0,1-1.488,4.58,5.106,5.106,0,0,1-4.113,1.753h-3.226V3.411h3.226ZM193.1,23.544A9.018,9.018,0,0,0,196,22.055l-1.32-2.986a12.445,12.445,0,0,1-2.341,1.018,9.478,9.478,0,0,1-2.691.323,3.754,3.754,0,0,1-2.884-1.137,4.619,4.619,0,0,1-1.195-2.9l0.033-.1h10.8V13.64a8.358,8.358,0,0,0-2.023-5.909,8.317,8.317,0,0,0-11.627.381,9.733,9.733,0,0,0-2.215,6.571v0.662a8.828,8.828,0,0,0,2.34,6.306,8.186,8.186,0,0,0,6.252,2.483A12.65,12.65,0,0,0,193.1,23.544Zm-2.215-13.354a3.849,3.849,0,0,1,.727,2.458v0.43h-5.985l-0.05-.083a5.313,5.313,0,0,1,.97-2.7,2.551,2.551,0,0,1,2.14-1.026A2.633,2.633,0,0,1,190.889,10.189Zm17.692,10.1a3.416,3.416,0,0,1-2.064.53,3.965,3.965,0,0,1-2.358-.645,2.5,2.5,0,0,1-.953-2.085h-4.463l-0.034.1a5.046,5.046,0,0,0,2,4.13,8.44,8.44,0,0,0,5.709,1.812,9.121,9.121,0,0,0,5.517-1.531,4.692,4.692,0,0,0,2.09-3.948,4.259,4.259,0,0,0-1.622-3.534,11.752,11.752,0,0,0-4.965-1.945,7.818,7.818,0,0,1-2.884-.943,1.622,1.622,0,0,1-.71-1.357,1.794,1.794,0,0,1,.677-1.432,3.354,3.354,0,0,1,3.895.108,2.349,2.349,0,0,1,.694,1.754h4.714l0.034-.1a4.728,4.728,0,0,0-1.965-4.055,8.691,8.691,0,0,0-5.508-1.605,8.029,8.029,0,0,0-5.258,1.614,4.915,4.915,0,0,0-1.964,3.931,4.134,4.134,0,0,0,1.63,3.451,11.674,11.674,0,0,0,4.84,1.912,7.968,7.968,0,0,1,2.883,1.026A1.7,1.7,0,0,1,208.581,20.294ZM222.2,5.877h-4.881V23.786H222.2V5.877Zm0-7.912h-4.881V1.591H222.2V-2.034Zm3.313,17.363a10.185,10.185,0,0,0,1.864,6.381,6.175,6.175,0,0,0,5.19,2.425,5.612,5.612,0,0,0,2.491-.53,5.446,5.446,0,0,0,1.89-1.539v1.622a3.257,3.257,0,0,1-.945,2.582,4.4,4.4,0,0,1-2.951.828,11.05,11.05,0,0,1-2.532-.273,11.449,11.449,0,0,1-2.282-.8l-0.9,3.608a13.58,13.58,0,0,0,2.842,1.018,12.375,12.375,0,0,0,2.909.372,9.841,9.841,0,0,0,6.444-1.912,6.614,6.614,0,0,0,2.316-5.4V5.877h-4.213L237.25,8.162a5.976,5.976,0,0,0-1.972-1.937,5.179,5.179,0,0,0-2.675-.679,6.06,6.06,0,0,0-5.224,2.6,11.472,11.472,0,0,0-1.864,6.836v0.348Zm4.881-.347a8.9,8.9,0,0,1,.828-4.129A2.755,2.755,0,0,1,233.84,9.27a3.663,3.663,0,0,1,1.864.45,3.372,3.372,0,0,1,1.246,1.265v7.826A3.133,3.133,0,0,1,235.7,20a4.042,4.042,0,0,1-1.9.408,2.8,2.8,0,0,1-2.608-1.357,7.313,7.313,0,0,1-.8-3.722v-0.35Zm15.018-9.1V23.786H250.3V10.763a3.569,3.569,0,0,1,1.287-1.1,3.794,3.794,0,0,1,1.739-.39,2.977,2.977,0,0,1,2.224.755,3.613,3.613,0,0,1,.735,2.563v11.2h4.9V12.6q0-3.641-1.538-5.346a5.469,5.469,0,0,0-4.279-1.7,5.815,5.815,0,0,0-2.959.761,6.587,6.587,0,0,0-2.224,2.135l-0.217-2.565h-4.547ZM273.49-.313v24.1h4.881V16.6L277.9,6.026,278,6.01l6.487,17.776h3.277l6.519-17.842,0.1,0.017L293.919,16.6v7.183H298.8v-24.1h-6.386l-6.252,17.76h-0.1l-6.2-17.76H273.49Zm45.195,24.1a11.741,11.741,0,0,1-.61-2.2,13.874,13.874,0,0,1-.192-2.367v-7.4a5.622,5.622,0,0,0-2.023-4.643,8.134,8.134,0,0,0-5.266-1.63,8.733,8.733,0,0,0-5.534,1.647,4.533,4.533,0,0,0-1.989,3.914l0.017,0.1,4.714,0.016a2,2,0,0,1,.644-1.581,3.225,3.225,0,0,1,3.853.141,2.769,2.769,0,0,1,.685,2V13.21h-2.725a10.3,10.3,0,0,0-5.976,1.448,4.706,4.706,0,0,0-2.048,4.08,5.158,5.158,0,0,0,1.538,3.948,6.144,6.144,0,0,0,4.38,1.448,4.984,4.984,0,0,0,2.934-.861,6.689,6.689,0,0,0,1.981-2.168,8.95,8.95,0,0,0,.276,1.39,9.952,9.952,0,0,0,.46,1.291h4.881ZM307.7,20.012a1.849,1.849,0,0,1-.6-1.44,2.485,2.485,0,0,1,.8-1.862,3.28,3.28,0,0,1,2.357-.77h2.725v2.532a3.283,3.283,0,0,1-1.354,1.457,4.216,4.216,0,0,1-2.29.629A2.345,2.345,0,0,1,307.7,20.012Zm22.949,0.281a3.416,3.416,0,0,1-2.064.53,3.965,3.965,0,0,1-2.358-.645,2.5,2.5,0,0,1-.952-2.085h-4.464l-0.034.1a5.049,5.049,0,0,0,2,4.13,8.44,8.44,0,0,0,5.709,1.812A9.121,9.121,0,0,0,334,22.6a4.692,4.692,0,0,0,2.09-3.948,4.259,4.259,0,0,0-1.622-3.534,11.752,11.752,0,0,0-4.965-1.945,7.818,7.818,0,0,1-2.884-.943,1.625,1.625,0,0,1-.71-1.357,1.8,1.8,0,0,1,.677-1.432,3.354,3.354,0,0,1,3.895.108,2.345,2.345,0,0,1,.694,1.754h4.714l0.034-.1a4.725,4.725,0,0,0-1.965-4.055,8.691,8.691,0,0,0-5.508-1.605A8.029,8.029,0,0,0,323.2,7.16a4.915,4.915,0,0,0-1.964,3.931,4.134,4.134,0,0,0,1.63,3.451,11.674,11.674,0,0,0,4.84,1.912,7.968,7.968,0,0,1,2.883,1.026A1.7,1.7,0,0,1,330.651,20.294Zm9.408-18.8V5.877h-2.641V9.27h2.641v9.136a5.982,5.982,0,0,0,1.363,4.353,5.232,5.232,0,0,0,3.887,1.374,8.751,8.751,0,0,0,1.521-.124,9.909,9.909,0,0,0,1.438-.372l-0.418-3.492a5.79,5.79,0,0,1-.644.141,4.525,4.525,0,0,1-.66.041,1.555,1.555,0,0,1-1.17-.447,2.093,2.093,0,0,1-.435-1.49V9.27h3.043V5.877h-3.043V1.491h-4.882Zm22.773,22.052a9.029,9.029,0,0,0,2.892-1.488L364.4,19.069a12.438,12.438,0,0,1-2.34,1.018,9.486,9.486,0,0,1-2.692.323,3.75,3.75,0,0,1-2.883-1.137,4.62,4.62,0,0,1-1.2-2.9l0.034-.1h10.8V13.64A8.358,8.358,0,0,0,364.1,7.731a8.318,8.318,0,0,0-11.628.381,9.733,9.733,0,0,0-2.215,6.571v0.662a8.824,8.824,0,0,0,2.341,6.306,8.185,8.185,0,0,0,6.252,2.483A12.654,12.654,0,0,0,362.832,23.544Zm-2.215-13.354a3.849,3.849,0,0,1,.727,2.458v0.43h-5.985l-0.05-.083a5.3,5.3,0,0,1,.97-2.7,2.549,2.549,0,0,1,2.139-1.026A2.634,2.634,0,0,1,360.617,10.189ZM379.27,5.745q-0.318-.083-0.627-0.141a3.879,3.879,0,0,0-3.009.728,5.665,5.665,0,0,0-1.647,2.193L373.77,5.877h-4.531V23.786H374.1v-12.1a2.84,2.84,0,0,1,1.07-1.258,3.275,3.275,0,0,1,1.789-.447l1.789,0.05Z" data-name="WebDesign Master copy"/>
 <path id="c" class="cls-2" d="M50.176,53H40.6L31.839,17.812,23.332,52.679,23.256,53H13.729L0,1H9.525l8.638,35.5L26.824,1H36.4l8.764,35.188L53.744,1h9.528L77,53H67.475L58.837,17.5"/>
</svg>
