<svg xmlns="http://www.w3.org/2000/svg" xmlns:xlink="http://www.w3.org/1999/xlink" viewBox="865 162.849 178.077 72.682"><defs><style>.a{opacity:0.1;}.b{fill:url(#a);}.c{fill:url(#b);}.d{fill:#333;}.e,.g{fill:#fff;}.e{opacity:0.3;}.f{opacity:0.5;}.h{fill:url(#c);}</style><linearGradient id="a" x1="0.24" y1="0.46" x2="0.688" y2="0.556" gradientUnits="objectBoundingBox"><stop offset="0" stop-color="#919191"/><stop offset="1" stop-color="#fff"/></linearGradient><linearGradient id="b" x1="0.264" y1="0.424" x2="0.671" y2="0.519" gradientUnits="objectBoundingBox"><stop offset="0" stop-color="#900"/><stop offset="1" stop-color="#e80000"/></linearGradient><linearGradient id="c" x1="0.5" y1="0.998" x2="0.5" gradientUnits="objectBoundingBox"><stop offset="0" stop-color="#fff"/><stop offset="0.403" stop-color="#fff"/><stop offset="1" stop-color="#fff"/></linearGradient></defs><g transform="translate(864.953 162.805)"><path class="a" d="M418.17,2.435a.845.845,0,0,0,0,.417s.452,2.956-.07,4.278L396.676,62.882a7.987,7.987,0,0,0,14.921,5.7l21.424-55.752c.417-1.078,2.817-3.2,2.817-3.2a2.238,2.238,0,0,0,.278-.313V9.286c0-.035.035-.035.035-.07.557-1.426-3.026-4.138-7.964-6.051s-9.425-2.3-9.982-.835a.153.153,0,0,0-.035.1Z" transform="translate(-258.084 -0.91)"/><path class="b" d="M22.144,1.038a.847.847,0,0,0,0,.417s.452,2.956-.07,4.278L.651,61.485a7.987,7.987,0,0,0,14.921,5.7L37,11.437c.417-1.078,2.817-3.2,2.817-3.2a2.245,2.245,0,0,0,.278-.313V7.889c0-.035.035-.035.035-.07.557-1.426-3.026-4.138-7.965-6.052s-9.426-2.3-9.982-.835a.128.128,0,0,1-.035.1Z" transform="translate(137.316 0)"/><path class="c" d="M32.776,75.253,17.3,115.458a5.755,5.755,0,0,1-7.408,3.235,5.888,5.888,0,0,1-3.443-7.408l9.877-25.7a11.306,11.306,0,0,1,3.652-3.408c2.434-1.426,4.417-1.113,7.095-2.3,2.713-1.182,5.7-4.626,5.7-4.626Z" transform="translate(133.431 -49)"/><path class="d" d="M477.733,10.215c.308-.8-1.911-2.41-4.956-3.586s-5.764-1.477-6.073-.673,1.911,2.41,4.956,3.586,5.764,1.477,6.072.673Z" transform="translate(-304.021 -3.558)"/><path class="e" d="M416.229,4.08s.449,2.948-.069,4.266L394.876,63.941a7.939,7.939,0,0,0,4.6,10.2,6.631,6.631,0,0,0,2.142.485,8.027,8.027,0,0,1-2.661-9.156l20.87-54.485a13.344,13.344,0,0,1-3.593-6.9Z" transform="translate(-256.913 -2.629)"/><g class="f" transform="translate(146.566 36.687)"><ellipse class="g" cx="0.622" cy="0.624" rx="0.622" ry="0.624" transform="translate(5.286 0)"/><ellipse class="g" cx="0.933" cy="0.936" rx="0.933" ry="0.936" transform="translate(9.018 4.162)"/><ellipse class="g" cx="1.762" cy="1.769" rx="1.762" ry="1.769" transform="translate(2.004 8.67)"/><ellipse class="g" cx="0.933" cy="0.936" rx="0.933" ry="0.936" transform="translate(0 12.763)"/><ellipse class="g" cx="0.622" cy="0.624" rx="0.622" ry="0.624" transform="translate(4.008 20.011)"/></g><path class="a" d="M43.115,59.331c.939.763,2.643.312,3.791-.936,1.218-1.318,1.391-3.017.452-3.78s-2.643-.312-3.791,1.006c-1.217,1.318-1.426,2.983-.452,3.711ZM40.3,61.793c-.244,0-.7.451-.313.624a1.175,1.175,0,0,1,.765,1.249c-.452,2.6-3.687,5.549-4.939,6.555-.313.312.139,1.006.452.763A19.48,19.48,0,0,0,39.6,67.758a79.427,79.427,0,0,1-7.234,11.93C26.664,87.561,18,94.81,12.057,94.81a9.678,9.678,0,0,1-9.669-7.942c-.07-.521-.765-.624-.626.069C2.84,93.422,7.848,95.954,13.9,95.954c6.643,0,14.434-4.786,18.746-9.711,6.956-7.942,11.442-17.1,10.26-22.266A2.537,2.537,0,0,0,40.3,61.793ZM83.042,79.1c1.843-.451,3.339-1.457,3.339-3.052,0-.174-.313-.174-.313,0,0,.936-1.078,1.734-2.3,1.908-2.852.451-8.486-2.879-11.13-6.312,2.852,1.075,8.66-.485,11.408-2.462,2.539-1.838,3.547-3.85,3.722-5.48C88.085,61,85.128,59.4,80.989,61c-2.643,1.075-5.808,3.4-9.112,7.769,3.478-5.723,10.329-15.086,17.042-21.052,8.173-7.248,12.9-5.861,5.565,1.838a48.982,48.982,0,0,1-12.66,9.017c-1.217.52-.626,1.214.244.832A54.152,54.152,0,0,0,95.18,50.625c9.947-9.537,1.634-16.716-9.356-6.624-7.478,6.867-12.346,14.046-16.59,23.375a33.457,33.457,0,0,1-3.86,4.335,2.07,2.07,0,0,0-.383.416c-3.652,3.121-9.39,7.352-12.973,7.387-2.539.07-3.617-1.838-3.165-4.3.7-3.85,4.695-8.393,8.1-9.954,4.417-2.012,7.025,1.908,1.217,5.028a16.321,16.321,0,0,1-5.947,1.769c-1.252,0-1.148.52-.07.555a16.968,16.968,0,0,0,6.5-1.561c5.947-2.844,6.33-8.15-.139-8.323C51.5,62.487,43.08,68.452,43.15,75.978c.07,3.4,2.782,5.237,6.5,5.237,6.225-.07,11.755-4.786,16.312-8.948.661-.555,1.287-1.145,1.913-1.769-1.6,4.023-2.4,7.769-2.017,10.543a5.365,5.365,0,0,0,2.3,3.711c.174.138.557,0,.313-.382-1.322-1.56-.939-6.243.869-10.786,1.53,3.052,7.478,6.9,13.7,5.514ZM75.564,65.955c7.269-6.485,10.121-.693,5.5,2.844-2.4,1.838-7.165,3.225-8.66,2.324l-.313-.173c-.174-.312-.383-.624-.522-.936A36.818,36.818,0,0,1,75.564,65.955Zm40.414-7.387c2.922.312,1.7-3.225-1.252-2.324-1.321.381-2.608,2.913-3.547,5.1a88.263,88.263,0,0,1-11.2,13.387c-3.026,2.6-5.808,3.295-2.4-1.561a46.276,46.276,0,0,0,4.174-6.1c2.4-5.237-2.713-7.56-6.852-4.4-2.4,1.838-5.634,5.618-8.173,7.7-.7.555-.522,1.387.174.832,2.017-1.63,5.564-5.376,8.625-7.56,2.539-1.942,3.547-.693,2.087.936-2.017,2.324-5.565,6.382-6.469,8.948-1.252,3.85.243,5.549,2.782,5.549,3.478,0,8.66-5.41,12.138-9.711,1.148-1.457,2.4-3.156,3.478-4.786A129.282,129.282,0,0,1,99.423,81.735C93.858,89.3,86.9,94.983,80.294,94.983a9.752,9.752,0,0,1-9.738-7.942c-.07-.52-.7-.624-.626.069,1.078,6.485,6.086,9.017,12.138,9.017,6.643,0,13.042-3.85,17.529-8.566,9.043-9.538,10.121-20.254,12.9-26.254,1.321-2.74,2.5-2.844,3.478-2.74Zm36.8-9.156c1.322-2.254,1.252-4.023-1.843-4.023a19.032,19.032,0,0,0-8.556,3.225c-.452.451-.243.693.313.451.382-.139.835-.382,1.252-.555,2.226-1.214,1.321,1.318.835,2.254a156.544,156.544,0,0,1-9.808,14.323,49.022,49.022,0,0,1-3.791,4.509c-2.365,2.255-7.06,6.243-10.642,7.56-11.512,4.3,3.165-15.26,4.382-16.855,2.713-3.4,8.8-9.329,10.642-12.312,1.322-2.255,1.252-4.023-1.843-4.023a19.036,19.036,0,0,0-8.555,3.225c-.452.451-.244.693.313.451.383-.139.835-.382,1.252-.555,2.226-1.214,1.322,1.318.835,2.255a156.524,156.524,0,0,1-9.808,14.323,40.951,40.951,0,0,1-6.4,6.936c-.765.624-.313,1.214.452.694a21.546,21.546,0,0,0,2.852-2.636c-2.087,4.162-3.791,10.023,1.7,10.717,4.7.624,10.26-4.127,13.877-7.665l1.287-1.283.313-.312c-2.087,4.162-3.791,10.023,1.7,10.717,6.017.833,13.495-7.248,16.382-10.231.556-.555.382-1.526-.557-.555-1.7,1.769-7.478,7.006-11.651,8.566-11.512,4.3,3.165-15.26,4.382-16.855,2.748-3.468,8.834-9.4,10.677-12.346Z" transform="translate(-1.105 -25.452)"/><path class="h" d="M41.384,57.639c.939.763,2.643.312,3.791-.936,1.217-1.318,1.391-3.017.452-3.78s-2.643-.312-3.791,1.006c-1.217,1.318-1.391,2.948-.452,3.711ZM38.6,60.1c-.244,0-.7.451-.313.624a1.175,1.175,0,0,1,.765,1.249c-.452,2.6-3.687,5.549-4.939,6.555-.313.312.139,1.006.452.763a19.479,19.479,0,0,0,3.339-3.225A79.454,79.454,0,0,1,30.671,78c-5.7,7.873-14.364,15.121-20.311,15.121A9.679,9.679,0,0,1,.692,85.176c-.07-.521-.765-.624-.626.069C1.144,91.73,6.152,94.262,12.2,94.262c6.643,0,14.433-4.786,18.746-9.711,6.956-7.942,11.442-17.1,10.26-22.265-.522-1.942-1.843-2.255-2.608-2.185ZM81.31,77.407c1.843-.451,3.339-1.457,3.339-3.052,0-.174-.313-.174-.313,0,0,.936-1.078,1.734-2.3,1.908-2.852.451-8.486-2.878-11.129-6.312,2.852,1.075,8.66-.485,11.408-2.462,2.539-1.838,3.547-3.85,3.721-5.48.313-2.705-2.643-4.3-6.782-2.705-2.643,1.075-5.808,3.4-9.112,7.769,3.478-5.723,10.329-15.086,17.042-21.052,8.173-7.248,12.9-5.861,5.564,1.838a48.981,48.981,0,0,1-12.66,9.017c-1.217.52-.626,1.214.244.832a54.135,54.135,0,0,0,13.112-8.775c9.947-9.537,1.635-16.716-9.355-6.624C76.615,49.142,71.746,56.355,67.5,65.685a33.435,33.435,0,0,1-3.861,4.335,2.076,2.076,0,0,0-.382.416c-3.652,3.121-9.391,7.352-12.973,7.387-2.539.07-3.617-1.838-3.165-4.3.7-3.85,4.7-8.393,8.1-9.954,4.417-2.011,7.025,1.908,1.217,5.028A16.326,16.326,0,0,1,50.5,70.367c-1.252,0-1.148.52-.07.555a16.966,16.966,0,0,0,6.5-1.561c5.947-2.844,6.33-8.15-.139-8.323-7.025-.243-15.442,5.722-15.372,13.248.07,3.4,2.782,5.237,6.5,5.237,6.225-.07,11.755-4.786,16.311-8.948.661-.555,1.287-1.145,1.913-1.769-1.6,4.023-2.4,7.769-2.018,10.543a5.366,5.366,0,0,0,2.3,3.711c.174.138.557,0,.313-.382-1.321-1.561-.939-6.243.869-10.786,1.565,3.052,7.512,6.9,13.7,5.514ZM73.833,64.228c7.269-6.485,10.121-.693,5.5,2.844-2.4,1.838-7.165,3.225-8.66,2.324l-.313-.174c-.174-.312-.383-.624-.522-.936a40.141,40.141,0,0,1,4-4.058Zm40.414-7.352c2.921.312,1.7-3.225-1.252-2.324-1.322.381-2.609,2.913-3.547,5.1a88.307,88.307,0,0,1-11.2,13.387c-3.026,2.6-5.808,3.295-2.4-1.561a46.322,46.322,0,0,0,4.174-6.1c2.4-5.237-2.713-7.56-6.852-4.4-2.4,1.838-5.634,5.618-8.173,7.7-.7.555-.522,1.387.174.832,2.017-1.63,5.565-5.376,8.625-7.56,2.539-1.942,3.547-.693,2.087.936-2.017,2.324-5.565,6.382-6.469,8.948-1.252,3.85.244,5.549,2.782,5.549,3.478,0,8.66-5.41,12.138-9.711,1.148-1.457,2.4-3.156,3.478-4.786a129.221,129.221,0,0,1-10.12,17.168C92.127,87.6,85.171,93.292,78.563,93.292a9.752,9.752,0,0,1-9.738-7.942c-.07-.52-.7-.624-.626.069,1.078,6.485,6.086,9.017,12.138,9.017,6.643,0,13.042-3.85,17.529-8.566,9.043-9.538,10.121-20.254,12.9-26.254,1.322-2.74,2.539-2.878,3.478-2.74Zm36.8-9.191c1.321-2.254,1.252-4.023-1.843-4.023a19.036,19.036,0,0,0-8.556,3.225c-.452.451-.244.693.313.451.383-.139.835-.382,1.252-.555,2.226-1.214,1.322,1.318.835,2.255a156.53,156.53,0,0,1-9.808,14.323,49.019,49.019,0,0,1-3.791,4.509c-2.365,2.254-7.06,6.243-10.642,7.561-11.512,4.3,3.165-15.26,4.382-16.855,2.713-3.4,8.8-9.329,10.642-12.312,1.322-2.255,1.252-4.023-1.843-4.023a19.032,19.032,0,0,0-8.556,3.225c-.452.451-.243.694.313.451.382-.139.835-.381,1.252-.555,2.226-1.214,1.321,1.318.835,2.254a156.5,156.5,0,0,1-9.808,14.323,40.983,40.983,0,0,1-6.4,6.936c-.765.624-.313,1.214.452.693a21.538,21.538,0,0,0,2.852-2.636c-2.087,4.162-3.791,10.023,1.7,10.717,4.7.624,10.26-4.127,13.877-7.665l1.287-1.283.313-.312c-2.087,4.162-3.791,10.023,1.7,10.717,6.017.832,13.495-7.248,16.381-10.231.556-.555.382-1.526-.557-.555-1.7,1.769-7.478,7.005-11.651,8.566-11.512,4.3,3.165-15.26,4.382-16.855,2.783-3.468,8.834-9.4,10.677-12.346Z" transform="translate(0 -24.35)"/></g></svg>