<svg xmlns="http://www.w3.org/2000/svg" width="400.471" height="137.949" viewBox="0 0 400.471 137.949"><g transform="translate(-163.679 -175.105)"><path d="M177.693,184.871a4.658,4.658,0,0,0-2.519-1.736,4.24,4.24,0,0,0,1.971-1.748,4.953,4.953,0,0,0,.691-2.558,5.1,5.1,0,0,0-.3-1.71,4.963,4.963,0,0,0-.848-1.513,4.35,4.35,0,0,0-1.331-1.083,3.651,3.651,0,0,0-1.749-.418H164.4v18.53h8.8a6.379,6.379,0,0,0,2.1-.339,5.375,5.375,0,0,0,1.722-.966,4.545,4.545,0,0,0,1.175-1.514,4.419,4.419,0,0,0,.43-1.957A4.926,4.926,0,0,0,177.693,184.871Zm-1.684,3.771a3.123,3.123,0,0,1-.652,1,3.307,3.307,0,0,1-.966.691,2.741,2.741,0,0,1-1.2.261h-6.447v-6.368h6.629a2.546,2.546,0,0,1,1.149.261,2.836,2.836,0,0,1,.9.7,3.457,3.457,0,0,1,.6,1.031,3.4,3.4,0,0,1,.222,1.213,3.135,3.135,0,0,1-.235,1.206Zm-3.21-12.5a2.546,2.546,0,0,1,1.083.235,2.454,2.454,0,0,1,.862.652,3.256,3.256,0,0,1,.561.992,3.568,3.568,0,0,1,.209,1.226,3.24,3.24,0,0,1-.823,2.167,2.849,2.849,0,0,1-.9.665,2.632,2.632,0,0,1-1.148.248h-5.9v-6.185H172.8Zm11.707,2.871h-2.244v13.623h1.983l7.282-10.178v10.178h2.245V179.012h-1.853L184.506,189.4V179.012Zm11.234,17.9h1.9v-4.28h10.231v4.28h1.984V190.65h-1.619V179.01h-8.482l-.417,3.81q-.236,2.191-.47,3.641a13.581,13.581,0,0,1-.548,2.323,3.365,3.365,0,0,1-.744,1.291,2.28,2.28,0,0,1-1.057.575h-.783v6.263Zm3.811-6.263a6.921,6.921,0,0,0,1.109-2.441,33.1,33.1,0,0,0,.822-4.45l.391-2.949H206v9.84h-6.446Zm20.472,1.983a7,7,0,0,0,1.71-.718,6.133,6.133,0,0,0,1.357-1.083,5,5,0,0,0,.926-1.383l-1.983-.548a2.894,2.894,0,0,1-.614.94,3.875,3.875,0,0,1-.926.7,5.29,5.29,0,0,1-1.122.457,4.5,4.5,0,0,1-1.227.17,4.229,4.229,0,0,1-1.683-.34,4.709,4.709,0,0,1-1.423-.939,4.776,4.776,0,0,1-1.018-1.436,5.272,5.272,0,0,1-.469-1.853h11.3a2.684,2.684,0,0,0,.04-.365c.008-.157.013-.33.013-.522a7.3,7.3,0,0,0-.483-2.623,6.752,6.752,0,0,0-1.37-2.218,6.681,6.681,0,0,0-4.959-2.1,6.939,6.939,0,0,0-2.819.561,6.806,6.806,0,0,0-2.2,1.527,6.886,6.886,0,0,0-1.436,2.244,7.282,7.282,0,0,0-.509,2.714,7.385,7.385,0,0,0,.509,2.728,6.966,6.966,0,0,0,1.423,2.257,6.656,6.656,0,0,0,2.192,1.527,6.939,6.939,0,0,0,2.819.561,7.278,7.278,0,0,0,1.952-.256ZM213.5,184.91a5.16,5.16,0,0,1,.457-1.775,4.614,4.614,0,0,1,.992-1.4,4.436,4.436,0,0,1,1.422-.914,4.627,4.627,0,0,1,4.868.9,4.8,4.8,0,0,1,1.018,1.4,4.917,4.917,0,0,1,.482,1.788H213.5Zm23.141,7.412a6.778,6.778,0,0,0,3.588-3.784,7.366,7.366,0,0,0,.5-2.689,7.262,7.262,0,0,0-.509-2.714,7.118,7.118,0,0,0-1.409-2.244,6.821,6.821,0,0,0-9.918,0,7.118,7.118,0,0,0-1.409,2.244,7.282,7.282,0,0,0-.509,2.714,7.366,7.366,0,0,0,.5,2.689,6.8,6.8,0,0,0,9.164,3.784Zm-6.969-8.443a5.2,5.2,0,0,1,.966-1.618,4.639,4.639,0,0,1,1.436-1.1,3.931,3.931,0,0,1,1.761-.405,4.045,4.045,0,0,1,1.762.392,4.612,4.612,0,0,1,1.448,1.083,5.056,5.056,0,0,1,.979,1.618,5.5,5.5,0,0,1,.352,1.97,5.569,5.569,0,0,1-.352,2,5.056,5.056,0,0,1-.979,1.618,4.612,4.612,0,0,1-1.448,1.083,4.154,4.154,0,0,1-3.523,0,4.544,4.544,0,0,1-1.436-1.07,5.063,5.063,0,0,1-.966-1.592,5.482,5.482,0,0,1-.352-1.983,5.591,5.591,0,0,1,.35-2Zm17.686,1.057h-1.331v-5.924h-2.244v13.623h2.244v-5.977h1.592l4.672,5.977h2.531l-5.715-6.994,5.35-6.629H251.9Zm9.4,12.814a2.013,2.013,0,0,0,.822.549,3.545,3.545,0,0,0,1.135.156,3.776,3.776,0,0,0,1.2-.183,2.791,2.791,0,0,0,1.031-.639,5.222,5.222,0,0,0,.913-1.214,14.4,14.4,0,0,0,.874-1.9l5.951-15.5h-2.192l-4.229,11.561-4.645-11.561h-2.375l5.768,13.623a10.256,10.256,0,0,1-1.2,2.975,1.642,1.642,0,0,1-1.279.836,2.623,2.623,0,0,1-.9-.157,2.766,2.766,0,0,1-.874-.548v2.009Zm23.873-5.415a6.073,6.073,0,0,0,1.931-1.514,6.888,6.888,0,0,0,1.253-2.244,8.443,8.443,0,0,0,.443-2.754,7.5,7.5,0,0,0-.482-2.662,7.274,7.274,0,0,0-1.345-2.257,6.462,6.462,0,0,0-2.035-1.553,5.8,5.8,0,0,0-2.584-.574,5.48,5.48,0,0,0-2.858.77,6.31,6.31,0,0,0-2.1,2.022v-2.557h-2.036v19.182h2.3v-8.247a6.344,6.344,0,0,0,2.049,2.114,5.378,5.378,0,0,0,2.988.835,5.471,5.471,0,0,0,2.47-.561Zm-4.542-1.67a5,5,0,0,1-1.226-.679,5.113,5.113,0,0,1-1.018-1.018,5.865,5.865,0,0,1-.731-1.266v-3.888a2.924,2.924,0,0,1,.561-1.188,4.488,4.488,0,0,1,1.018-.965,5.747,5.747,0,0,1,1.253-.653,3.7,3.7,0,0,1,1.292-.248,4.217,4.217,0,0,1,1.84.405,4.7,4.7,0,0,1,1.474,1.1,5.348,5.348,0,0,1,1.357,3.562,5.743,5.743,0,0,1-.313,1.879,5.242,5.242,0,0,1-.9,1.632,4.511,4.511,0,0,1-1.409,1.148,3.91,3.91,0,0,1-1.84.431,3.8,3.8,0,0,1-1.364-.252Zm11.05-2.14a6.946,6.946,0,0,0,1.422,2.257,6.8,6.8,0,0,0,5.011,2.114,7.22,7.22,0,0,0,3.628-.966,5.465,5.465,0,0,0,1.318-1.07,4.818,4.818,0,0,0,.874-1.383l-2.245-.678a2.254,2.254,0,0,1-.522.822,4.019,4.019,0,0,1-.848.665,4.524,4.524,0,0,1-1.07.457,4.258,4.258,0,0,1-1.187.17,4.045,4.045,0,0,1-1.762-.392,4.462,4.462,0,0,1-1.435-1.083,5.348,5.348,0,0,1-.979-1.631,5.8,5.8,0,0,1-.013-4.019,5.2,5.2,0,0,1,.952-1.592,4.2,4.2,0,0,1,1.436-1.057,4.252,4.252,0,0,1,1.775-.379,4.149,4.149,0,0,1,2.087.535,3.733,3.733,0,0,1,1.462,1.5l2.245-.7a5.849,5.849,0,0,0-2.232-2.414,6.607,6.607,0,0,0-3.51-.9,6.917,6.917,0,0,0-2.832.561,6.813,6.813,0,0,0-2.179,1.513,6.7,6.7,0,0,0-1.41,2.232,7.458,7.458,0,0,0-.5,2.714,7.363,7.363,0,0,0,.508,2.724Zm17.04-6.486v-2.923h-1.9v2.923Zm0,10.6v-2.923h-1.9v2.923Z" transform="translate(0 1)" fill="#fff" fill-rule="evenodd"/><path d="M165.111,311.048h6.906a5.684,5.684,0,0,0,2.026-.34,4.424,4.424,0,0,0,1.528-.951,4.028,4.028,0,0,0,.963-1.449,5.064,5.064,0,0,0,.328-1.857,4.289,4.289,0,0,0-1.279-3.283,5.043,5.043,0,0,0-3.589-1.2h-5.728v-5.954h9.509v-1.042H165.111Zm1.155-1.042v-7.019h5.728a4.884,4.884,0,0,1,1.732.272,2.766,2.766,0,0,1,1.766,1.857,4.582,4.582,0,0,1,.193,1.335,4.311,4.311,0,0,1-.215,1.37,3.155,3.155,0,0,1-.657,1.132,3.058,3.058,0,0,1-1.143.77,4.4,4.4,0,0,1-1.653.283h-5.751Zm12.947,5.57a2.125,2.125,0,0,0,1.45.475,2.322,2.322,0,0,0,.8-.136,1.922,1.922,0,0,0,.7-.464,4.516,4.516,0,0,0,.645-.849,8.854,8.854,0,0,0,.634-1.313l5.819-14.015h-1.109l-4.37,10.664L179.1,299.274h-1.177l5.253,11.774q-.453,1.222-.793,1.992a8.881,8.881,0,0,1-.634,1.223,2.029,2.029,0,0,1-.566.622,1.09,1.09,0,0,1-.588.17,1.863,1.863,0,0,1-1.268-.475Zm10.053-.928h.974v-3.6h9.645v3.6H200.9v-4.6h-1.472V299.274h-6.52l-.363,3.1q-.249,2.129-.509,3.555a16.17,16.17,0,0,1-.566,2.309,4.054,4.054,0,0,1-.668,1.3,1.458,1.458,0,0,1-.838.509h-.7v4.6Zm2.31-4.6a4.72,4.72,0,0,0,1.154-2.286,35.342,35.342,0,0,0,.906-4.891l.34-2.672h4.347v9.849h-6.747Zm12.009,1h3.963a4.475,4.475,0,0,0,1.55-.261,3.481,3.481,0,0,0,1.234-.758,3.418,3.418,0,0,0,.8-1.189,4.048,4.048,0,0,0,.283-1.551,3.512,3.512,0,0,0-1.075-2.74,4.012,4.012,0,0,0-2.8-.973H204.7v-4.3h-1.11V311.05Zm1.11-.974v-5.525h2.853a2.574,2.574,0,0,1,2.083.782,2.94,2.94,0,0,1,.656,1.958,3,3,0,0,1-.668,1.981,2.54,2.54,0,0,1-2.071.8H204.7Zm14.666-2.581a6.311,6.311,0,0,0,1.223,1.958,5.7,5.7,0,0,0,1.845,1.336,5.48,5.48,0,0,0,2.31.487,5.883,5.883,0,0,0,1.585-.215,5.548,5.548,0,0,0,1.4-.6,4.653,4.653,0,0,0,1.1-.917,3.7,3.7,0,0,0,.69-1.143l-1.109-.317a2.174,2.174,0,0,1-.51.826,3.842,3.842,0,0,1-.883.691,5.233,5.233,0,0,1-1.109.475,4.165,4.165,0,0,1-1.212.181,4.123,4.123,0,0,1-1.8-.407,4.694,4.694,0,0,1-1.471-1.1,5.536,5.536,0,0,1-1.008-5.615,5.135,5.135,0,0,1,.985-1.6,4.523,4.523,0,0,1,1.461-1.064,4.292,4.292,0,0,1,1.811-.385,4.163,4.163,0,0,1,2.117.555,3.812,3.812,0,0,1,1.483,1.528l1.109-.362a4.559,4.559,0,0,0-1.834-2.015,5.445,5.445,0,0,0-2.83-.725,5.654,5.654,0,0,0-4.166,1.766,5.859,5.859,0,0,0-1.2,1.925,6.454,6.454,0,0,0-.43,2.355,6.376,6.376,0,0,0,.443,2.382Zm12.549-8.219v11.774h5.637a3.6,3.6,0,0,0,1.313-.238,3.073,3.073,0,0,0,1.744-1.676,3.136,3.136,0,0,0,.249-1.256,3.06,3.06,0,0,0-.577-1.868,2.812,2.812,0,0,0-1.574-1.053,2.628,2.628,0,0,0,1.257-1.166,3.384,3.384,0,0,0,.418-1.619,3.043,3.043,0,0,0-.2-1.1,2.776,2.776,0,0,0-1.472-1.562,2.74,2.74,0,0,0-1.155-.238h-5.64Zm1.109,5.366v-4.483h4.211a1.843,1.843,0,0,1,1.506.645,2.334,2.334,0,0,1,.532,1.529,2.517,2.517,0,0,1-.158.894,2.334,2.334,0,0,1-.442.736,2.012,2.012,0,0,1-.691.5,2.143,2.143,0,0,1-.883.181h-4.075Zm0,5.525v-4.642h4.506a2.166,2.166,0,0,1,.917.193,2.242,2.242,0,0,1,.713.509,2.28,2.28,0,0,1,.453.724,2.427,2.427,0,0,1-.487,2.5,2.266,2.266,0,0,1-1.664.714h-4.438Zm18.186.622a5.685,5.685,0,0,0,1.822-1.324,6.412,6.412,0,0,0,1.212-6.634,6.168,6.168,0,0,0-1.223-1.947,5.868,5.868,0,0,0-1.822-1.325,5.294,5.294,0,0,0-2.265-.487,5.362,5.362,0,0,0-2.275.487,5.691,5.691,0,0,0-1.823,1.325,6.462,6.462,0,0,0-1.222,6.633,6.1,6.1,0,0,0,1.2,1.947,5.685,5.685,0,0,0,1.822,1.324,5.613,5.613,0,0,0,4.574,0Zm-6.521-7.539a5.519,5.519,0,0,1,1-1.642,4.642,4.642,0,0,1,1.461-1.109,4.027,4.027,0,0,1,1.788-.408,3.963,3.963,0,0,1,1.778.408,4.921,4.921,0,0,1,1.46,1.1,5.13,5.13,0,0,1,1,1.607,5.279,5.279,0,0,1,.363,1.959,5.335,5.335,0,0,1-.363,1.981,5.28,5.28,0,0,1-1,1.619,4.637,4.637,0,0,1-1.472,1.1,4.237,4.237,0,0,1-3.577,0,4.66,4.66,0,0,1-1.46-1.076,5.075,5.075,0,0,1-.985-1.6,5.462,5.462,0,0,1,.007-3.939Zm22.407-8-.226-.974-3.329.747a8.516,8.516,0,0,0-2.569,1.008,6.493,6.493,0,0,0-1.959,1.845,8.757,8.757,0,0,0-1.257,2.819,15.458,15.458,0,0,0-.441,3.928,10.793,10.793,0,0,0,.328,2.774,5.907,5.907,0,0,0,.985,2.094,4.458,4.458,0,0,0,1.608,1.325,5.007,5.007,0,0,0,2.219.464,5.948,5.948,0,0,0,2.3-.419,4.7,4.7,0,0,0,1.7-1.177,5.305,5.305,0,0,0,1.064-1.8,6.73,6.73,0,0,0,.373-2.287,7.178,7.178,0,0,0-.362-2.343,5.291,5.291,0,0,0-1.019-1.8,4.466,4.466,0,0,0-1.6-1.155,5.263,5.263,0,0,0-2.117-.408,4.742,4.742,0,0,0-2.6.68,4.881,4.881,0,0,0-1.7,1.879,7.72,7.72,0,0,1,1.574-4.359,6.266,6.266,0,0,1,3.5-2.026Zm-8.3,8.355a4.155,4.155,0,0,1,.849-1.449,3.567,3.567,0,0,1,1.291-.9,4.258,4.258,0,0,1,1.63-.3,3.939,3.939,0,0,1,3.09,1.222,4.938,4.938,0,0,1,1.1,3.419,5.9,5.9,0,0,1-.283,1.857,4.368,4.368,0,0,1-.826,1.494,3.876,3.876,0,0,1-1.313,1,4.045,4.045,0,0,1-1.744.362,3.966,3.966,0,0,1-1.732-.362,3.727,3.727,0,0,1-1.29-1.007,4.44,4.44,0,0,1-.8-1.506,6.219,6.219,0,0,1-.272-1.879,5.781,5.781,0,0,1,.3-1.954Zm19.1,7.188a5.689,5.689,0,0,0,1.823-1.324,6.407,6.407,0,0,0,1.211-6.634,6.165,6.165,0,0,0-1.222-1.947,5.872,5.872,0,0,0-1.823-1.325,5.287,5.287,0,0,0-2.264-.487,5.367,5.367,0,0,0-2.276.487,5.688,5.688,0,0,0-1.822,1.325,6.46,6.46,0,0,0-1.223,6.633,6.131,6.131,0,0,0,1.2,1.947,5.689,5.689,0,0,0,1.823,1.324,5.59,5.59,0,0,0,4.571,0Zm-6.52-7.539a5.5,5.5,0,0,1,1-1.642,4.649,4.649,0,0,1,1.46-1.109,4.031,4.031,0,0,1,1.789-.408,3.959,3.959,0,0,1,1.777.408,4.928,4.928,0,0,1,1.461,1.1,5.165,5.165,0,0,1,1,1.607,5.461,5.461,0,0,1-1,5.559,4.649,4.649,0,0,1-1.472,1.1,4.237,4.237,0,0,1-3.577,0,4.664,4.664,0,0,1-1.461-1.076,5.112,5.112,0,0,1-.985-1.6,5.455,5.455,0,0,1,0-3.943Zm10.888,11.4h.974v-3.6h9.645v3.6H293.9v-4.6h-1.472V299.274H285.9l-.363,3.1q-.249,2.129-.509,3.555a16.166,16.166,0,0,1-.566,2.309,4.052,4.052,0,0,1-.668,1.3,1.458,1.458,0,0,1-.838.509h-.7v4.6Zm2.31-4.6a4.728,4.728,0,0,0,1.155-2.286,35.354,35.354,0,0,0,.9-4.891l.34-2.672h4.347v9.849Zm13.119-10.777h-1.11v11.774h1.11V305.5h7.2v5.548H306V299.274h-1.109v5.253h-7.2v-5.253Zm11.828,11.774h3.963a4.482,4.482,0,0,0,1.551-.261,3.486,3.486,0,0,0,1.233-.758,3.4,3.4,0,0,0,.8-1.189,4.048,4.048,0,0,0,.283-1.551,3.509,3.509,0,0,0-1.075-2.74,4.011,4.011,0,0,0-2.8-.973h-2.853v-4.3h-1.11v11.774Zm9.578,0H320.2V299.274h-1.109v11.774Zm-8.468-.974V304.55h2.853a2.573,2.573,0,0,1,2.083.782,2.94,2.94,0,0,1,.656,1.958,3,3,0,0,1-.668,1.981,2.54,2.54,0,0,1-2.071.8h-2.853Zm14.555-10.8H324.07v11.774h1.109v-9.714l4.438,7.7h.7l4.415-7.7v9.714h1.109V299.274h-1.087l-4.8,8.355Zm14.979,11.774v-1.925h-1v1.925Zm9.25-13.472a3.535,3.535,0,0,1,1.438-1.2,4.869,4.869,0,0,1,2.185-.476,3.993,3.993,0,0,1,2.457.691,2.4,2.4,0,0,1,.917,2.049,2.614,2.614,0,0,1-1.087,2.242,5.252,5.252,0,0,1-3.125.792h-.975v1.042h.973a5.718,5.718,0,0,1,3.612,1.007,3.339,3.339,0,0,1,1.279,2.774,3.643,3.643,0,0,1-.3,1.483,3.289,3.289,0,0,1-.826,1.143,3.625,3.625,0,0,1-1.268.725,5.1,5.1,0,0,1-1.641.249,5,5,0,0,1-2.491-.623,4.071,4.071,0,0,1-1.653-1.642l-.928.725a4.806,4.806,0,0,0,1.981,1.891,6.231,6.231,0,0,0,3,.713,6.384,6.384,0,0,0,2.14-.34,4.966,4.966,0,0,0,1.664-.962,4.292,4.292,0,0,0,1.087-1.494,4.7,4.7,0,0,0,.385-1.914,4.376,4.376,0,0,0-.917-2.807,4,4,0,0,0-2.616-1.427,3.569,3.569,0,0,0,2.129-1.279,3.81,3.81,0,0,0,.7-2.343,3.37,3.37,0,0,0-1.189-2.762,5.135,5.135,0,0,0-3.34-.974,5.873,5.873,0,0,0-2.637.566,4.6,4.6,0,0,0-1.755,1.426Zm17.473,13.132a5.294,5.294,0,0,0,2.083-1.63v.973a1.28,1.28,0,0,0,.317.736.92.92,0,0,0,.725.306,1.567,1.567,0,0,0,.215-.011c.083-.011.162-.02.237-.034V310.03a.473.473,0,0,1-.5-.566v-5.751a4.631,4.631,0,0,0-1.222-3.408,4.508,4.508,0,0,0-3.351-1.234,7.728,7.728,0,0,0-4.3,1.54l.43.77a9.346,9.346,0,0,1,1.959-1.042,5.18,5.18,0,0,1,1.822-.362,3.419,3.419,0,0,1,2.581.985,3.666,3.666,0,0,1,.951,2.66v1.155a9.439,9.439,0,0,0-1.732-.464,11.016,11.016,0,0,0-1.913-.17,7.209,7.209,0,0,0-1.992.26,5.013,5.013,0,0,0-1.551.725,3.462,3.462,0,0,0-1.008,1.1,2.776,2.776,0,0,0-.362,1.4,3.525,3.525,0,0,0,.294,1.437,3.4,3.4,0,0,0,.827,1.155,4.032,4.032,0,0,0,2.75,1.053,6.65,6.65,0,0,0,2.738-.565Zm-3.7-.555a3.019,3.019,0,0,1-.962-.588,2.61,2.61,0,0,1-.634-.895,2.75,2.75,0,0,1-.226-1.109,2.1,2.1,0,0,1,.283-1.076,2.459,2.459,0,0,1,.8-.826,4.269,4.269,0,0,1,1.246-.532,6.264,6.264,0,0,1,1.607-.193,10.341,10.341,0,0,1,1.834.159,9.149,9.149,0,0,1,1.7.475v2.083a1.52,1.52,0,0,1-.362.906,4.126,4.126,0,0,1-1.687,1.313,5.77,5.77,0,0,1-2.411.5,3.247,3.247,0,0,1-1.192-.218Zm18.163.634a5.251,5.251,0,0,0,1.71-1.324,6.034,6.034,0,0,0,1.1-1.947,7.084,7.084,0,0,0,.385-2.333,6.5,6.5,0,0,0-1.585-4.222,5.83,5.83,0,0,0-1.789-1.37,4.993,4.993,0,0,0-2.264-.521,4.868,4.868,0,0,0-2.547.713,5.75,5.75,0,0,0-1.913,1.846v-2.355H373.4v16.6h1.132v-7.358a6.546,6.546,0,0,0,1.914,1.958,4.714,4.714,0,0,0,2.7.8,4.927,4.927,0,0,0,2.191-.488Zm-3.826-.77a4.586,4.586,0,0,1-1.223-.668,5.708,5.708,0,0,1-1.018-1,5.58,5.58,0,0,1-.748-1.222v-3.872a2.4,2.4,0,0,1,.5-1.2,4.924,4.924,0,0,1,1.042-1.008,5.541,5.541,0,0,1,1.3-.7,3.686,3.686,0,0,1,1.3-.261,4.14,4.14,0,0,1,1.834.419,5,5,0,0,1,1.5,1.121,5.169,5.169,0,0,1,1.008,1.619,5.226,5.226,0,0,1,.362,1.935,5.685,5.685,0,0,1-.317,1.868,5.2,5.2,0,0,1-.906,1.631,4.491,4.491,0,0,1-1.426,1.143,4,4,0,0,1-1.857.43,3.946,3.946,0,0,1-1.355-.236Zm15.241.691a5.3,5.3,0,0,0,2.083-1.63v.973a1.28,1.28,0,0,0,.317.736.92.92,0,0,0,.724.306,1.577,1.577,0,0,0,.215-.011c.083-.011.162-.02.238-.034V310.03a.473.473,0,0,1-.5-.566v-5.751a4.628,4.628,0,0,0-1.223-3.408,4.506,4.506,0,0,0-3.35-1.234,7.728,7.728,0,0,0-4.3,1.54l.43.77a9.364,9.364,0,0,1,1.958-1.042,5.191,5.191,0,0,1,1.823-.362,3.419,3.419,0,0,1,2.581.985,3.666,3.666,0,0,1,.951,2.66v1.155a9.463,9.463,0,0,0-1.732-.464,11.009,11.009,0,0,0-1.913-.17,7.22,7.22,0,0,0-1.993.26,5.024,5.024,0,0,0-1.551.725,3.467,3.467,0,0,0-1.007,1.1,2.776,2.776,0,0,0-.362,1.4,3.525,3.525,0,0,0,.294,1.437,3.393,3.393,0,0,0,.826,1.155,4.058,4.058,0,0,0,1.234.77,4.013,4.013,0,0,0,1.517.283,6.654,6.654,0,0,0,2.736-.565Zm-3.7-.555a3.008,3.008,0,0,1-.962-.588,2.6,2.6,0,0,1-.634-.895,2.751,2.751,0,0,1-.227-1.109,2.1,2.1,0,0,1,.283-1.076,2.472,2.472,0,0,1,.8-.826,4.274,4.274,0,0,1,1.245-.532,6.273,6.273,0,0,1,1.608-.193,10.336,10.336,0,0,1,1.834.159,9.153,9.153,0,0,1,1.7.475v2.083a1.52,1.52,0,0,1-.362.906,4.126,4.126,0,0,1-1.687,1.313,5.77,5.77,0,0,1-2.411.5,3.247,3.247,0,0,1-1.193-.218Zm19.539-14.91-.226-.974-3.328.747a8.525,8.525,0,0,0-2.57,1.008,6.5,6.5,0,0,0-1.959,1.845,8.733,8.733,0,0,0-1.256,2.819,15.41,15.41,0,0,0-.442,3.928,10.789,10.789,0,0,0,.329,2.774,5.89,5.89,0,0,0,.984,2.094,4.458,4.458,0,0,0,1.608,1.325,5.007,5.007,0,0,0,2.219.464,5.948,5.948,0,0,0,2.3-.419,4.7,4.7,0,0,0,1.7-1.177,5.3,5.3,0,0,0,1.064-1.8,6.732,6.732,0,0,0,.374-2.287,7.177,7.177,0,0,0-.362-2.343,5.324,5.324,0,0,0-1.019-1.8,4.461,4.461,0,0,0-1.6-1.155,5.263,5.263,0,0,0-2.117-.408,4.738,4.738,0,0,0-2.6.68,4.865,4.865,0,0,0-1.7,1.879,7.719,7.719,0,0,1,1.573-4.359,6.266,6.266,0,0,1,3.5-2.026Zm-8.3,8.355a4.155,4.155,0,0,1,.849-1.449,3.585,3.585,0,0,1,1.291-.895,4.257,4.257,0,0,1,1.63-.3,3.942,3.942,0,0,1,3.091,1.222,4.938,4.938,0,0,1,1.1,3.419,5.931,5.931,0,0,1-.283,1.857,4.353,4.353,0,0,1-.827,1.494,3.876,3.876,0,0,1-1.313,1,4.037,4.037,0,0,1-1.743.362,3.963,3.963,0,0,1-1.732-.362,3.739,3.739,0,0,1-1.291-1.007,4.439,4.439,0,0,1-.8-1.506A6.219,6.219,0,0,1,400,305.55a5.808,5.808,0,0,1,.3-1.95Zm17.523,7.109a5.294,5.294,0,0,0,2.083-1.63v.973a1.28,1.28,0,0,0,.317.736.92.92,0,0,0,.725.306,1.563,1.563,0,0,0,.215-.011c.083-.011.162-.02.237-.034v-1.019a.473.473,0,0,1-.5-.566v-5.751a4.631,4.631,0,0,0-1.222-3.408,4.508,4.508,0,0,0-3.351-1.234,7.728,7.728,0,0,0-4.3,1.54l.43.77a9.343,9.343,0,0,1,1.959-1.042,5.181,5.181,0,0,1,1.822-.362,3.419,3.419,0,0,1,2.581.985,3.666,3.666,0,0,1,.951,2.66v1.155a9.44,9.44,0,0,0-1.732-.464,11.012,11.012,0,0,0-1.913-.17,7.2,7.2,0,0,0-1.992.26,5.014,5.014,0,0,0-1.551.725,3.461,3.461,0,0,0-1.008,1.1,2.775,2.775,0,0,0-.362,1.4,3.525,3.525,0,0,0,.294,1.437,3.4,3.4,0,0,0,.827,1.155,4.032,4.032,0,0,0,2.75,1.053,6.651,6.651,0,0,0,2.741-.564Zm-3.7-.555a3.019,3.019,0,0,1-.962-.588,2.61,2.61,0,0,1-.634-.895,2.75,2.75,0,0,1-.226-1.109,2.1,2.1,0,0,1,.283-1.076,2.458,2.458,0,0,1,.8-.826,4.268,4.268,0,0,1,1.246-.532,6.263,6.263,0,0,1,1.607-.193,10.333,10.333,0,0,1,1.834.159,9.149,9.149,0,0,1,1.7.475v2.083a1.52,1.52,0,0,1-.362.906,4.126,4.126,0,0,1-1.687,1.313,5.77,5.77,0,0,1-2.411.5,3.247,3.247,0,0,1-1.189-.217Zm14.314-9.883h4.28v-1h-9.691v1h4.3v10.778h1.109V300.27Zm6.414,10.778h3.963a4.475,4.475,0,0,0,1.55-.261,3.481,3.481,0,0,0,1.234-.758,3.4,3.4,0,0,0,.8-1.189,4.049,4.049,0,0,0,.283-1.551,3.512,3.512,0,0,0-1.075-2.74,4.012,4.012,0,0,0-2.8-.973H435.96v-4.3h-1.11V311.05Zm9.578,0h1.109V299.274h-1.109v11.774Zm-8.468-.974v-5.525h2.853a2.574,2.574,0,0,1,2.083.782,2.94,2.94,0,0,1,.656,1.958,3,3,0,0,1-.668,1.981,2.54,2.54,0,0,1-2.071.8H435.96Zm13.468-10.8v11.774h5.638a3.607,3.607,0,0,0,1.313-.238,3.1,3.1,0,0,0,1.992-2.932,3.054,3.054,0,0,0-.577-1.868,2.81,2.81,0,0,0-1.573-1.053,2.621,2.621,0,0,0,1.256-1.166,3.386,3.386,0,0,0,.419-1.619,3.044,3.044,0,0,0-.2-1.1,2.77,2.77,0,0,0-2.626-1.8h-5.638Zm1.11,5.366v-4.483h4.211a1.84,1.84,0,0,1,1.5.645,2.329,2.329,0,0,1,.533,1.529,2.519,2.519,0,0,1-.159.894,2.351,2.351,0,0,1-.441.736,2.013,2.013,0,0,1-.691.5,2.146,2.146,0,0,1-.883.181h-4.075Zm0,5.525v-4.642h4.5a2.157,2.157,0,0,1,.917.193,2.232,2.232,0,0,1,.713.509,2.279,2.279,0,0,1,.453.724,2.351,2.351,0,0,1,.159.861,2.435,2.435,0,0,1-.646,1.641,2.262,2.262,0,0,1-1.664.714h-4.437Zm16.612.543a5.3,5.3,0,0,0,2.083-1.63v.973a1.28,1.28,0,0,0,.317.736.92.92,0,0,0,.724.306,1.577,1.577,0,0,0,.215-.011c.083-.011.162-.02.238-.034v-1.019a.473.473,0,0,1-.5-.566v-5.751A4.632,4.632,0,0,0,469,300.3a4.507,4.507,0,0,0-3.351-1.234,7.728,7.728,0,0,0-4.3,1.54l.43.77a9.364,9.364,0,0,1,1.958-1.042,5.191,5.191,0,0,1,1.823-.362,3.419,3.419,0,0,1,2.581.985,3.666,3.666,0,0,1,.951,2.66v1.155a9.463,9.463,0,0,0-1.732-.464,11.015,11.015,0,0,0-1.913-.17,7.217,7.217,0,0,0-1.993.26,5.024,5.024,0,0,0-1.551.725,3.468,3.468,0,0,0-1.007,1.1,2.776,2.776,0,0,0-.362,1.4,3.527,3.527,0,0,0,.294,1.437,3.393,3.393,0,0,0,.826,1.155,4.056,4.056,0,0,0,1.234.77,4.014,4.014,0,0,0,1.517.283,6.654,6.654,0,0,0,2.74-.564Zm-3.7-.555a3.008,3.008,0,0,1-.962-.588,2.6,2.6,0,0,1-.634-.895,2.752,2.752,0,0,1-.227-1.109,2.1,2.1,0,0,1,.283-1.076,2.472,2.472,0,0,1,.8-.826,4.273,4.273,0,0,1,1.245-.532,6.272,6.272,0,0,1,1.608-.193,10.333,10.333,0,0,1,1.834.159,9.151,9.151,0,0,1,1.7.475v2.083a1.52,1.52,0,0,1-.362.906,4.126,4.126,0,0,1-1.687,1.313,5.77,5.77,0,0,1-2.411.5,3.245,3.245,0,0,1-1.19-.217Zm17.258-15.022a1.25,1.25,0,0,1-.567.951,3.1,3.1,0,0,1-1.562.294,3.159,3.159,0,0,1-1.619-.317,1.078,1.078,0,0,1-.532-.928h-.747a1.715,1.715,0,0,0,.759,1.369,3.677,3.677,0,0,0,2.139.51,3.631,3.631,0,0,0,2.117-.51,1.718,1.718,0,0,0,.759-1.369Zm-5.933,4.143h-1.109v11.774h1.064l7.449-10.008v10.008h1.132V299.274h-.951l-7.585,10.189V299.274Zm16.108,15.374h.974v-3.6H501.5v3.6h1.019v-4.6h-1.472V299.274h-6.521l-.362,3.1q-.249,2.129-.509,3.555a16.3,16.3,0,0,1-.566,2.309,4.054,4.054,0,0,1-.668,1.3,1.458,1.458,0,0,1-.838.509h-.7v4.6Zm2.31-4.6a4.72,4.72,0,0,0,1.154-2.286,35.348,35.348,0,0,0,.906-4.891l.34-2.672h4.347v9.849Zm18.575,1.008a5.757,5.757,0,0,0,1.415-.6,4.977,4.977,0,0,0,1.132-.917,3.743,3.743,0,0,0,.736-1.166l-1-.272a3.346,3.346,0,0,1-.623.917,3.958,3.958,0,0,1-.9.713,4.918,4.918,0,0,1-1.1.465,4.321,4.321,0,0,1-1.2.169,4.236,4.236,0,0,1-1.744-.362,4.625,4.625,0,0,1-1.438-1,5.391,5.391,0,0,1-1.03-1.506,5.252,5.252,0,0,1-.475-1.89h10.324a.611.611,0,0,0,.023-.215v-.283a6.319,6.319,0,0,0-.43-2.321,6.02,6.02,0,0,0-1.2-1.925,5.76,5.76,0,0,0-1.834-1.313,5.7,5.7,0,0,0-4.585-.011,5.628,5.628,0,0,0-1.823,1.3,6.165,6.165,0,0,0-1.211,1.924,6.232,6.232,0,0,0-.442,2.344,6.376,6.376,0,0,0,.442,2.377,6.292,6.292,0,0,0,1.223,1.958,5.683,5.683,0,0,0,1.845,1.336,5.475,5.475,0,0,0,2.309.487,5.874,5.874,0,0,0,1.583-.206Zm-6.249-6.351a5.738,5.738,0,0,1,.442-1.891,4.721,4.721,0,0,1,1-1.494,4.564,4.564,0,0,1,1.438-.973,4.5,4.5,0,0,1,3.486,0,4.563,4.563,0,0,1,1.438.973,5.083,5.083,0,0,1,1.019,1.483,5.34,5.34,0,0,1,.464,1.9h-9.283Zm13.731-5.434h-1.11v11.774h1.11V305.5h7.2v5.548h1.11V299.274h-1.11v5.253h-7.2v-5.253Zm11.828,11.774h3.962a4.48,4.48,0,0,0,1.551-.261,3.481,3.481,0,0,0,1.234-.758,3.42,3.42,0,0,0,.8-1.189,4.067,4.067,0,0,0,.283-1.551,3.51,3.51,0,0,0-1.076-2.74,4.011,4.011,0,0,0-2.8-.973H532.18v-4.3h-1.109v11.774Zm1.109-.974v-5.525h2.853a2.573,2.573,0,0,1,2.083.782,2.935,2.935,0,0,1,.657,1.958,3,3,0,0,1-.668,1.981,2.541,2.541,0,0,1-2.072.8h-2.853Zm16.309-10.8h-6.906v11.774H542.7V300.157h5.8v-.883Zm3.1,0h-1.109v11.774h1.064L559,301.04v10.008h1.132V299.274h-.951L551.6,309.463V299.274Zm12.553,11.774V309.12h-1v1.925Z" transform="translate(0 -3)" fill="#fff" fill-rule="evenodd"/><path d="M235.7,247.349v-3.577H219.124v3.577Zm39.427-27.764h-3.86v11.469a19.83,19.83,0,0,0-6.331,1.5,14.774,14.774,0,0,0-4.769,3.237,13.951,13.951,0,0,0-3.01,4.712,17.048,17.048,0,0,0,0,11.781,13.479,13.479,0,0,0,3.038,4.656,15.014,15.014,0,0,0,4.769,3.18,19.019,19.019,0,0,0,6.3,1.419v11.583h3.86v-11.64a20.449,20.449,0,0,0,6.246-1.447,14.572,14.572,0,0,0,4.741-3.123,13.41,13.41,0,0,0,3.009-4.628,16.966,16.966,0,0,0,0-11.752,14.256,14.256,0,0,0-2.981-4.685,14.454,14.454,0,0,0-4.741-3.236,19.7,19.7,0,0,0-6.274-1.5V219.585Zm-3.86,38.381a12.57,12.57,0,0,1-8.2-3.492,11.282,11.282,0,0,1-2.981-8.261q0-5.166,2.924-8.09t8.262-3.379v23.222Zm3.86-23.222a12.445,12.445,0,0,1,8.176,3.435,11.038,11.038,0,0,1,2.9,8.034,11.252,11.252,0,0,1-2.952,8.233,12.7,12.7,0,0,1-8.12,3.52V234.744ZM317.2,260.379a13.224,13.224,0,0,0,4.258-3.321,15.075,15.075,0,0,0,2.754-4.883,17.9,17.9,0,0,0,.965-5.9,16.134,16.134,0,0,0-1.05-5.734,15.819,15.819,0,0,0-2.925-4.912,14.445,14.445,0,0,0-4.428-3.406,12.386,12.386,0,0,0-5.621-1.278,12.06,12.06,0,0,0-6.3,1.732,14.344,14.344,0,0,0-4.713,4.514v-5.735h-3.463v41.675h3.861V254.9a15.1,15.1,0,0,0,4.627,4.8,11.686,11.686,0,0,0,6.614,1.9A12.071,12.071,0,0,0,317.2,260.379Zm-9.681-2.754a11.343,11.343,0,0,1-2.867-1.561,12.2,12.2,0,0,1-2.385-2.356,13.523,13.523,0,0,1-1.731-2.953v-9.084a6.254,6.254,0,0,1,1.22-2.81,10.7,10.7,0,0,1,2.385-2.328,12.7,12.7,0,0,1,3.009-1.59,8.955,8.955,0,0,1,3.094-.6,9.936,9.936,0,0,1,4.344.965,11.077,11.077,0,0,1,3.492,2.612,12.553,12.553,0,0,1,2.328,3.8,12.274,12.274,0,0,1,.851,4.542,13.34,13.34,0,0,1-.738,4.4,12.092,12.092,0,0,1-2.129,3.8,10.8,10.8,0,0,1-3.35,2.7,9.238,9.238,0,0,1-4.343,1.022,9.068,9.068,0,0,1-3.182-.559Zm27.759-26.174h-3.8v29.581h3.463l17.317-23.676v23.676h3.8V231.451h-3.123l-17.657,24.131Zm25.813,29.808a9.1,9.1,0,0,0,3.975-1.05,7.607,7.607,0,0,0,2.924-3.236,26.278,26.278,0,0,0,2.129-6.132,94.22,94.22,0,0,0,1.646-9.738l.8-6.586h9.993v26.515h3.8V231.451H368.981l-.851,8.006q-.625,5.621-1.278,9.141a26.349,26.349,0,0,1-1.533,5.536,6.082,6.082,0,0,1-2.072,2.782,5.828,5.828,0,0,1-2.782.88Zm47.622-1.079a13.407,13.407,0,0,0,5.139-4.087l.113,2.327a2.773,2.773,0,0,0,.88,2.044,3.32,3.32,0,0,0,2.3.738,9.151,9.151,0,0,0,1.476-.17v-3.407a1.334,1.334,0,0,1-1.419-1.589V242.693q0-5.507-3.18-8.63t-8.744-3.123q-5.394,0-11.128,3.861l1.363,2.555a22.474,22.474,0,0,1,4.826-2.612,13.042,13.042,0,0,1,4.656-.908,8.111,8.111,0,0,1,6.131,2.3,8.584,8.584,0,0,1,2.215,6.217v2.669a20.019,20.019,0,0,0-4.145-1.136,27.388,27.388,0,0,0-4.6-.4,18.041,18.041,0,0,0-5,.653,12.517,12.517,0,0,0-3.918,1.845,8.657,8.657,0,0,0-2.555,2.839,7.283,7.283,0,0,0-.908,3.577,8.824,8.824,0,0,0,2.81,6.529,9.809,9.809,0,0,0,3.123,1.959,10.45,10.45,0,0,0,3.889.71,15.81,15.81,0,0,0,6.674-1.418Zm-8.544-2.044a6.861,6.861,0,0,1-2.243-1.391,6.447,6.447,0,0,1-1.476-2.072,6.1,6.1,0,0,1-.54-2.555,5.178,5.178,0,0,1,2.555-4.485,11.766,11.766,0,0,1,6.643-1.7,22.411,22.411,0,0,1,4.23.4,23.781,23.781,0,0,1,4,1.135v4.826a2.821,2.821,0,0,1-.256,1.108,3.548,3.548,0,0,1-.766,1.107,9.047,9.047,0,0,1-3.833,3.009,13.331,13.331,0,0,1-5.535,1.135,7.553,7.553,0,0,1-2.781-.517ZM429.6,231.451h-3.8v29.581h3.8v-13.57h16.579v13.57h3.8V231.451h-3.8v12.775H429.6Zm28.17,20.667a15.54,15.54,0,0,0,3.094,4.911,14.37,14.37,0,0,0,10.674,4.571,15.254,15.254,0,0,0,4.06-.539,13.821,13.821,0,0,0,3.577-1.533,12.533,12.533,0,0,0,2.81-2.328,9.68,9.68,0,0,0,1.817-2.924L480,253.14a5.276,5.276,0,0,1-1.192,1.931,9.311,9.311,0,0,1-2.044,1.618,10.877,10.877,0,0,1-2.584,1.107,10.186,10.186,0,0,1-2.81.4,9.544,9.544,0,0,1-4.173-.937,11.067,11.067,0,0,1-3.435-2.555,12,12,0,0,1-2.328-3.832,13.67,13.67,0,0,1-.028-9.425,11.34,11.34,0,0,1,2.271-3.719,10.786,10.786,0,0,1,3.406-2.47,10.3,10.3,0,0,1,9.2.369,9,9,0,0,1,3.492,3.549l3.747-1.192a12.227,12.227,0,0,0-4.712-5.139,13.814,13.814,0,0,0-7.325-1.9,14.853,14.853,0,0,0-6.018,1.193,14.185,14.185,0,0,0-4.684,3.264,14.756,14.756,0,0,0-3.038,4.855,16.194,16.194,0,0,0-1.078,5.905,15.97,15.97,0,0,0,1.1,5.956Zm48.992,8.943a14.228,14.228,0,0,0,3.634-1.533,13.5,13.5,0,0,0,2.895-2.328,9.819,9.819,0,0,0,1.931-2.981l-3.35-.909a7.189,7.189,0,0,1-1.472,2.19,9.7,9.7,0,0,1-2.158,1.675,11.455,11.455,0,0,1-2.612,1.079,10.484,10.484,0,0,1-2.838.4,10.106,10.106,0,0,1-4.06-.823,10.784,10.784,0,0,1-3.378-2.3,12.065,12.065,0,0,1-2.413-3.492,12.43,12.43,0,0,1-1.107-4.4h25.322a2.28,2.28,0,0,0,.057-.625V246.1a15.6,15.6,0,0,0-4.088-10.618,14.109,14.109,0,0,0-10.56-4.542,14.272,14.272,0,0,0-5.905,1.221,14.55,14.55,0,0,0-4.684,3.293,15.22,15.22,0,0,0-3.066,4.826,15.61,15.61,0,0,0-1.108,5.877,15.971,15.971,0,0,0,1.108,5.961,15.54,15.54,0,0,0,3.09,4.911,14.511,14.511,0,0,0,4.684,3.35,14.216,14.216,0,0,0,5.933,1.221,15.783,15.783,0,0,0,4.144-.539Zm-14.99-16.381a12.889,12.889,0,0,1,1.05-4.315,10.9,10.9,0,0,1,2.328-3.406,10.484,10.484,0,0,1,3.378-2.215,10.646,10.646,0,0,1,4.088-.8,10.445,10.445,0,0,1,4.06.795,10.571,10.571,0,0,1,3.35,2.215,11.807,11.807,0,0,1,2.384,3.378,11.95,11.95,0,0,1,1.108,4.343Zm51.619,15.7a13.224,13.224,0,0,0,4.258-3.321,15.094,15.094,0,0,0,2.754-4.883,17.9,17.9,0,0,0,.965-5.9,16.113,16.113,0,0,0-1.051-5.734,15.816,15.816,0,0,0-2.924-4.912,14.447,14.447,0,0,0-4.428-3.406,12.389,12.389,0,0,0-5.621-1.278,12.06,12.06,0,0,0-6.3,1.732,14.344,14.344,0,0,0-4.713,4.514v-5.735h-3.463v41.675h3.86V254.9a15.116,15.116,0,0,0,4.628,4.8,11.686,11.686,0,0,0,6.614,1.9,12.071,12.071,0,0,0,5.421-1.221Zm-9.681-2.754a11.342,11.342,0,0,1-2.867-1.561,12.2,12.2,0,0,1-2.385-2.356,13.572,13.572,0,0,1-1.732-2.953v-9.084a6.255,6.255,0,0,1,1.221-2.81,10.7,10.7,0,0,1,2.385-2.328,12.7,12.7,0,0,1,3.009-1.59,8.954,8.954,0,0,1,3.094-.6,9.936,9.936,0,0,1,4.344.965,11.077,11.077,0,0,1,3.492,2.612,12.549,12.549,0,0,1,2.327,3.8,12.257,12.257,0,0,1,.852,4.542,13.365,13.365,0,0,1-.738,4.4,12.091,12.091,0,0,1-2.129,3.8,10.8,10.8,0,0,1-3.35,2.7,9.238,9.238,0,0,1-4.343,1.022,9.067,9.067,0,0,1-3.18-.56Zm28.724-9.538V220.323h-3.861v27.764h3.861Zm0,12.945v-6.359h-3.861v6.359Z" fill="#fff" fill-rule="evenodd"/><path d="M195.589,261.032V220.72H178.726a12.774,12.774,0,0,0-5.138,1.022,12.525,12.525,0,0,0-4.059,2.782,13.128,13.128,0,0,0-2.669,4.032,12.2,12.2,0,0,0-.965,4.826,12.606,12.606,0,0,0,2.1,7.21,12.085,12.085,0,0,0,5.564,4.543l-9.88,15.9h8.631L181.4,246.1h6.416v14.932h7.778ZM187.811,239.4h-8.4a5.385,5.385,0,0,1-4-1.647,5.963,5.963,0,0,1-1.618-4.371,6.112,6.112,0,0,1,.482-2.47,5.561,5.561,0,0,1,1.306-1.874,6.174,6.174,0,0,1,1.846-1.192,5.544,5.544,0,0,1,2.157-.426h8.233V239.4Z" fill="#ff9910" fill-rule="evenodd"/></g></svg>