<svg xmlns="http://www.w3.org/2000/svg" xmlns:xlink="http://www.w3.org/1999/xlink" viewBox="398 2716.405 210 112.878"><defs><style>.a{opacity:0.1;}.b{fill:url(#a);}.c{fill:url(#b);}.d{fill:#333;}.e,.g,.h{fill:#fff;}.e{opacity:0.3;}.f{opacity:0.5;}.h{font-size:12px;font-family:Roboto-Light, Roboto;font-weight:300;opacity:0.25;}</style><linearGradient id="a" x1="0.24" y1="0.46" x2="0.688" y2="0.556" gradientUnits="objectBoundingBox"><stop offset="0" stop-color="#919191"/><stop offset="1" stop-color="#fff"/></linearGradient><linearGradient id="b" x1="0.264" y1="0.424" x2="0.671" y2="0.519" gradientUnits="objectBoundingBox"><stop offset="0" stop-color="#900"/><stop offset="1" stop-color="#e80000"/></linearGradient></defs><g transform="translate(-467 2531.556)"><g transform="translate(865 184.849)"><path class="a" d="M422.114,2.613a1,1,0,0,0,0,.492s.533,3.486-.082,5.045L396.767,73.9a9.419,9.419,0,0,0,17.6,6.726l25.265-65.746c.492-1.271,3.322-3.773,3.322-3.773a2.643,2.643,0,0,0,.328-.369v-.041c0-.041.041-.041.041-.082.656-1.681-3.568-4.88-9.392-7.136S422.812.767,422.155,2.49a.18.18,0,0,0-.041.123Z" transform="translate(-233.386 -0.868)"/><path class="b" d="M26.088,1.216a1,1,0,0,0,0,.492s.533,3.486-.082,5.045L.742,72.5a9.419,9.419,0,0,0,17.6,6.726L43.6,13.479c.492-1.271,3.322-3.773,3.322-3.773a2.647,2.647,0,0,0,.328-.369V9.3c0-.041.041-.041.041-.082.656-1.682-3.568-4.88-9.393-7.136S26.786-.63,26.129,1.093a.151.151,0,0,1-.041.123Z" transform="translate(161.902 -0.045)"/><path class="c" d="M37.557,75.253,19.306,122.666a6.787,6.787,0,0,1-8.736,3.814,6.943,6.943,0,0,1-4.06-8.736l11.648-30.31a13.333,13.333,0,0,1,4.307-4.019c2.871-1.682,5.209-1.313,8.367-2.707,3.2-1.394,6.726-5.455,6.726-5.455Z" transform="translate(158.39 -44.347)"/><path class="d" d="M479.715,11.059c.364-.949-2.253-2.842-5.844-4.229s-6.8-1.742-7.161-.793,2.253,2.842,5.844,4.229S479.352,12.007,479.715,11.059Z" transform="translate(-274.918 -3.261)"/><path class="e" d="M420.147,4.08s.53,3.477-.082,5.031l-25.1,65.561a9.363,9.363,0,0,0,5.42,12.024,7.82,7.82,0,0,0,2.526.572,9.466,9.466,0,0,1-3.138-10.8l24.611-64.252a15.737,15.737,0,0,1-4.238-8.139Z" transform="translate(-232.327 -2.422)"/><g class="f" transform="translate(172.785 43.212)"><ellipse class="g" cx="0.734" cy="0.736" rx="0.734" ry="0.736" transform="translate(6.234 0)"/><ellipse class="g" cx="1.1" cy="1.104" rx="1.1" ry="1.104" transform="translate(10.635 4.908)"/><ellipse class="g" cx="2.078" cy="2.086" rx="2.078" ry="2.086" transform="translate(2.363 10.224)"/><ellipse class="g" cx="1.1" cy="1.104" rx="1.1" ry="1.104" transform="translate(0 15.051)"/><ellipse class="g" cx="0.734" cy="0.736" rx="0.734" ry="0.736" transform="translate(4.726 23.598)"/></g><path class="a" d="M50.531,62.955c1.107.9,3.117.368,4.47-1.1,1.436-1.554,1.641-3.558.533-4.458s-3.117-.368-4.471,1.186c-1.435,1.554-1.682,3.518-.533,4.377Zm-3.322,2.9c-.288,0-.821.532-.369.736a1.386,1.386,0,0,1,.9,1.472c-.533,3.067-4.348,6.544-5.824,7.73-.369.368.164,1.186.533.9a22.972,22.972,0,0,0,3.937-3.8,93.666,93.666,0,0,1-8.531,14.069c-6.726,9.284-16.939,17.832-23.952,17.832A11.413,11.413,0,0,1,2.5,95.429c-.082-.614-.9-.736-.738.081,1.271,7.648,7.178,10.634,14.314,10.634,7.834,0,17.021-5.644,22.107-11.451,8.2-9.366,13.494-20.163,12.1-26.257a2.992,2.992,0,0,0-3.076-2.577ZM97.616,86.268c2.174-.532,3.937-1.718,3.937-3.6,0-.2-.369-.2-.369,0,0,1.1-1.271,2.045-2.707,2.25-3.363.531-10.008-3.395-13.125-7.444,3.363,1.268,10.213-.572,13.453-2.9,2.994-2.168,4.183-4.54,4.389-6.462.369-3.19-3.117-5.071-8-3.19-3.117,1.268-6.849,4.008-10.745,9.162,4.1-6.749,12.181-17.791,20.1-24.826,9.638-8.548,15.216-6.912,6.562,2.168A57.763,57.763,0,0,1,96.18,62.056c-1.435.614-.738,1.431.288.981A63.859,63.859,0,0,0,111.93,52.69c11.73-11.247,1.927-19.713-11.033-7.811-8.818,8.1-14.56,16.564-19.564,27.566a39.455,39.455,0,0,1-4.552,5.112,2.442,2.442,0,0,0-.451.491c-4.307,3.681-11.074,8.671-15.3,8.711-2.994.082-4.266-2.168-3.732-5.071.82-4.54,5.537-9.9,9.556-11.738,5.209-2.372,8.285,2.25,1.435,5.93a19.247,19.247,0,0,1-7.013,2.086c-1.477,0-1.354.614-.082.655a20.009,20.009,0,0,0,7.67-1.841c7.013-3.353,7.464-9.611-.164-9.815-8.285-.286-18.21,6.748-18.128,15.623.082,4.008,3.281,6.176,7.669,6.176,7.342-.082,13.863-5.644,19.236-10.552.779-.655,1.517-1.35,2.256-2.086-1.887,4.744-2.83,9.161-2.379,12.433a6.327,6.327,0,0,0,2.707,4.377c.205.163.656,0,.369-.45-1.559-1.84-1.107-7.362,1.025-12.719,1.8,3.6,8.818,8.139,16.16,6.5ZM88.8,70.767c8.572-7.648,11.935-.818,6.48,3.354-2.83,2.168-8.449,3.8-10.212,2.74l-.369-.2c-.205-.368-.451-.736-.615-1.1A43.418,43.418,0,0,1,88.8,70.767Zm47.658-8.711c3.445.368,2.01-3.8-1.477-2.74-1.558.45-3.076,3.435-4.183,6.012A104.085,104.085,0,0,1,117.59,81.115c-3.568,3.067-6.849,3.885-2.83-1.841,1.641-2.29,3.733-4.744,4.922-7.2,2.83-6.176-3.2-8.916-8.08-5.194-2.83,2.168-6.644,6.626-9.638,9.08-.82.654-.615,1.636.205.981,2.379-1.922,6.562-6.339,10.171-8.916,2.994-2.29,4.183-.818,2.461,1.1-2.379,2.74-6.562,7.526-7.628,10.552-1.477,4.54.287,6.544,3.281,6.544,4.1,0,10.212-6.38,14.314-11.451,1.353-1.718,2.83-3.722,4.1-5.644a152.461,152.461,0,0,1-11.935,20.245C110.371,98.292,102.168,105,94.375,105a11.5,11.5,0,0,1-11.484-9.366c-.082-.614-.82-.736-.738.082,1.271,7.648,7.178,10.634,14.314,10.634,7.834,0,15.38-4.54,20.671-10.1C127.8,85,129.074,72.362,132.355,65.287c1.558-3.231,2.953-3.353,4.1-3.231Zm43.393-10.8c1.559-2.658,1.477-4.744-2.174-4.744a22.443,22.443,0,0,0-10.09,3.8c-.533.532-.287.818.369.532.451-.164.984-.45,1.477-.654,2.625-1.432,1.558,1.554.984,2.658A184.6,184.6,0,0,1,158.85,69.744a57.812,57.812,0,0,1-4.471,5.317c-2.789,2.659-8.326,7.362-12.55,8.916-13.576,5.071,3.732-18,5.168-19.877,3.2-4.008,10.376-11,12.55-14.519,1.559-2.659,1.477-4.744-2.174-4.744a22.449,22.449,0,0,0-10.089,3.8c-.533.532-.287.818.369.532.451-.164.984-.45,1.477-.655,2.625-1.431,1.559,1.554.984,2.659a184.586,184.586,0,0,1-11.566,16.891A48.292,48.292,0,0,1,131,76.247c-.9.736-.369,1.432.533.818a25.409,25.409,0,0,0,3.363-3.108c-2.461,4.908-4.471,11.82,2.01,12.638,5.537.736,12.1-4.867,16.365-9.039l1.518-1.513.369-.368c-2.461,4.908-4.47,11.82,2.01,12.638,7.1.982,15.914-8.548,19.318-12.065.656-.654.451-1.8-.657-.654-2.01,2.086-8.818,8.262-13.74,10.1-13.576,5.071,3.732-18,5.168-19.877,3.24-4.09,10.417-11.084,12.591-14.56Z" transform="translate(-1.046 -23.057)"/><path class="d" d="M48.794,61.263c1.107.9,3.117.368,4.471-1.1C54.7,58.6,54.9,56.6,53.8,55.7s-3.117-.368-4.47,1.186c-1.435,1.554-1.641,3.477-.533,4.377Zm-3.281,2.9c-.287,0-.82.531-.369.736a1.386,1.386,0,0,1,.9,1.472c-.533,3.067-4.348,6.544-5.824,7.73-.369.368.164,1.186.533.9a22.971,22.971,0,0,0,3.938-3.8,93.7,93.7,0,0,1-8.531,14.069C29.435,94.555,19.222,103.1,12.209,103.1a11.414,11.414,0,0,1-11.4-9.365c-.082-.614-.9-.736-.738.081,1.271,7.648,7.178,10.634,14.314,10.634,7.834,0,17.021-5.644,22.107-11.451,8.2-9.366,13.494-20.163,12.1-26.257-.615-2.291-2.174-2.659-3.076-2.577ZM95.878,84.576c2.174-.532,3.938-1.718,3.938-3.6,0-.2-.369-.2-.369,0,0,1.1-1.271,2.045-2.707,2.249-3.363.531-10.007-3.394-13.124-7.444,3.363,1.268,10.212-.572,13.453-2.9,2.994-2.168,4.183-4.54,4.388-6.462.369-3.19-3.117-5.071-8-3.19-3.117,1.268-6.85,4.008-10.746,9.162,4.1-6.749,12.181-17.791,20.1-24.826,9.638-8.548,15.216-6.912,6.562,2.168A57.762,57.762,0,0,1,94.443,60.364c-1.435.614-.738,1.431.287.981A63.839,63.839,0,0,0,110.192,51c11.73-11.247,1.928-19.713-11.033-7.811C90.342,51.243,84.6,59.75,79.6,70.752a39.43,39.43,0,0,1-4.553,5.112,2.448,2.448,0,0,0-.451.491c-4.307,3.681-11.074,8.671-15.3,8.711C56.3,85.149,55.028,82.9,55.561,80c.82-4.54,5.537-9.9,9.557-11.738,5.209-2.372,8.285,2.25,1.435,5.93a19.253,19.253,0,0,1-7.014,2.086c-1.477,0-1.353.613-.082.654a20.008,20.008,0,0,0,7.67-1.841c7.014-3.353,7.465-9.611-.164-9.815-8.285-.286-18.21,6.748-18.128,15.623.082,4.008,3.281,6.176,7.67,6.176,7.342-.082,13.863-5.644,19.236-10.552.779-.655,1.518-1.35,2.256-2.086-1.887,4.744-2.83,9.161-2.379,12.433a6.328,6.328,0,0,0,2.707,4.377c.205.163.656,0,.369-.45-1.558-1.841-1.107-7.362,1.025-12.72,1.846,3.6,8.859,8.139,16.16,6.5ZM87.06,69.034c8.572-7.648,11.935-.818,6.481,3.354-2.83,2.168-8.449,3.8-10.213,2.74l-.369-.2c-.205-.368-.451-.736-.615-1.1a47.34,47.34,0,0,1,4.716-4.785Zm47.659-8.67c3.445.368,2.01-3.8-1.477-2.74-1.559.45-3.076,3.436-4.183,6.012a104.138,104.138,0,0,1-13.207,15.787c-3.569,3.067-6.85,3.885-2.83-1.841,1.641-2.29,3.732-4.744,4.922-7.2,2.83-6.176-3.2-8.916-8.08-5.194-2.83,2.168-6.644,6.626-9.638,9.08-.82.654-.615,1.636.205.981,2.379-1.922,6.562-6.339,10.171-8.916,2.994-2.29,4.183-.818,2.461,1.1-2.379,2.741-6.562,7.526-7.629,10.552-1.477,4.54.287,6.543,3.281,6.543,4.1,0,10.213-6.38,14.314-11.451,1.354-1.718,2.83-3.722,4.1-5.644A152.388,152.388,0,0,1,115.2,87.685c-6.563,8.916-14.765,15.623-22.558,15.623a11.5,11.5,0,0,1-11.484-9.366c-.082-.614-.82-.736-.738.082,1.271,7.648,7.178,10.634,14.314,10.634,7.834,0,15.38-4.54,20.671-10.1,10.664-11.248,11.935-23.885,15.216-30.961,1.559-3.231,2.994-3.394,4.1-3.231Zm43.393-10.839c1.558-2.658,1.477-4.744-2.174-4.744a22.449,22.449,0,0,0-10.09,3.8c-.533.532-.287.818.369.532.451-.164.984-.45,1.477-.655,2.625-1.431,1.559,1.554.984,2.659a184.59,184.59,0,0,1-11.566,16.891,57.808,57.808,0,0,1-4.47,5.317c-2.789,2.658-8.326,7.362-12.55,8.916-13.576,5.071,3.732-18,5.168-19.877,3.2-4.008,10.376-11,12.55-14.519,1.559-2.659,1.477-4.744-2.174-4.744a22.443,22.443,0,0,0-10.09,3.8c-.533.532-.287.818.369.532.451-.164.984-.45,1.477-.654,2.625-1.431,1.558,1.554.984,2.658a184.546,184.546,0,0,1-11.566,16.891,48.33,48.33,0,0,1-7.547,8.18c-.9.736-.369,1.431.533.818a25.4,25.4,0,0,0,3.363-3.108c-2.461,4.908-4.471,11.82,2.01,12.638,5.537.736,12.1-4.867,16.365-9.039l1.518-1.514.369-.368c-2.461,4.908-4.471,11.82,2.01,12.638,7.1.981,15.914-8.548,19.318-12.065.656-.654.451-1.8-.656-.654-2.01,2.086-8.818,8.261-13.74,10.1-13.576,5.071,3.732-18,5.168-19.877C168.8,60,175.938,53,178.112,49.526Z" transform="translate(-0.047 -22.06)"/></g><text class="h" transform="translate(961.538 294.727)"><tspan x="-92.959" y="0">Видеокурсы от WebDesign Master</tspan></text></g></svg>