<svg width="15.792" height="15.767" version="1.1" viewBox="0 0 15.792 15.767" xmlns="http://www.w3.org/2000/svg">
 <title>СберБанк</title>
 <defs>
  <linearGradient id="f" x1="2.7981" x2="1.8598" y1="10.281" y2="5.8056" gradientTransform="scale(.77791 1.2855)" gradientUnits="userSpaceOnUse">
   <stop stop-color="#F2E913" offset=".1444"/>
   <stop stop-color="#E7E518" offset=".3037"/>
   <stop stop-color="#CADB26" offset=".5823"/>
   <stop stop-color="#A3CD39" offset=".891"/>
  </linearGradient>
  <linearGradient id="e" x1="2.2398" x2="6.2271" y1="2.7088" y2="1.7937" gradientTransform="scale(1.2876 .77666)" gradientUnits="userSpaceOnUse">
   <stop stop-color="#0FA8E0" offset=".0592"/>
   <stop stop-color="#0099F9" offset=".5385"/>
   <stop stop-color="#0291EB" offset=".9234"/>
  </linearGradient>
  <linearGradient id="d" x1="5.7656" x2="10.275" y1="18.285" y2="17.671" gradientTransform="scale(1.2876 .77666)" gradientUnits="userSpaceOnUse">
   <stop stop-color="#A3CD39" offset=".1226"/>
   <stop stop-color="#86C339" offset=".2846"/>
   <stop stop-color="#21A038" offset=".8693"/>
  </linearGradient>
  <linearGradient id="c" x1="5.7689" x2="9.5561" y1="1.7073" y2="2.3865" gradientTransform="matrix(1.3107 0 0 .76298 -.046677 -.13981)" gradientUnits="userSpaceOnUse">
   <stop stop-color="#0291EB" offset=".0566"/>
   <stop stop-color="#0C8ACB" offset=".79"/>
  </linearGradient>
  <linearGradient id="b" x1="2.0591" x2="6.4259" y1="16.837" y2="17.901" gradientTransform="matrix(1.2373 0 0 .80821 -.046677 -.13981)" gradientUnits="userSpaceOnUse">
   <stop stop-color="#F2E913" offset=".1324"/>
   <stop stop-color="#EBE716" offset=".2977"/>
   <stop stop-color="#D9E01F" offset=".5306"/>
   <stop stop-color="#BBD62D" offset=".8023"/>
   <stop stop-color="#A3CD39" offset=".9829"/>
  </linearGradient>
  <linearGradient id="a" x1="1.7688" x2="2.9193" y1="6.6789" y2="2.1191" gradientTransform="matrix(.80951 0 0 1.2353 -.046677 -.13981)" gradientUnits="userSpaceOnUse">
   <stop stop-color="#A3CD39" offset=".0698"/>
   <stop stop-color="#81C55F" offset=".2599"/>
   <stop stop-color="#0FA8E0" offset=".9216"/>
  </linearGradient>
 </defs>
 <path d="m14.143 3.0757c0.37341 0.48155 0.68459 1.0097 0.94909 1.5689l-7.1882 5.2971-3.0184-1.8951v-2.268l3.0029 1.8796z" fill="#21a038"/>
 <g transform="translate(-.046677 .015534)">
  <path d="m1.8671 7.8757c0-0.10874 0-0.20194 0.015559-0.31068l-1.8204-0.093204c0 0.12427-0.015559 0.26408-0.015559 0.38835 0 2.1748 0.88686 4.1476 2.3183 5.5767l1.2914-1.2893c-1.1047-1.0874-1.7893-2.5942-1.7893-4.2718z" fill="url(#f)"/>
  <path d="m7.935 1.8175c0.10891 0 0.20227 0 0.31118 0.015534l0.093353-1.8175c-0.12447 0-0.2645-0.015534-0.38897-0.015534-2.1782 0-4.1542 0.88544-5.5856 2.3146l1.2914 1.2893c1.0891-1.1029 2.6139-1.7864 4.2787-1.7864z" fill="url(#e)"/>
  <path d="m7.935 13.934c-0.10891 0-0.20227 0-0.31118-0.01553l-0.093354 1.8175c0.12447 0 0.2645 0.01553 0.38897 0.01553 2.1782 0 4.1542-0.88544 5.5857-2.3146l-1.2914-1.2893c-1.0891 1.1184-2.5983 1.7864-4.2787 1.7864z" fill="url(#d)"/>
 </g>
 <path d="m11.311 2.8893 1.5403-1.134c-1.3536-1.0874-3.0807-1.7553-4.9633-1.7553v1.8175c1.2758 0.01553 2.4583 0.40388 3.423 1.0718z" fill="url(#c)"/>
 <path d="m15.792 7.8913c0-0.48155-0.04668-0.94757-0.12447-1.4136l-1.6959 1.2583v0.15534c0 1.7864-0.77795 3.3864-2.0071 4.4893l1.2292 1.3515c1.587-1.4291 2.5983-3.5262 2.5983-5.8408z" fill="#21a038"/>
 <path d="m7.8884 13.95c-1.7893 0-3.3918-0.7767-4.4965-2.0039l-1.3536 1.2272c1.447 1.6 3.5319 2.5942 5.8502 2.5942z" fill="url(#b)"/>
 <path d="m3.8275 3.4019-1.2292-1.3515c-1.6026 1.4447-2.5983 3.5262-2.5983 5.8408h1.8204c0-1.7709 0.77795-3.3864 2.0071-4.4893z" fill="url(#a)"/>
</svg>
