<svg xmlns="http://www.w3.org/2000/svg" width="503.34" height="106.943" viewBox="0 0 503.34 106.943"><g transform="translate(-256.176 -180.081)"><path d="M259.747,215.1v-8.821h7.744a6.135,6.135,0,0,0,2.806-.64,7.112,7.112,0,0,0,2.172-1.683,7.7,7.7,0,0,0,1.414-2.407,8.125,8.125,0,0,0,.505-2.845,7.316,7.316,0,0,0-.539-2.727,8.2,8.2,0,0,0-1.481-2.407,7.533,7.533,0,0,0-2.245-1.717,6.213,6.213,0,0,0-2.845-.657h-9.9v23.9h2.357Zm0-21.817h7.435a4.337,4.337,0,0,1,1.869.421,4.781,4.781,0,0,1,1.543,1.162,5.816,5.816,0,0,1,1.431,3.838,6.443,6.443,0,0,1-.337,2.071,5.738,5.738,0,0,1-.943,1.751,4.63,4.63,0,0,1-1.465,1.212,4,4,0,0,1-1.9.455h-7.643V193.287Zm21.042,19.729V203.9h11.69v-1.986H280.8v-8.619h13.4V191.2H278.432v23.9h16.059v-2.087h-13.7Zm25.632,3.333h2.357v-3.4a12.665,12.665,0,0,0,4.175-.909,9.556,9.556,0,0,0,3.148-2.087,9.1,9.1,0,0,0,2-3.131,11.263,11.263,0,0,0,.7-4.107,11.575,11.575,0,0,0-.69-4.091,9.243,9.243,0,0,0-1.986-3.182,9.449,9.449,0,0,0-3.169-2.139,13.121,13.121,0,0,0-4.192-.96v-3.226h-2.357v3.226a13.592,13.592,0,0,0-4.293.96,9.7,9.7,0,0,0-3.226,2.138,9.134,9.134,0,0,0-2.037,3.182,11.3,11.3,0,0,0-.7,4.091,11,11,0,0,0,.724,4.107,9,9,0,0,0,2.054,3.132,9.759,9.759,0,0,0,3.226,2.087,13.217,13.217,0,0,0,4.259.909v3.4Zm2.357-21.817a8.441,8.441,0,0,1,5.673,2.34,9.214,9.214,0,0,1-.034,11.514,8.539,8.539,0,0,1-5.639,2.407V194.532Zm-2.357,16.261a8.725,8.725,0,0,1-5.791-2.374,7.88,7.88,0,0,1-2.087-5.808,7.79,7.79,0,0,1,2.054-5.74,8.763,8.763,0,0,1,5.825-2.34Zm19.258,2.222V203.9h11.69v-1.986H325.686v-8.619h13.4V191.2H323.323v23.9h16.059v-2.087h-13.7Zm21.042,2.087v-8.821h7.743a6.135,6.135,0,0,0,2.806-.64,7.111,7.111,0,0,0,2.172-1.683,7.7,7.7,0,0,0,1.414-2.407,8.124,8.124,0,0,0,.5-2.845,7.315,7.315,0,0,0-.539-2.727,8.2,8.2,0,0,0-1.481-2.407,7.531,7.531,0,0,0-2.244-1.717,6.214,6.214,0,0,0-2.845-.657h-9.9v23.9h2.357Zm0-21.817h7.435a4.337,4.337,0,0,1,1.869.421,4.781,4.781,0,0,1,1.543,1.162A5.817,5.817,0,0,1,359,198.707a6.442,6.442,0,0,1-.337,2.071,5.736,5.736,0,0,1-.943,1.751,4.627,4.627,0,0,1-1.465,1.212,4,4,0,0,1-1.9.455H346.71V193.287Zm21.042,19.729V203.9h11.69v-1.986H367.771v-8.619h13.4V191.2H365.407v23.9h16.059v-2.087h-13.7ZM402.974,191.2v10.639H388.806V191.2h-2.357v23.9h2.357V203.924h14.168V215.1H405.3V191.2h-2.323Zm7.929,16.273a12.989,12.989,0,0,0,2.306,3.939,11.8,11.8,0,0,0,3.535,2.806,9.556,9.556,0,0,0,4.511,1.077,11.272,11.272,0,0,0,2.806-.37,11.624,11.624,0,0,0,2.71-1.077,10.7,10.7,0,0,0,2.323-1.734,7.353,7.353,0,0,0,1.616-2.374l-1.953-1.01a7.194,7.194,0,0,1-1.414,2,8.713,8.713,0,0,1-1.835,1.38,8,8,0,0,1-2.054.808,8.922,8.922,0,0,1-2.071.252,7.76,7.76,0,0,1-3.552-.825A9.036,9.036,0,0,1,415,210.126a10.731,10.731,0,0,1-1.884-3.217,10.6,10.6,0,0,1-.69-3.8,11.531,11.531,0,0,1,.572-3.584,9.938,9.938,0,0,1,1.7-3.183,8.727,8.727,0,0,1,2.778-2.289,7.988,7.988,0,0,1,3.8-.875,9.373,9.373,0,0,1,1.986.219,7.49,7.49,0,0,1,1.953.724,7.833,7.833,0,0,1,1.768,1.313,7.131,7.131,0,0,1,1.4,1.986l1.852-1.145a8.817,8.817,0,0,0-3.35-3.771,9.974,9.974,0,0,0-5.471-1.448,10.615,10.615,0,0,0-4.815,1.061,11.3,11.3,0,0,0-3.569,2.744,11.876,11.876,0,0,0-2.205,3.821,12.6,12.6,0,0,0,.073,8.8Zm23.27,7.626h7.986a9.407,9.407,0,0,0,3.148-.505,6.949,6.949,0,0,0,2.458-1.465,6.859,6.859,0,0,0,1.616-2.34,7.841,7.841,0,0,0,.589-3.1,8.137,8.137,0,0,0-.572-3.131,6.5,6.5,0,0,0-1.6-2.323,6.873,6.873,0,0,0-2.458-1.431,9.817,9.817,0,0,0-3.181-.488H436.5V191.2H434.18v23.9Zm2.323-12.726h5.663a6.663,6.663,0,0,1,2.441.4,4.689,4.689,0,0,1,1.7,1.111,4.417,4.417,0,0,1,.993,1.683,7.192,7.192,0,0,1,0,4.242,4.431,4.431,0,0,1-2.693,2.828,6.662,6.662,0,0,1-2.441.4H436.5V202.371ZM455.619,215.1V191.233h-2.357V215.1h2.357Zm15.027,0h2.323V193.287h13.77V215.1H489.1V191.2H470.652v23.9Zm26.171,0v-8.821h7.743a6.135,6.135,0,0,0,2.806-.64,7.111,7.111,0,0,0,2.172-1.683,7.7,7.7,0,0,0,1.414-2.407,8.124,8.124,0,0,0,.5-2.845,7.315,7.315,0,0,0-.539-2.727,8.206,8.206,0,0,0-1.481-2.407,7.532,7.532,0,0,0-2.245-1.717,6.213,6.213,0,0,0-2.845-.657h-9.9v23.9h2.357Zm0-21.817h7.435a4.337,4.337,0,0,1,1.869.421,4.78,4.78,0,0,1,1.543,1.161,5.816,5.816,0,0,1,1.431,3.838,6.442,6.442,0,0,1-.337,2.071,5.736,5.736,0,0,1-.943,1.751,4.63,4.63,0,0,1-1.465,1.212,4,4,0,0,1-1.9.455h-7.643V193.281Zm32.759,20.992a11.434,11.434,0,0,0,3.552-2.665,12.606,12.606,0,0,0,2.357-3.855,12.426,12.426,0,0,0,.859-4.579,12.6,12.6,0,0,0-.808-4.427,12.841,12.841,0,0,0-2.272-3.889,11.458,11.458,0,0,0-3.535-2.778,9.864,9.864,0,0,0-4.562-1.061,10.064,10.064,0,0,0-4.444.993,11.46,11.46,0,0,0-3.569,2.677,12.624,12.624,0,0,0-2.373,3.872,12.426,12.426,0,0,0-.859,4.579,12.831,12.831,0,0,0,.808,4.478,12.372,12.372,0,0,0,2.289,3.889,11.326,11.326,0,0,0,3.559,2.738,10.543,10.543,0,0,0,9,.034ZM516.9,199.509a10.522,10.522,0,0,1,1.768-3.2,8.719,8.719,0,0,1,2.794-2.273,7.825,7.825,0,0,1,3.67-.859A7.739,7.739,0,0,1,528.7,194a9.062,9.062,0,0,1,2.794,2.205,10.293,10.293,0,0,1,1.835,3.182,10.878,10.878,0,0,1,.656,3.754,11,11,0,0,1-.623,3.636,10.639,10.639,0,0,1-1.767,3.2,8.977,8.977,0,0,1-2.794,2.289,7.716,7.716,0,0,1-3.67.875,7.8,7.8,0,0,1-3.6-.825,8.919,8.919,0,0,1-2.794-2.222,10.161,10.161,0,0,1-1.824-3.2,11.1,11.1,0,0,1-.64-3.754,10.925,10.925,0,0,1,.634-3.63Zm26.21,13.5v-9.118h11.7v-1.986H543.122v-8.619h13.4V191.2H540.759v23.9h16.059v-2.087h-13.7Zm21.042-21.817h-2.323v23.9h2.323V203.886h3.84l8.484,11.211h2.693l-9.259-12.39,8.383-11.514H575.6L567.789,201.8h-3.636V191.2Zm34.217,0H578.983v2.087H587.5V215.1h2.357V193.287h8.518V191.2Zm-1.324,23.9h2.525l3.064-7.474h10.74l3.1,7.474h2.491l-9.932-23.9h-1.986Zm6.094-9.326,4.882-11.817,4.814,11.817h-9.7Zm20.088-4.814v-3.306h-1.953v3.3Zm0,14.14v-3.3h-1.953v3.3Z" transform="translate(0 -9.035)" fill="#fff" fill-rule="evenodd" opacity="0.3"/><path d="M256.181,285.157h6.76v-9.2h24.076v9.2h6.708v-15.5h-5.46V239.033H265.9l-.936,10.4q-.573,6.189-1.248,10.114a32.366,32.366,0,0,1-1.56,6.162,6.824,6.824,0,0,1-2.028,3.068,4.669,4.669,0,0,1-2.652.884h-1.3v15.5Zm11.076-15.5a20.318,20.318,0,0,0,2.886-6.968,78.924,78.924,0,0,0,1.742-11.752l.52-5.616h8.684v24.336H267.257ZM295.129,248.7l8.736,13.156-9.565,14.1h8.164l6.812-10.712h3.172v10.712h7.072V265.241h3.12l6.812,10.712h8.164L328,261.861l8.788-13.156h-7.852l-6.708,10.764h-2.7V248.705H312.4v10.764h-2.652l-6.76-10.764h-7.852Zm64.854,25.766a12.159,12.159,0,0,0,4.81-5.122l-5.98-1.664a5.369,5.369,0,0,1-2.522,2.678,8.035,8.035,0,0,1-3.926,1.014,7.342,7.342,0,0,1-2.6-.468,7,7,0,0,1-3.848-3.484,8.084,8.084,0,0,1-.78-2.86H366.2a5.362,5.362,0,0,0,.13-1.04q.025-.624.026-1.3a14.9,14.9,0,0,0-.962-5.3,13.068,13.068,0,0,0-2.808-4.472,13.716,13.716,0,0,0-4.472-3.068,14.784,14.784,0,0,0-5.954-1.144,15.155,15.155,0,0,0-6.006,1.144,13.653,13.653,0,0,0-4.55,3.094,13.379,13.379,0,0,0-2.86,4.524,15.171,15.171,0,0,0-.988,5.486,14.351,14.351,0,0,0,1.014,5.356,13.369,13.369,0,0,0,7.41,7.514,15.127,15.127,0,0,0,5.928,1.118,14.908,14.908,0,0,0,7.875-2Zm-14.95-14.43a7.5,7.5,0,0,1,.7-2.756,7.139,7.139,0,0,1,1.534-2.132,6.865,6.865,0,0,1,2.158-1.378,7.07,7.07,0,0,1,9.75,6.266H345.033Zm22.044,23.712h5.98v-7.8h18.2v7.8h6.188V269.921H393.8V248.705H374.721l-.936,8.424q-.417,3.693-.806,6.084a17.488,17.488,0,0,1-.988,3.822,5.192,5.192,0,0,1-1.4,2.08,3.982,3.982,0,0,1-2.054.806h-1.456v13.832Zm10.036-13.832a16.4,16.4,0,0,0,1.9-4.42,47,47,0,0,0,1.274-6.864l.52-4.108h6.084v15.392h-9.776Zm38.356,5.3a12.064,12.064,0,0,0,4.42-3.64l.156,1.508a3.8,3.8,0,0,0,1.326,2.34,4.645,4.645,0,0,0,3.042.884,15.574,15.574,0,0,0,3.068-.364v-5.928a1.7,1.7,0,0,1-1.274-.52,2.449,2.449,0,0,1-.39-1.56V259.46q0-5.46-3.25-8.346t-9.126-2.886a20.122,20.122,0,0,0-11.336,3.484l2.132,4.42a19.806,19.806,0,0,1,4.264-2.288,12.048,12.048,0,0,1,4.264-.78,6.383,6.383,0,0,1,4.55,1.456,5.466,5.466,0,0,1,1.534,4.16v1.56a14.542,14.542,0,0,0-3.094-.884,20.176,20.176,0,0,0-3.562-.312,16,16,0,0,0-4.68.65,11.873,11.873,0,0,0-3.666,1.794,8.167,8.167,0,0,0-2.392,2.782,7.562,7.562,0,0,0-.858,3.562,8.267,8.267,0,0,0,.7,3.432,8.471,8.471,0,0,0,1.95,2.73,8.868,8.868,0,0,0,2.964,1.82,10.341,10.341,0,0,0,3.692.65,12.7,12.7,0,0,0,5.566-1.24Zm-6.916-5.018a3.72,3.72,0,0,1-1.352-2.938,3.67,3.67,0,0,1,1.716-3.094,7.448,7.448,0,0,1,4.42-1.222,14.621,14.621,0,0,1,2.808.286,17.118,17.118,0,0,1,2.7.754v3.12a2.5,2.5,0,0,1-1.144,1.976,6.088,6.088,0,0,1-2.47,1.664,9.083,9.083,0,0,1-3.354.624,4.906,4.906,0,0,1-3.324-1.162Zm41.8-32.214q-.312,3.849-4.784,3.848a5.581,5.581,0,0,1-3.458-.936,3.558,3.558,0,0,1-1.274-2.912h-3.848a6.437,6.437,0,0,0,2.444,5.122,11.121,11.121,0,0,0,12.272,0,6.44,6.44,0,0,0,2.444-5.122h-3.8ZM439.485,248.7h-6.916v27.248h5.3l12.74-16.848v16.848h6.916v-27.24h-5.148l-12.9,17.316V248.705Zm37.136,0v27.248h14.3a12.345,12.345,0,0,0,7.176-1.82,6.332,6.332,0,0,0,2.6-5.564,6.692,6.692,0,0,0-1.378-4.446,7.409,7.409,0,0,0-3.77-2.314,5.81,5.81,0,0,0,3.068-2.678,7.648,7.648,0,0,0,.936-3.562,7.145,7.145,0,0,0-.494-2.652,6.585,6.585,0,0,0-1.4-2.184,6.727,6.727,0,0,0-4.914-2.028h-16.12Zm6.916,11.388v-6.344h6.136a2.771,2.771,0,0,1,2.262.91,3.356,3.356,0,0,1,.754,2.21,3.127,3.127,0,0,1-.884,2.392,3.276,3.276,0,0,1-2.34.832h-5.928Zm0,10.816v-6.76h6.916a3.092,3.092,0,0,1,2.392.962,3.672,3.672,0,0,1-.026,4.81,3.13,3.13,0,0,1-2.418.988h-6.864Zm32.38-26.364v-6.188h-5.772v6.188Zm9.984,0v-6.188h-5.772v6.188Zm.078,29.926a12.159,12.159,0,0,0,4.81-5.122l-5.98-1.664a5.369,5.369,0,0,1-2.522,2.678,8.035,8.035,0,0,1-3.926,1.014,7.343,7.343,0,0,1-2.6-.468,7,7,0,0,1-3.848-3.484,8.084,8.084,0,0,1-.78-2.86H532.2a5.371,5.371,0,0,0,.13-1.04q.026-.624.026-1.3a14.9,14.9,0,0,0-.962-5.3,13.068,13.068,0,0,0-2.808-4.472,13.717,13.717,0,0,0-4.472-3.068,14.784,14.784,0,0,0-5.954-1.144,15.155,15.155,0,0,0-6.006,1.144,13.652,13.652,0,0,0-4.55,3.094,13.379,13.379,0,0,0-2.86,4.524,15.171,15.171,0,0,0-.988,5.486,14.35,14.35,0,0,0,1.014,5.356,13.369,13.369,0,0,0,7.41,7.514,15.127,15.127,0,0,0,5.928,1.118,14.908,14.908,0,0,0,7.875-2Zm-14.95-14.43a7.5,7.5,0,0,1,.7-2.756,7.137,7.137,0,0,1,1.534-2.132,6.865,6.865,0,0,1,2.158-1.378,7.07,7.07,0,0,1,9.75,6.266H511.033Zm46.652,15.34a11.52,11.52,0,0,0,3.77-3.016,14.242,14.242,0,0,0,2.47-4.524,17.181,17.181,0,0,0,.884-5.564,15.4,15.4,0,0,0-.962-5.434,14.067,14.067,0,0,0-2.652-4.472,12.64,12.64,0,0,0-4.03-3.016,11.674,11.674,0,0,0-5.1-1.118,10.848,10.848,0,0,0-5.512,1.378,11.12,11.12,0,0,0-3.9,3.77V248.7h-6.084v38.324h6.968v-15.86a10.16,10.16,0,0,0,3.744,3.874,10.737,10.737,0,0,0,5.616,1.43,10.547,10.547,0,0,0,4.792-1.084ZM546.4,269a9.255,9.255,0,0,1-2.86-3.874v-6.4a6.05,6.05,0,0,1,1.066-1.82,8.422,8.422,0,0,1,1.586-1.456,7.152,7.152,0,0,1,1.924-.962,6.55,6.55,0,0,1,2.028-.338,7.166,7.166,0,0,1,2.99.624,7.4,7.4,0,0,1,2.392,1.716,7.949,7.949,0,0,1,1.586,2.574,8.813,8.813,0,0,1,.572,3.2,9.517,9.517,0,0,1-.52,3.12,8.536,8.536,0,0,1-1.456,2.652,6.981,6.981,0,0,1-2.262,1.82,6.258,6.258,0,0,1-2.886.676,6.538,6.538,0,0,1-4.157-1.524Zm22.366-1.3a13.546,13.546,0,0,0,7.41,7.618,14.967,14.967,0,0,0,5.98,1.144,14.54,14.54,0,0,0,7.748-1.976,11.453,11.453,0,0,0,4.628-5.1l-6.812-2.08a5.261,5.261,0,0,1-2.21,2.288,6.684,6.684,0,0,1-3.458.936,6.51,6.51,0,0,1-2.756-.6,6.725,6.725,0,0,1-2.262-1.69,8.362,8.362,0,0,1-1.534-2.6,9.3,9.3,0,0,1-.572-3.328,9.718,9.718,0,0,1,.546-3.328,7.7,7.7,0,0,1,1.508-2.574,6.909,6.909,0,0,1,2.262-1.664,6.643,6.643,0,0,1,2.808-.6,6.551,6.551,0,0,1,3.224.806,6.136,6.136,0,0,1,2.34,2.314l6.812-2.08a12.293,12.293,0,0,0-4.706-5.044,14.34,14.34,0,0,0-7.618-1.924,14.967,14.967,0,0,0-5.98,1.144,13.935,13.935,0,0,0-4.524,3.068,13.169,13.169,0,0,0-2.86,4.472,14.825,14.825,0,0,0-.988,5.408,14.55,14.55,0,0,0,1.018,5.4Zm42.858-12.974H620.1V248.7H596.18v6.032h8.528v21.216h6.916V254.737ZM633,259.521h-1.56V248.705h-6.864v27.248h6.864v-10.5h1.82l8.424,10.5h7.9l-11.44-14.04L648.752,248.7h-7.488Zm26.492-10.816h-6.916v27.248h5.3l12.74-16.848v16.848h6.916V248.705h-5.148l-12.9,17.316V248.705Zm69.428.312h-6.344l2.444-9.984H719.4l-2.392,9.984h-6.24l2.5-9.984h-5.616l-2.444,9.984h-7.54V253.9h6.344l-1.716,7.124h-7.072v5.2h5.824l-2.392,9.724h5.616l2.34-9.724h6.24l-2.444,9.724h5.616l2.392-9.724h8.06v-5.2h-6.812l1.664-7.124h7.592v-4.888Zm-21.06,12.012,1.716-7.124h6.188l-1.664,7.124Zm25.456,21.528h7.9l18.3-36.92H731.753v6.344h16.8Z" fill="#f9c766" fill-rule="evenodd"/></g></svg>